<svg width="88" height="224" viewBox="0 0 88 224" fill="none" xmlns="http://www.w3.org/2000/svg">
<path d="M15.9074 68.7764H14.4074V70.2764V121.422C14.4074 125.011 11.4958 127.923 7.8984 127.923C4.33028 127.923 1.5 125.035 1.5 121.422V64.697C1.5 52.6041 11.4132 42.7735 23.5419 42.7735H63.946C76.0632 42.7735 85.984 52.6042 85.984 64.697V121.422C85.984 125.037 83.1515 127.923 79.5798 127.923C75.9901 127.923 73.0727 125.007 73.0727 121.422V70.2764V68.7764H71.5727H67.445H65.945V70.2764V212.585C65.945 217.67 61.7807 221.817 56.6764 221.817C51.5714 221.817 47.4427 217.677 47.4427 212.585V129.951V128.451H45.9427H41.5374H40.0374V129.951V212.585C40.0374 217.678 35.9077 221.817 30.8154 221.817C25.7171 221.817 21.5798 217.676 21.5798 212.585C21.5798 208.199 21.5565 172.621 21.5332 138.14C21.5216 120.9 21.5099 103.934 21.5012 91.2776L21.4906 76.0304L21.4877 71.7772L21.4869 70.6587L21.4867 70.3721L21.4867 70.2997L21.4866 70.2814L21.4866 70.2769C21.4866 70.2758 21.4866 70.2753 19.9866 70.2764L21.4866 70.2753L21.4856 68.7764H19.9866H15.9074ZM43.744 35.0812C34.4682 35.0812 26.9573 27.5621 26.9554 18.2927V18.2924C26.9555 9.01548 34.4662 1.5 43.744 1.5C53.0105 1.5 60.5287 9.01401 60.5287 18.2927C60.5287 27.5617 53.0104 35.0812 43.744 35.0812Z" fill="#747474" stroke="#747474" stroke-width="3"/>
</svg>
