<svg width="65" height="164" viewBox="0 0 65 164" fill="none" xmlns="http://www.w3.org/2000/svg">
<path d="M11.6674 50.0445H10.1674V51.5445V89.0574C10.1674 91.4688 8.21115 93.4259 5.79311 93.4259C3.40385 93.4259 1.5 91.4935 1.5 89.0574V47.4523C1.5 38.8059 8.58947 31.7722 17.2669 31.7722H46.9014C55.5705 31.7722 62.6655 38.8061 62.6655 47.4523V89.0574C62.6655 91.4947 60.7604 93.4259 58.3681 93.4259C55.9558 93.4259 53.9953 91.4659 53.9953 89.0574V51.5445V50.0445H52.4953H49.4678H47.9678V51.5445V155.922C47.9678 159.428 45.094 162.293 41.5695 162.293C38.0463 162.293 35.1968 159.435 35.1968 155.922V95.3131V93.8131H33.6968H30.4658H28.9658V95.3131V155.922C28.9658 159.437 26.1153 162.293 22.6017 162.293C19.0831 162.293 16.2276 159.434 16.2276 155.922C16.2276 152.704 16.2105 126.609 16.1934 101.319L16.17 66.9476L16.1622 55.7645L16.16 52.6449L16.1595 51.8246L16.1593 51.6144L16.1593 51.5613L16.1593 51.5479L16.1593 51.5445C16.1593 51.5438 16.1593 51.5434 14.6593 51.5445L16.1593 51.5434L16.1582 50.0445H14.6593H11.6674ZM32.0842 25.3307C25.5019 25.3307 20.1718 19.995 20.1703 13.4168V13.4165C20.1705 6.83307 25.5003 1.5 32.0842 1.5C38.6599 1.5 43.9951 6.83211 43.9951 13.4168C43.9951 19.9945 38.6598 25.3307 32.0842 25.3307Z" fill="#AE41D9" stroke="#AE41D9" stroke-width="3"/>
</svg>
