<svg width="67" height="170" viewBox="0 0 67 170" fill="none" xmlns="http://www.w3.org/2000/svg">
<path d="M12.0948 51.9326H10.5948V53.4326V92.3197C10.5948 94.8498 8.54224 96.9032 6.00532 96.9032C3.49724 96.9032 1.5 94.8745 1.5 92.3197V49.1905C1.5 40.1967 8.87411 32.8811 17.8994 32.8811H48.6195C57.6361 32.8811 65.016 40.1969 65.016 49.1905V92.3197C65.016 94.8757 63.0174 96.9032 60.5062 96.9032C57.9752 96.9032 55.9183 94.8469 55.9183 92.3197V53.4326V51.9326H54.4183H51.2799H49.7799V53.4326V161.633C49.7799 165.299 46.776 168.293 43.0923 168.293C39.4096 168.293 36.4312 165.306 36.4312 161.633V98.8045V97.3045H34.9312H31.5818H30.0818V98.8045V161.633C30.0818 165.307 27.1023 168.293 23.4296 168.293C19.7518 168.293 16.7671 165.305 16.7671 161.633C16.7671 158.298 16.7494 131.247 16.7317 105.031C16.7228 91.9227 16.714 79.0228 16.7073 69.4001L16.6993 57.8073L16.6971 54.5735L16.6965 53.723L16.6963 53.5052L16.6963 53.4501L16.6963 53.4362L16.6963 53.4327C16.6963 53.432 16.6963 53.4316 15.1963 53.4326L16.6963 53.4316L16.6952 51.9326H15.1963H12.0948ZM33.2595 26.3135C26.4057 26.3135 20.8557 20.7577 20.8543 13.9083V13.908C20.8544 7.05305 26.4041 1.5 33.2595 1.5C40.1064 1.5 45.6617 7.05204 45.6617 13.9083C45.6617 20.7573 40.1063 26.3135 33.2595 26.3135Z" stroke="#AE41D9" stroke-width="3"/>
</svg>
