<svg width="412" height="111" viewBox="0 0 412 111" fill="none" xmlns="http://www.w3.org/2000/svg">
<path d="M12.743 0C7.71936 0 3.65262 4.06973 3.65262 9.09238C3.65358 14.1112 7.72032 18.1827 12.743 18.1827C17.7608 18.1827 21.8314 14.1112 21.8314 9.09238C21.8314 4.06876 17.7608 0 12.743 0ZM2.70152 20.515C-3.73427 20.515 -9 25.7306 -9 32.1577V60.3529C-9 62.5473 -7.27241 64.3299 -5.07409 64.3299C-2.87481 64.3299 -1.0932 62.5493 -1.0932 60.3529V34.9309H0.934381C0.934381 34.9309 0.980682 101.306 0.980682 105.666C0.980682 108.608 3.37095 111 6.31683 111C9.26078 111 11.6462 108.608 11.6462 105.666V64.5923H13.8359V105.666C13.8359 108.608 16.2213 111 19.171 111C22.1169 111 24.5236 108.608 24.5236 105.666V34.9309H26.5753V60.3529C26.5753 62.5473 28.3598 64.3299 30.5552 64.3299C32.7545 64.3299 34.484 62.5493 34.484 60.3529V32.1577C34.484 25.7306 29.2144 20.515 22.7844 20.515H2.70152Z" fill="#747474"/>
<path d="M67.227 0C62.2034 0 58.1366 4.06973 58.1366 9.09238C58.1376 14.1112 62.2043 18.1827 67.227 18.1827C72.2448 18.1827 76.3154 14.1112 76.3154 9.09238C76.3154 4.06876 72.2448 0 67.227 0ZM57.1855 20.515C50.7497 20.515 45.484 25.7306 45.484 32.1577V60.3529C45.484 62.5473 47.2116 64.3299 49.4099 64.3299C51.6092 64.3299 53.3908 62.5493 53.3908 60.3529V34.9309H55.4184C55.4184 34.9309 55.4647 101.306 55.4647 105.666C55.4647 108.608 57.855 111 60.8008 111C63.7448 111 66.1302 108.608 66.1302 105.666V64.5923H68.3199V105.666C68.3199 108.608 70.7053 111 73.6551 111C76.6009 111 79.0076 108.608 79.0076 105.666V34.9309H81.0593V60.3529C81.0593 62.5473 82.8438 64.3299 85.0392 64.3299C87.2385 64.3299 88.968 62.5493 88.968 60.3529V32.1577C88.968 25.7306 83.6984 20.515 77.2684 20.515H57.1855Z" fill="#747474"/>
<path d="M121.711 0C116.687 0 112.621 4.06973 112.621 9.09238C112.622 14.1112 116.688 18.1827 121.711 18.1827C126.729 18.1827 130.799 14.1112 130.799 9.09238C130.799 4.06876 126.729 0 121.711 0ZM111.67 20.515C105.234 20.515 99.968 25.7306 99.968 32.1577V60.3529C99.968 62.5473 101.696 64.3299 103.894 64.3299C106.093 64.3299 107.875 62.5493 107.875 60.3529V34.9309H109.902C109.902 34.9309 109.949 101.306 109.949 105.666C109.949 108.608 112.339 111 115.285 111C118.229 111 120.614 108.608 120.614 105.666V64.5923H122.804V105.666C122.804 108.608 125.189 111 128.139 111C131.085 111 133.492 108.608 133.492 105.666V34.9309H135.543V60.3529C135.543 62.5473 137.328 64.3299 139.523 64.3299C141.723 64.3299 143.452 62.5493 143.452 60.3529V32.1577C143.452 25.7306 138.182 20.515 131.752 20.515H111.67Z" fill="#747474"/>
<path d="M176.195 0C171.171 0 167.105 4.06973 167.105 9.09238C167.106 14.1112 171.172 18.1827 176.195 18.1827C181.213 18.1827 185.283 14.1112 185.283 9.09238C185.283 4.06876 181.213 0 176.195 0ZM166.154 20.515C159.718 20.515 154.452 25.7306 154.452 32.1577V60.3529C154.452 62.5473 156.18 64.3299 158.378 64.3299C160.577 64.3299 162.359 62.5493 162.359 60.3529V34.9309H164.386C164.386 34.9309 164.433 101.306 164.433 105.666C164.433 108.608 166.823 111 169.769 111C172.713 111 175.098 108.608 175.098 105.666V64.5923H177.288V105.666C177.288 108.608 179.673 111 182.623 111C185.569 111 187.976 108.608 187.976 105.666V34.9309H190.027V60.3529C190.027 62.5473 191.812 64.3299 194.007 64.3299C196.207 64.3299 197.936 62.5493 197.936 60.3529V32.1577C197.936 25.7306 192.667 20.515 186.237 20.515H166.154Z" fill="#747474"/>
<path d="M230.679 0C225.655 0 221.589 4.06973 221.589 9.09238C221.59 14.1112 225.656 18.1827 230.679 18.1827C235.697 18.1827 239.767 14.1112 239.767 9.09238C239.767 4.06876 235.697 0 230.679 0ZM220.638 20.515C214.202 20.515 208.936 25.7306 208.936 32.1577V60.3529C208.936 62.5473 210.664 64.3299 212.862 64.3299C215.061 64.3299 216.843 62.5493 216.843 60.3529V34.9309H218.87C218.87 34.9309 218.917 101.306 218.917 105.666C218.917 108.608 221.307 111 224.253 111C227.197 111 229.582 108.608 229.582 105.666V64.5923H231.772V105.666C231.772 108.608 234.157 111 237.107 111C240.053 111 242.46 108.608 242.46 105.666V34.9309H244.511V60.3529C244.511 62.5473 246.296 64.3299 248.491 64.3299C250.691 64.3299 252.42 62.5493 252.42 60.3529V32.1577C252.42 25.7306 247.151 20.515 240.721 20.515H220.638Z" fill="#747474"/>
<path d="M285.163 0C280.139 0 276.073 4.06973 276.073 9.09238C276.074 14.1112 280.14 18.1827 285.163 18.1827C290.181 18.1827 294.252 14.1112 294.252 9.09238C294.252 4.06876 290.181 0 285.163 0ZM275.122 20.515C268.686 20.515 263.42 25.7306 263.42 32.1577V60.3529C263.42 62.5473 265.148 64.3299 267.346 64.3299C269.545 64.3299 271.327 62.5493 271.327 60.3529V34.9309H273.354C273.354 34.9309 273.401 101.306 273.401 105.666C273.401 108.608 275.791 111 278.737 111C281.681 111 284.066 108.608 284.066 105.666V64.5923H286.256V105.666C286.256 108.608 288.641 111 291.591 111C294.537 111 296.944 108.608 296.944 105.666V34.9309H298.995V60.3529C298.995 62.5473 300.78 64.3299 302.975 64.3299C305.175 64.3299 306.904 62.5493 306.904 60.3529V32.1577C306.904 25.7306 301.635 20.515 295.205 20.515H275.122Z" fill="#747474"/>
<path d="M339.647 0C334.623 0 330.557 4.06973 330.557 9.09238C330.558 14.1112 334.624 18.1827 339.647 18.1827C344.665 18.1827 348.736 14.1112 348.736 9.09238C348.736 4.06876 344.665 0 339.647 0ZM329.606 20.515C323.17 20.515 317.904 25.7306 317.904 32.1577V60.3529C317.904 62.5473 319.632 64.3299 321.83 64.3299C324.029 64.3299 325.811 62.5493 325.811 60.3529V34.9309H327.838C327.838 34.9309 327.885 101.306 327.885 105.666C327.885 108.608 330.275 111 333.221 111C336.165 111 338.55 108.608 338.55 105.666V64.5923H340.74V105.666C340.74 108.608 343.125 111 346.075 111C349.021 111 351.428 108.608 351.428 105.666V34.9309H353.479V60.3529C353.479 62.5473 355.264 64.3299 357.459 64.3299C359.659 64.3299 361.388 62.5493 361.388 60.3529V32.1577C361.388 25.7306 356.119 20.515 349.689 20.515H329.606Z" fill="#747474"/>
<path d="M394.131 0C389.107 0 385.041 4.06973 385.041 9.09238C385.042 14.1112 389.108 18.1827 394.131 18.1827C399.149 18.1827 403.22 14.1112 403.22 9.09238C403.22 4.06876 399.149 0 394.131 0ZM384.09 20.515C377.654 20.515 372.388 25.7306 372.388 32.1577V60.3529C372.388 62.5473 374.116 64.3299 376.314 64.3299C378.513 64.3299 380.295 62.5493 380.295 60.3529V34.9309H382.323C382.323 34.9309 382.369 101.306 382.369 105.666C382.369 108.608 384.759 111 387.705 111C390.649 111 393.034 108.608 393.034 105.666V64.5923H395.224V105.666C395.224 108.608 397.609 111 400.559 111C403.505 111 405.912 108.608 405.912 105.666V34.9309H407.963V60.3529C407.963 62.5473 409.748 64.3299 411.943 64.3299C414.143 64.3299 415.872 62.5493 415.872 60.3529V32.1577C415.872 25.7306 410.603 20.515 404.173 20.515H384.09Z" fill="#747474"/>
</svg>
