<svg width="22" height="18" viewBox="0 0 22 18" fill="none" xmlns="http://www.w3.org/2000/svg">
<path d="M0.750186 2.64706C0.750186 3.70232 1.59449 4.54412 2.61923 4.54412C3.64398 4.54412 4.48828 3.70232 4.48828 2.64706C4.48828 1.5918 3.64398 0.75 2.61923 0.75C1.59449 0.75 0.750186 1.5918 0.750186 2.64706Z" stroke="#444444" stroke-width="1.5"/>
<path d="M9.13105 2.64706C9.13105 3.70232 9.97535 4.54412 11.0001 4.54412C12.0248 4.54412 12.8691 3.70232 12.8691 2.64706C12.8691 1.5918 12.0248 0.75 11.0001 0.75C9.97535 0.75 9.13105 1.5918 9.13105 2.64706Z" stroke="#444444" stroke-width="1.5"/>
<path d="M17.5119 2.64706C17.5119 3.70232 18.3562 4.54412 19.381 4.54412C20.4057 4.54412 21.25 3.70232 21.25 2.64706C21.25 1.5918 20.4057 0.75 19.381 0.75C18.3562 0.75 17.5119 1.5918 17.5119 2.64706Z" stroke="#444444" stroke-width="1.5"/>
<path d="M2.61923 8.16176C1.54507 8.16176 0.750186 8.97268 0.750186 9.88206V15.5297C0.750186 16.4391 1.54507 17.25 2.61923 17.25C3.6934 17.25 4.48828 16.4391 4.48828 15.5297V9.88206C4.48828 8.97268 3.6934 8.16176 2.61923 8.16176Z" stroke="#444444" stroke-width="1.5"/>
<path d="M11.0001 8.16176C9.92593 8.16176 9.13105 8.97268 9.13105 9.88206V15.5297C9.13105 16.4391 9.92592 17.25 11.0001 17.25C12.0743 17.25 12.8691 16.4391 12.8691 15.5297V9.88206C12.8691 8.97268 12.0743 8.16176 11.0001 8.16176Z" stroke="#444444" stroke-width="1.5"/>
<path d="M19.381 8.16176C18.3068 8.16176 17.5119 8.97268 17.5119 9.88206V15.5297C17.5119 16.4391 18.3068 17.25 19.381 17.25C20.4551 17.25 21.25 16.4391 21.25 15.5297V9.88206C21.25 8.97268 20.4551 8.16176 19.381 8.16176Z" stroke="#444444" stroke-width="1.5"/>
</svg>
