<svg width="22" height="18" viewBox="0 0 22 18" fill="none" xmlns="http://www.w3.org/2000/svg">
<path d="M2.61923 5.29412C1.17277 5.29412 0.000185966 4.10899 0.000185966 2.64706C0.000185966 1.18513 1.17277 0 2.61923 0C4.06569 0 5.23828 1.18513 5.23828 2.64706C5.23828 4.10899 4.06569 5.29412 2.61923 5.29412Z" fill="#444444"/>
<path d="M11.0001 5.29412C9.55363 5.29412 8.38105 4.10899 8.38105 2.64706C8.38105 1.18513 9.55363 0 11.0001 0C12.4466 0 13.6191 1.18513 13.6191 2.64706C13.6191 4.10899 12.4466 5.29412 11.0001 5.29412Z" fill="#444444"/>
<path d="M19.381 5.29412C17.9345 5.29412 16.7619 4.10899 16.7619 2.64706C16.7619 1.18513 17.9345 0 19.381 0C20.8274 0 22 1.18513 22 2.64706C22 4.10899 20.8274 5.29412 19.381 5.29412Z" fill="#444444"/>
<path d="M0.000185966 9.88206C0.000185966 8.51775 1.17277 7.41176 2.61923 7.41176C4.06569 7.41176 5.23828 8.51775 5.23828 9.88206V15.5297C5.23828 16.894 4.06569 18 2.61923 18C1.17277 18 0.000185966 16.894 0.000185966 15.5297V9.88206Z" fill="#444444"/>
<path d="M8.38105 9.88206C8.38105 8.51775 9.55363 7.41176 11.0001 7.41176C12.4466 7.41176 13.6191 8.51775 13.6191 9.88206V15.5297C13.6191 16.894 12.4466 18 11.0001 18C9.55363 18 8.38105 16.894 8.38105 15.5297V9.88206Z" fill="#444444"/>
<path d="M16.7619 9.88206C16.7619 8.51775 17.9345 7.41176 19.381 7.41176C20.8274 7.41176 22 8.51775 22 9.88206V15.5297C22 16.894 20.8274 18 19.381 18C17.9345 18 16.7619 16.894 16.7619 15.5297V9.88206Z" fill="#444444"/>
</svg>
