<svg id="Camada_1" data-name="Camada 1" xmlns="http://www.w3.org/2000/svg" viewBox="0 0 314 174"><defs><style>.cls-1{fill:#ae41d9;}.cls-2{fill:#ffbf00;}</style></defs><circle class="cls-1" cx="4.15" cy="14.83" r="4.15"/><circle class="cls-2" cx="16.02" cy="35" r="4.15"/><rect class="cls-1" y="21.36" width="8.3" height="17.8" rx="4.15"/><circle class="cls-1" cx="16.02" cy="24.32" r="4.15"/><circle class="cls-2" cx="4.15" cy="4.15" r="4.15"/><rect class="cls-1" x="11.86" width="8.3" height="17.8" rx="4.15"/><circle class="cls-1" cx="27.63" cy="14.83" r="4.15"/><circle class="cls-2" cx="39.49" cy="35" r="4.15"/><rect class="cls-1" x="23.48" y="21.36" width="8.3" height="17.8" rx="4.15"/><circle class="cls-1" cx="39.49" cy="24.32" r="4.15"/><circle class="cls-2" cx="27.63" cy="4.15" r="4.15"/><rect class="cls-1" x="35.34" width="8.3" height="17.8" rx="4.15"/><circle class="cls-1" cx="51.11" cy="14.83" r="4.15"/><circle class="cls-2" cx="62.97" cy="35" r="4.15"/><rect class="cls-1" x="46.96" y="21.36" width="8.3" height="17.8" rx="4.15"/><circle class="cls-1" cx="62.97" cy="24.32" r="4.15"/><circle class="cls-2" cx="51.11" cy="4.15" r="4.15"/><rect class="cls-1" x="58.82" width="8.3" height="17.8" rx="4.15"/><circle class="cls-1" cx="74.59" cy="14.83" r="4.15"/><circle class="cls-2" cx="86.45" cy="35" r="4.15"/><rect class="cls-1" x="70.43" y="21.36" width="8.3" height="17.8" rx="4.15"/><circle class="cls-1" cx="86.45" cy="24.32" r="4.15"/><circle class="cls-2" cx="74.59" cy="4.15" r="4.15"/><rect class="cls-1" x="82.3" width="8.3" height="17.8" rx="4.15"/><circle class="cls-1" cx="98.07" cy="14.83" r="4.15"/><circle class="cls-2" cx="109.93" cy="35" r="4.15"/><rect class="cls-1" x="93.91" y="21.36" width="8.3" height="17.8" rx="4.15"/><circle class="cls-1" cx="109.93" cy="24.32" r="4.15"/><circle class="cls-2" cx="98.07" cy="4.15" r="4.15"/><rect class="cls-1" x="105.78" width="8.3" height="17.8" rx="4.15"/><circle class="cls-1" cx="121.54" cy="14.83" r="4.15"/><circle class="cls-2" cx="133.41" cy="35" r="4.15"/><rect class="cls-1" x="117.39" y="21.36" width="8.3" height="17.8" rx="4.15"/><circle class="cls-1" cx="133.41" cy="24.32" r="4.15"/><circle class="cls-2" cx="121.54" cy="4.15" r="4.15"/><rect class="cls-1" x="129.26" width="8.3" height="17.8" rx="4.15"/><circle class="cls-1" cx="145.02" cy="14.83" r="4.15"/><circle class="cls-2" cx="156.89" cy="35" r="4.15"/><rect class="cls-1" x="140.87" y="21.36" width="8.3" height="17.8" rx="4.15"/><circle class="cls-1" cx="156.89" cy="24.32" r="4.15"/><circle class="cls-2" cx="145.02" cy="4.15" r="4.15"/><rect class="cls-1" x="152.73" width="8.3" height="17.8" rx="4.15"/><circle class="cls-1" cx="168.5" cy="14.83" r="4.15"/><circle class="cls-2" cx="180.36" cy="35" r="4.15"/><rect class="cls-1" x="164.35" y="21.36" width="8.3" height="17.8" rx="4.15"/><circle class="cls-1" cx="180.36" cy="24.32" r="4.15"/><circle class="cls-2" cx="168.5" cy="4.15" r="4.15"/><rect class="cls-1" x="176.21" width="8.3" height="17.8" rx="4.15"/><circle class="cls-1" cx="191.98" cy="14.83" r="4.15"/><circle class="cls-2" cx="203.84" cy="35" r="4.15"/><rect class="cls-1" x="187.83" y="21.36" width="8.3" height="17.8" rx="4.15"/><circle class="cls-1" cx="203.84" cy="24.32" r="4.15"/><circle class="cls-2" cx="191.98" cy="4.15" r="4.15"/><rect class="cls-1" x="199.69" width="8.3" height="17.8" rx="4.15"/><circle class="cls-1" cx="215.46" cy="14.83" r="4.15"/><circle class="cls-2" cx="227.32" cy="35" r="4.15"/><rect class="cls-1" x="211.3" y="21.36" width="8.3" height="17.8" rx="4.15"/><circle class="cls-1" cx="227.32" cy="24.32" r="4.15"/><circle class="cls-2" cx="215.46" cy="4.15" r="4.15"/><rect class="cls-1" x="223.17" width="8.3" height="17.8" rx="4.15"/><circle class="cls-1" cx="238.94" cy="14.83" r="4.15"/><circle class="cls-2" cx="250.8" cy="35" r="4.15"/><rect class="cls-1" x="234.78" y="21.36" width="8.3" height="17.8" rx="4.15"/><circle class="cls-1" cx="250.8" cy="24.32" r="4.15"/><circle class="cls-2" cx="238.94" cy="4.15" r="4.15"/><rect class="cls-1" x="246.65" width="8.3" height="17.8" rx="4.15"/><circle class="cls-1" cx="262.41" cy="14.83" r="4.15"/><circle class="cls-2" cx="274.28" cy="35" r="4.15"/><rect class="cls-1" x="258.26" y="21.36" width="8.3" height="17.8" rx="4.15"/><circle class="cls-1" cx="274.28" cy="24.32" r="4.15"/><circle class="cls-2" cx="262.41" cy="4.15" r="4.15"/><rect class="cls-1" x="270.12" width="8.3" height="17.8" rx="4.15"/><circle class="cls-1" cx="285.89" cy="14.83" r="4.15"/><circle class="cls-2" cx="297.76" cy="35" r="4.15"/><rect class="cls-1" x="281.74" y="21.36" width="8.3" height="17.8" rx="4.15"/><circle class="cls-1" cx="297.76" cy="24.32" r="4.15"/><circle class="cls-2" cx="285.89" cy="4.15" r="4.15"/><rect class="cls-1" x="293.6" width="8.3" height="17.8" rx="4.15"/><circle class="cls-1" cx="309.37" cy="14.83" r="4.15"/><rect class="cls-1" x="305.22" y="21.36" width="8.3" height="17.8" rx="4.15"/><circle class="cls-2" cx="309.37" cy="4.15" r="4.15"/><circle class="cls-1" cx="4.15" cy="55.92" r="4.15"/><circle class="cls-2" cx="16.02" cy="76.09" r="4.15"/><rect class="cls-1" y="62.44" width="8.3" height="17.8" rx="4.15"/><circle class="cls-1" cx="16.02" cy="65.41" r="4.15"/><circle class="cls-2" cx="4.15" cy="45.24" r="4.15"/><rect class="cls-1" x="11.86" y="41.09" width="8.3" height="17.8" rx="4.15"/><circle class="cls-1" cx="27.63" cy="55.92" r="4.15"/><circle class="cls-2" cx="39.49" cy="76.09" r="4.15"/><rect class="cls-1" x="23.48" y="62.44" width="8.3" height="17.8" rx="4.15"/><circle class="cls-1" cx="39.49" cy="65.41" r="4.15"/><circle class="cls-2" cx="27.63" cy="45.24" r="4.15"/><rect class="cls-1" x="35.34" y="41.09" width="8.3" height="17.8" rx="4.15"/><circle class="cls-1" cx="51.11" cy="55.92" r="4.15"/><circle class="cls-2" cx="62.97" cy="76.09" r="4.15"/><rect class="cls-1" x="46.96" y="62.44" width="8.3" height="17.8" rx="4.15"/><circle class="cls-1" cx="62.97" cy="65.41" r="4.15"/><circle class="cls-2" cx="51.11" cy="45.24" r="4.15"/><rect class="cls-1" x="58.82" y="41.09" width="8.3" height="17.8" rx="4.15"/><circle class="cls-1" cx="74.59" cy="55.92" r="4.15"/><circle class="cls-2" cx="86.45" cy="76.09" r="4.15"/><rect class="cls-1" x="70.43" y="62.44" width="8.3" height="17.8" rx="4.15"/><circle class="cls-1" cx="86.45" cy="65.41" r="4.15"/><circle class="cls-2" cx="74.59" cy="45.24" r="4.15"/><rect class="cls-1" x="82.3" y="41.09" width="8.3" height="17.8" rx="4.15"/><circle class="cls-1" cx="98.07" cy="55.92" r="4.15"/><circle class="cls-2" cx="109.93" cy="76.09" r="4.15"/><rect class="cls-1" x="93.91" y="62.44" width="8.3" height="17.8" rx="4.15"/><circle class="cls-1" cx="109.93" cy="65.41" r="4.15"/><circle class="cls-2" cx="98.07" cy="45.24" r="4.15"/><rect class="cls-1" x="105.78" y="41.09" width="8.3" height="17.8" rx="4.15"/><circle class="cls-1" cx="121.54" cy="55.92" r="4.15"/><circle class="cls-2" cx="133.41" cy="76.09" r="4.15"/><rect class="cls-1" x="117.39" y="62.44" width="8.3" height="17.8" rx="4.15"/><circle class="cls-1" cx="133.41" cy="65.41" r="4.15"/><circle class="cls-2" cx="121.54" cy="45.24" r="4.15"/><rect class="cls-1" x="129.26" y="41.09" width="8.3" height="17.8" rx="4.15"/><circle class="cls-1" cx="145.02" cy="55.92" r="4.15"/><circle class="cls-2" cx="156.89" cy="76.09" r="4.15"/><rect class="cls-1" x="140.87" y="62.44" width="8.3" height="17.8" rx="4.15"/><circle class="cls-1" cx="156.89" cy="65.41" r="4.15"/><circle class="cls-2" cx="145.02" cy="45.24" r="4.15"/><rect class="cls-1" x="152.73" y="41.09" width="8.3" height="17.8" rx="4.15"/><circle class="cls-1" cx="168.5" cy="55.92" r="4.15"/><circle class="cls-2" cx="180.36" cy="76.09" r="4.15"/><rect class="cls-1" x="164.35" y="62.44" width="8.3" height="17.8" rx="4.15"/><circle class="cls-1" cx="180.36" cy="65.41" r="4.15"/><circle class="cls-2" cx="168.5" cy="45.24" r="4.15"/><rect class="cls-1" x="176.21" y="41.09" width="8.3" height="17.8" rx="4.15"/><circle class="cls-1" cx="191.98" cy="55.92" r="4.15"/><circle class="cls-2" cx="203.84" cy="76.09" r="4.15"/><rect class="cls-1" x="187.83" y="62.44" width="8.3" height="17.8" rx="4.15"/><circle class="cls-1" cx="203.84" cy="65.41" r="4.15"/><circle class="cls-2" cx="191.98" cy="45.24" r="4.15"/><rect class="cls-1" x="199.69" y="41.09" width="8.3" height="17.8" rx="4.15"/><circle class="cls-1" cx="215.46" cy="55.92" r="4.15"/><circle class="cls-2" cx="227.32" cy="76.09" r="4.15"/><rect class="cls-1" x="211.3" y="62.44" width="8.3" height="17.8" rx="4.15"/><circle class="cls-1" cx="227.32" cy="65.41" r="4.15"/><circle class="cls-2" cx="215.46" cy="45.24" r="4.15"/><rect class="cls-1" x="223.17" y="41.09" width="8.3" height="17.8" rx="4.15"/><circle class="cls-1" cx="238.94" cy="55.92" r="4.15"/><circle class="cls-2" cx="250.8" cy="76.09" r="4.15"/><rect class="cls-1" x="234.78" y="62.44" width="8.3" height="17.8" rx="4.15"/><circle class="cls-1" cx="250.8" cy="65.41" r="4.15"/><circle class="cls-2" cx="238.94" cy="45.24" r="4.15"/><rect class="cls-1" x="246.65" y="41.09" width="8.3" height="17.8" rx="4.15"/><circle class="cls-1" cx="262.41" cy="55.92" r="4.15"/><circle class="cls-2" cx="274.28" cy="76.09" r="4.15"/><rect class="cls-1" x="258.26" y="62.44" width="8.3" height="17.8" rx="4.15"/><circle class="cls-1" cx="274.28" cy="65.41" r="4.15"/><circle class="cls-2" cx="262.41" cy="45.24" r="4.15"/><rect class="cls-1" x="270.12" y="41.09" width="8.3" height="17.8" rx="4.15"/><circle class="cls-1" cx="285.89" cy="55.92" r="4.15"/><circle class="cls-2" cx="297.76" cy="76.09" r="4.15"/><rect class="cls-1" x="281.74" y="62.44" width="8.3" height="17.8" rx="4.15"/><circle class="cls-1" cx="297.76" cy="65.41" r="4.15"/><circle class="cls-2" cx="285.89" cy="45.24" r="4.15"/><rect class="cls-1" x="293.6" y="41.09" width="8.3" height="17.8" rx="4.15"/><circle class="cls-1" cx="309.37" cy="55.92" r="4.15"/><rect class="cls-1" x="305.22" y="62.44" width="8.3" height="17.8" rx="4.15"/><circle class="cls-2" cx="309.37" cy="45.24" r="4.15"/><circle class="cls-1" cx="4.15" cy="97" r="4.15"/><circle class="cls-2" cx="16.02" cy="117.17" r="4.15"/><rect class="cls-1" y="103.53" width="8.3" height="17.8" rx="4.15"/><circle class="cls-1" cx="16.02" cy="106.5" r="4.15"/><circle class="cls-2" cx="4.15" cy="86.33" r="4.15"/><rect class="cls-1" x="11.86" y="82.17" width="8.3" height="17.8" rx="4.15"/><circle class="cls-1" cx="27.63" cy="97" r="4.15"/><circle class="cls-2" cx="39.49" cy="117.17" r="4.15"/><rect class="cls-1" x="23.48" y="103.53" width="8.3" height="17.8" rx="4.15"/><circle class="cls-1" cx="39.49" cy="106.5" r="4.15"/><circle class="cls-2" cx="27.63" cy="86.33" r="4.15"/><rect class="cls-1" x="35.34" y="82.17" width="8.3" height="17.8" rx="4.15"/><circle class="cls-1" cx="51.11" cy="97" r="4.15"/><circle class="cls-2" cx="62.97" cy="117.17" r="4.15"/><rect class="cls-1" x="46.96" y="103.53" width="8.3" height="17.8" rx="4.15"/><circle class="cls-1" cx="62.97" cy="106.5" r="4.15"/><circle class="cls-2" cx="51.11" cy="86.33" r="4.15"/><rect class="cls-1" x="58.82" y="82.17" width="8.3" height="17.8" rx="4.15"/><circle class="cls-1" cx="74.59" cy="97" r="4.15"/><circle class="cls-2" cx="86.45" cy="117.17" r="4.15"/><rect class="cls-1" x="70.43" y="103.53" width="8.3" height="17.8" rx="4.15"/><circle class="cls-1" cx="86.45" cy="106.5" r="4.15"/><circle class="cls-2" cx="74.59" cy="86.33" r="4.15"/><rect class="cls-1" x="82.3" y="82.17" width="8.3" height="17.8" rx="4.15"/><circle class="cls-1" cx="98.07" cy="97" r="4.15"/><circle class="cls-2" cx="109.93" cy="117.17" r="4.15"/><rect class="cls-1" x="93.91" y="103.53" width="8.3" height="17.8" rx="4.15"/><circle class="cls-1" cx="109.93" cy="106.5" r="4.15"/><circle class="cls-2" cx="98.07" cy="86.33" r="4.15"/><rect class="cls-1" x="105.78" y="82.17" width="8.3" height="17.8" rx="4.15"/><circle class="cls-1" cx="121.54" cy="97" r="4.15"/><circle class="cls-2" cx="133.41" cy="117.17" r="4.15"/><rect class="cls-1" x="117.39" y="103.53" width="8.3" height="17.8" rx="4.15"/><circle class="cls-1" cx="133.41" cy="106.5" r="4.15"/><circle class="cls-2" cx="121.54" cy="86.33" r="4.15"/><rect class="cls-1" x="129.26" y="82.17" width="8.3" height="17.8" rx="4.15"/><circle class="cls-1" cx="145.02" cy="97" r="4.15"/><circle class="cls-2" cx="156.89" cy="117.17" r="4.15"/><rect class="cls-1" x="140.87" y="103.53" width="8.3" height="17.8" rx="4.15"/><circle class="cls-1" cx="156.89" cy="106.5" r="4.15"/><circle class="cls-2" cx="145.02" cy="86.33" r="4.15"/><rect class="cls-1" x="152.73" y="82.17" width="8.3" height="17.8" rx="4.15"/><circle class="cls-1" cx="168.5" cy="97" r="4.15"/><circle class="cls-2" cx="180.36" cy="117.17" r="4.15"/><rect class="cls-1" x="164.35" y="103.53" width="8.3" height="17.8" rx="4.15"/><circle class="cls-1" cx="180.36" cy="106.5" r="4.15"/><circle class="cls-2" cx="168.5" cy="86.33" r="4.15"/><rect class="cls-1" x="176.21" y="82.17" width="8.3" height="17.8" rx="4.15"/><circle class="cls-1" cx="191.98" cy="97" r="4.15"/><circle class="cls-2" cx="203.84" cy="117.17" r="4.15"/><rect class="cls-1" x="187.83" y="103.53" width="8.3" height="17.8" rx="4.15"/><circle class="cls-1" cx="203.84" cy="106.5" r="4.15"/><circle class="cls-2" cx="191.98" cy="86.33" r="4.15"/><rect class="cls-1" x="199.69" y="82.17" width="8.3" height="17.8" rx="4.15"/><circle class="cls-1" cx="215.46" cy="97" r="4.15"/><circle class="cls-2" cx="227.32" cy="117.17" r="4.15"/><rect class="cls-1" x="211.3" y="103.53" width="8.3" height="17.8" rx="4.15"/><circle class="cls-1" cx="227.32" cy="106.5" r="4.15"/><circle class="cls-2" cx="215.46" cy="86.33" r="4.15"/><rect class="cls-1" x="223.17" y="82.17" width="8.3" height="17.8" rx="4.15"/><circle class="cls-1" cx="238.94" cy="97" r="4.15"/><circle class="cls-2" cx="250.8" cy="117.17" r="4.15"/><rect class="cls-1" x="234.78" y="103.53" width="8.3" height="17.8" rx="4.15"/><circle class="cls-1" cx="250.8" cy="106.5" r="4.15"/><circle class="cls-2" cx="238.94" cy="86.33" r="4.15"/><rect class="cls-1" x="246.65" y="82.17" width="8.3" height="17.8" rx="4.15"/><circle class="cls-1" cx="262.41" cy="97" r="4.15"/><circle class="cls-2" cx="274.28" cy="117.17" r="4.15"/><rect class="cls-1" x="258.26" y="103.53" width="8.3" height="17.8" rx="4.15"/><circle class="cls-1" cx="274.28" cy="106.5" r="4.15"/><circle class="cls-2" cx="262.41" cy="86.33" r="4.15"/><rect class="cls-1" x="270.12" y="82.17" width="8.3" height="17.8" rx="4.15"/><circle class="cls-1" cx="285.89" cy="97" r="4.15"/><circle class="cls-2" cx="297.76" cy="117.17" r="4.15"/><rect class="cls-1" x="281.74" y="103.53" width="8.3" height="17.8" rx="4.15"/><circle class="cls-1" cx="297.76" cy="106.5" r="4.15"/><circle class="cls-2" cx="285.89" cy="86.33" r="4.15"/><rect class="cls-1" x="293.6" y="82.17" width="8.3" height="17.8" rx="4.15"/><circle class="cls-1" cx="309.37" cy="97" r="4.15"/><rect class="cls-1" x="305.22" y="103.53" width="8.3" height="17.8" rx="4.15"/><circle class="cls-2" cx="309.37" cy="86.33" r="4.15"/><circle class="cls-1" cx="4.15" cy="138.09" r="4.15"/><circle class="cls-2" cx="16.02" cy="158.26" r="4.15"/><rect class="cls-1" y="144.62" width="8.3" height="17.8" rx="4.15"/><circle class="cls-1" cx="16.02" cy="147.58" r="4.15"/><circle class="cls-2" cx="4.15" cy="127.41" r="4.15"/><rect class="cls-1" x="11.86" y="123.26" width="8.3" height="17.8" rx="4.15"/><circle class="cls-1" cx="27.63" cy="138.09" r="4.15"/><circle class="cls-2" cx="39.49" cy="158.26" r="4.15"/><rect class="cls-1" x="23.48" y="144.62" width="8.3" height="17.8" rx="4.15"/><circle class="cls-1" cx="39.49" cy="147.58" r="4.15"/><circle class="cls-2" cx="27.63" cy="127.41" r="4.15"/><rect class="cls-1" x="35.34" y="123.26" width="8.3" height="17.8" rx="4.15"/><circle class="cls-1" cx="51.11" cy="138.09" r="4.15"/><circle class="cls-2" cx="62.97" cy="158.26" r="4.15"/><rect class="cls-1" x="46.96" y="144.62" width="8.3" height="17.8" rx="4.15"/><circle class="cls-1" cx="62.97" cy="147.58" r="4.15"/><circle class="cls-2" cx="51.11" cy="127.41" r="4.15"/><rect class="cls-1" x="58.82" y="123.26" width="8.3" height="17.8" rx="4.15"/><circle class="cls-1" cx="74.59" cy="138.09" r="4.15"/><circle class="cls-2" cx="86.45" cy="158.26" r="4.15"/><rect class="cls-1" x="70.43" y="144.62" width="8.3" height="17.8" rx="4.15"/><circle class="cls-1" cx="86.45" cy="147.58" r="4.15"/><circle class="cls-2" cx="74.59" cy="127.41" r="4.15"/><rect class="cls-1" x="82.3" y="123.26" width="8.3" height="17.8" rx="4.15"/><circle class="cls-1" cx="98.07" cy="138.09" r="4.15"/><circle class="cls-2" cx="109.93" cy="158.26" r="4.15"/><rect class="cls-1" x="93.91" y="144.62" width="8.3" height="17.8" rx="4.15"/><circle class="cls-1" cx="109.93" cy="147.58" r="4.15"/><circle class="cls-2" cx="98.07" cy="127.41" r="4.15"/><rect class="cls-1" x="105.78" y="123.26" width="8.3" height="17.8" rx="4.15"/><circle class="cls-1" cx="121.54" cy="138.09" r="4.15"/><circle class="cls-2" cx="133.41" cy="158.26" r="4.15"/><rect class="cls-1" x="117.39" y="144.62" width="8.3" height="17.8" rx="4.15"/><circle class="cls-1" cx="133.41" cy="147.58" r="4.15"/><circle class="cls-2" cx="121.54" cy="127.41" r="4.15"/><rect class="cls-1" x="129.26" y="123.26" width="8.3" height="17.8" rx="4.15"/><circle class="cls-1" cx="145.02" cy="138.09" r="4.15"/><circle class="cls-2" cx="156.89" cy="158.26" r="4.15"/><rect class="cls-1" x="140.87" y="144.62" width="8.3" height="17.8" rx="4.15"/><circle class="cls-1" cx="156.89" cy="147.58" r="4.15"/><circle class="cls-2" cx="145.02" cy="127.41" r="4.15"/><rect class="cls-1" x="152.73" y="123.26" width="8.3" height="17.8" rx="4.15"/><circle class="cls-1" cx="168.5" cy="138.09" r="4.15"/><circle class="cls-2" cx="180.36" cy="158.26" r="4.15"/><rect class="cls-1" x="164.35" y="144.62" width="8.3" height="17.8" rx="4.15"/><circle class="cls-1" cx="180.36" cy="147.58" r="4.15"/><circle class="cls-2" cx="168.5" cy="127.41" r="4.15"/><rect class="cls-1" x="176.21" y="123.26" width="8.3" height="17.8" rx="4.15"/><circle class="cls-1" cx="191.98" cy="138.09" r="4.15"/><circle class="cls-2" cx="203.84" cy="158.26" r="4.15"/><rect class="cls-1" x="187.83" y="144.62" width="8.3" height="17.8" rx="4.15"/><circle class="cls-1" cx="203.84" cy="147.58" r="4.15"/><circle class="cls-2" cx="191.98" cy="127.41" r="4.15"/><rect class="cls-1" x="199.69" y="123.26" width="8.3" height="17.8" rx="4.15"/><circle class="cls-1" cx="215.46" cy="138.09" r="4.15"/><circle class="cls-2" cx="227.32" cy="158.26" r="4.15"/><rect class="cls-1" x="211.3" y="144.62" width="8.3" height="17.8" rx="4.15"/><circle class="cls-1" cx="227.32" cy="147.58" r="4.15"/><circle class="cls-2" cx="215.46" cy="127.41" r="4.15"/><rect class="cls-1" x="223.17" y="123.26" width="8.3" height="17.8" rx="4.15"/><circle class="cls-1" cx="238.94" cy="138.09" r="4.15"/><circle class="cls-2" cx="250.8" cy="158.26" r="4.15"/><rect class="cls-1" x="234.78" y="144.62" width="8.3" height="17.8" rx="4.15"/><circle class="cls-1" cx="250.8" cy="147.58" r="4.15"/><circle class="cls-2" cx="238.94" cy="127.41" r="4.15"/><rect class="cls-1" x="246.65" y="123.26" width="8.3" height="17.8" rx="4.15"/><circle class="cls-1" cx="262.41" cy="138.09" r="4.15"/><circle class="cls-2" cx="274.28" cy="158.26" r="4.15"/><rect class="cls-1" x="258.26" y="144.62" width="8.3" height="17.8" rx="4.15"/><circle class="cls-1" cx="274.28" cy="147.58" r="4.15"/><circle class="cls-2" cx="262.41" cy="127.41" r="4.15"/><rect class="cls-1" x="270.12" y="123.26" width="8.3" height="17.8" rx="4.15"/><circle class="cls-1" cx="285.89" cy="138.09" r="4.15"/><circle class="cls-2" cx="297.76" cy="158.26" r="4.15"/><rect class="cls-1" x="281.74" y="144.62" width="8.3" height="17.8" rx="4.15"/><circle class="cls-1" cx="297.76" cy="147.58" r="4.15"/><circle class="cls-2" cx="285.89" cy="127.41" r="4.15"/><rect class="cls-1" x="293.6" y="123.26" width="8.3" height="17.8" rx="4.15"/><circle class="cls-1" cx="309.37" cy="138.09" r="4.15"/><rect class="cls-1" x="305.22" y="144.62" width="8.3" height="17.8" rx="4.15"/><circle class="cls-2" cx="309.37" cy="127.41" r="4.15"/><circle class="cls-2" cx="4.15" cy="168.5" r="4.15"/><rect class="cls-1" x="11.86" y="164.35" width="8.3" height="17.8" rx="4.15"/><circle class="cls-2" cx="27.63" cy="168.5" r="4.15"/><rect class="cls-1" x="35.34" y="164.35" width="8.3" height="17.8" rx="4.15"/><circle class="cls-2" cx="51.11" cy="168.5" r="4.15"/><rect class="cls-1" x="58.82" y="164.35" width="8.3" height="17.8" rx="4.15"/><circle class="cls-2" cx="74.59" cy="168.5" r="4.15"/><rect class="cls-1" x="82.3" y="164.35" width="8.3" height="17.8" rx="4.15"/><circle class="cls-2" cx="98.07" cy="168.5" r="4.15"/><rect class="cls-1" x="105.78" y="164.35" width="8.3" height="17.8" rx="4.15"/><circle class="cls-2" cx="121.54" cy="168.5" r="4.15"/><rect class="cls-1" x="129.26" y="164.35" width="8.3" height="17.8" rx="4.15"/><circle class="cls-2" cx="145.02" cy="168.5" r="4.15"/><rect class="cls-1" x="152.73" y="164.35" width="8.3" height="17.8" rx="4.15"/><circle class="cls-2" cx="168.5" cy="168.5" r="4.15"/><rect class="cls-1" x="176.21" y="164.35" width="8.3" height="17.8" rx="4.15"/><circle class="cls-2" cx="191.98" cy="168.5" r="4.15"/><rect class="cls-1" x="199.69" y="164.35" width="8.3" height="17.8" rx="4.15"/><circle class="cls-2" cx="215.46" cy="168.5" r="4.15"/><rect class="cls-1" x="223.17" y="164.35" width="8.3" height="17.8" rx="4.15"/><circle class="cls-2" cx="238.94" cy="168.5" r="4.15"/><rect class="cls-1" x="246.65" y="164.35" width="8.3" height="17.8" rx="4.15"/><circle class="cls-2" cx="262.41" cy="168.5" r="4.15"/><rect class="cls-1" x="270.12" y="164.35" width="8.3" height="17.8" rx="4.15"/><circle class="cls-2" cx="285.89" cy="168.5" r="4.15"/><rect class="cls-1" x="293.6" y="164.35" width="8.3" height="17.8" rx="4.15"/><circle class="cls-2" cx="309.37" cy="168.5" r="4.15"/></svg>