<svg id="Camada_1" data-name="Camada 1" xmlns="http://www.w3.org/2000/svg" viewBox="0 0 314 174"><defs><style>.cls-1{fill:#fff;}.cls-2{fill:#ae41d9;}.cls-3{fill:#ffbf00;}.cls-4{fill:#444;}</style></defs><circle class="cls-1" cx="157" cy="87" r="74.15"/><circle class="cls-2" cx="116.94" cy="75.41" r="4.77"/><circle class="cls-3" cx="130.58" cy="98.59" r="4.77"/><rect class="cls-2" x="112.16" y="82.91" width="9.55" height="20.46" rx="4.77"/><path class="cls-4" d="M139.76,81.55h4.86l6.11-.18a8.08,8.08,0,0,1,1.59.16,1.94,1.94,0,0,1,1.24.86,4.24,4.24,0,0,1,.49,2.35,4.1,4.1,0,0,1-.47,2.21,2.09,2.09,0,0,1-1.21.91,6.52,6.52,0,0,1-1.64.2l-5.8-.14h-5.35a2.11,2.11,0,0,1-1.79-.77,4.47,4.47,0,0,1-.51-2.46,3.74,3.74,0,0,1,.62-2.36A2.22,2.22,0,0,1,139.76,81.55Zm4.64,21.82a4.08,4.08,0,0,1-2.25-.49,2,2,0,0,1-.87-1.26,8.76,8.76,0,0,1-.15-1.66V79.25a9.14,9.14,0,0,1,.49-3,7.42,7.42,0,0,1,1.54-2.64,7.87,7.87,0,0,1,2.7-1.88,10.07,10.07,0,0,1,4-.7,8.46,8.46,0,0,1,1.61.15,1.88,1.88,0,0,1,1.24.84,4.32,4.32,0,0,1,.46,2.32,4.22,4.22,0,0,1-.48,2.33,2.07,2.07,0,0,1-1.26.84,8.56,8.56,0,0,1-1.62.15,5.05,5.05,0,0,0-1,.07,1.69,1.69,0,0,0-.6.2.8.8,0,0,0-.33.44,2.37,2.37,0,0,0-.11.75v20.93a6.94,6.94,0,0,1-.18,1.6,2,2,0,0,1-.88,1.21A4.45,4.45,0,0,1,144.4,103.37Z"/><path class="cls-4" d="M160,103.32a4.3,4.3,0,0,1-2.32-.46,1.88,1.88,0,0,1-.84-1.24,7.81,7.81,0,0,1-.16-1.62V84.56a7.73,7.73,0,0,1,.16-1.64,1.86,1.86,0,0,1,.86-1.21,4.41,4.41,0,0,1,2.34-.47,4,4,0,0,1,2.28.49,2,2,0,0,1,.84,1.24,7.86,7.86,0,0,1,.16,1.68v15.4a7.65,7.65,0,0,1-.16,1.61,1.79,1.79,0,0,1-.84,1.22A4.53,4.53,0,0,1,160,103.32Zm4-28.74a3.95,3.95,0,1,1-4-4A4,4,0,0,1,163.93,74.58Z"/><path class="cls-4" d="M175.64,103.32a21.88,21.88,0,0,1-3.21-.2,7.14,7.14,0,0,1-2.39-.73,4.35,4.35,0,0,1-1.61-1.46,6.6,6.6,0,0,1-.91-2.41,19.76,19.76,0,0,1-.28-3.65V74.43a8.4,8.4,0,0,1,.15-1.64,2,2,0,0,1,.86-1.24,4.21,4.21,0,0,1,2.3-.48,4.11,4.11,0,0,1,2.28.48,2,2,0,0,1,.86,1.24,7,7,0,0,1,.18,1.64V94.56a7.63,7.63,0,0,0,.07,1.17,1.53,1.53,0,0,0,.26.73,1,1,0,0,0,.56.36,3.83,3.83,0,0,0,.93.09,4.55,4.55,0,0,1,1.08.13,1.54,1.54,0,0,1,.95.8,4.47,4.47,0,0,1,.4,2.21,4.88,4.88,0,0,1-.4,2.3,1.55,1.55,0,0,1-.95.84A4.78,4.78,0,0,1,175.64,103.32Z"/><path class="cls-4" d="M198.52,103.28a4,4,0,0,1-2.41-.58,1.7,1.7,0,0,1-.78-1.41l.45-.76a5,5,0,0,1-1,1.09,7.44,7.44,0,0,1-1.95,1.15,7.59,7.59,0,0,1-3,.51,8.86,8.86,0,0,1-3.88-.89,10.52,10.52,0,0,1-3.25-2.45,12.2,12.2,0,0,1-2.23-3.57,10.81,10.81,0,0,1-.82-4.2,10.65,10.65,0,0,1,.82-4.14,11.36,11.36,0,0,1,2.25-3.49A11.17,11.17,0,0,1,186,82.13a8.67,8.67,0,0,1,3.85-.89,7.38,7.38,0,0,1,2.78.47,7.8,7.8,0,0,1,1.93,1.08,5.66,5.66,0,0,1,1.17,1.2l-.35-.62a1.76,1.76,0,0,1,.73-1.62,4.25,4.25,0,0,1,2.45-.55,4.09,4.09,0,0,1,2.28.48,2,2,0,0,1,.84,1.29,8.26,8.26,0,0,1,.16,1.68V99.91a8,8,0,0,1-.16,1.64,1.89,1.89,0,0,1-.84,1.26A4.3,4.3,0,0,1,198.52,103.28Zm-7.7-6.6a3.83,3.83,0,0,0,2.1-.59,4.28,4.28,0,0,0,1.51-1.62,4.71,4.71,0,0,0,.55-2.25,4.45,4.45,0,0,0-2.13-3.88,4,4,0,0,0-2.12-.59,4.17,4.17,0,0,0-2.28.62A4.77,4.77,0,0,0,186.86,90a4.47,4.47,0,0,0-.6,2.31,4.13,4.13,0,0,0,.6,2.18,4.42,4.42,0,0,0,1.64,1.6A4.53,4.53,0,0,0,190.82,96.68Z"/></svg>