<svg id="Camada_1" data-name="Camada 1" xmlns="http://www.w3.org/2000/svg" viewBox="0 0 314 174"><defs><style>.cls-1{fill:#ffbf00;}.cls-2{fill:#ae41d9;}</style></defs><circle class="cls-1" cx="0.75" cy="10.82" r="3.32"/><rect class="cls-2" x="-2.57" y="-8.64" width="6.64" height="14.24" rx="3.32"/><rect class="cls-2" x="6.36" y="-0.09" width="6.64" height="14.24" rx="3.32"/><circle class="cls-1" cx="18.75" cy="10.82" r="3.32"/><rect class="cls-2" x="15.43" y="-8.64" width="6.64" height="14.24" rx="3.32"/><rect class="cls-2" x="24.36" y="-0.09" width="6.64" height="14.24" rx="3.32"/><circle class="cls-1" cx="36.75" cy="10.82" r="3.32"/><rect class="cls-2" x="33.43" y="-8.64" width="6.64" height="14.24" rx="3.32"/><rect class="cls-2" x="42.36" y="-0.09" width="6.64" height="14.24" rx="3.32"/><circle class="cls-1" cx="54.75" cy="10.82" r="3.32"/><rect class="cls-2" x="51.43" y="-8.64" width="6.64" height="14.24" rx="3.32"/><rect class="cls-2" x="60.36" y="-0.09" width="6.64" height="14.24" rx="3.32"/><circle class="cls-1" cx="72.75" cy="10.82" r="3.32"/><rect class="cls-2" x="69.43" y="-8.64" width="6.64" height="14.24" rx="3.32"/><rect class="cls-2" x="78.36" y="-0.09" width="6.64" height="14.24" rx="3.32"/><circle class="cls-1" cx="90.75" cy="10.82" r="3.32"/><rect class="cls-2" x="87.43" y="-8.64" width="6.64" height="14.24" rx="3.32"/><rect class="cls-2" x="96.36" y="-0.09" width="6.64" height="14.24" rx="3.32"/><circle class="cls-1" cx="108.75" cy="10.82" r="3.32"/><rect class="cls-2" x="105.43" y="-8.64" width="6.64" height="14.24" rx="3.32"/><rect class="cls-2" x="114.36" y="-0.09" width="6.64" height="14.24" rx="3.32"/><circle class="cls-1" cx="126.75" cy="10.82" r="3.32"/><rect class="cls-2" x="123.43" y="-8.64" width="6.64" height="14.24" rx="3.32"/><circle class="cls-1" cx="0.75" cy="35.82" r="3.32"/><rect class="cls-2" x="-2.57" y="16.36" width="6.64" height="14.24" rx="3.32"/><circle class="cls-1" cx="9.68" cy="19.69" r="3.32"/><rect class="cls-2" x="6.36" y="24.91" width="6.64" height="14.24" rx="3.32"/><circle class="cls-1" cx="18.75" cy="35.82" r="3.32"/><rect class="cls-2" x="15.43" y="16.36" width="6.64" height="14.24" rx="3.32"/><circle class="cls-1" cx="27.68" cy="19.69" r="3.32"/><rect class="cls-2" x="24.36" y="24.91" width="6.64" height="14.24" rx="3.32"/><circle class="cls-1" cx="36.75" cy="35.82" r="3.32"/><rect class="cls-2" x="33.43" y="16.36" width="6.64" height="14.24" rx="3.32"/><circle class="cls-1" cx="45.68" cy="19.69" r="3.32"/><rect class="cls-2" x="42.36" y="24.91" width="6.64" height="14.24" rx="3.32"/><circle class="cls-1" cx="54.75" cy="35.82" r="3.32"/><rect class="cls-2" x="51.43" y="16.36" width="6.64" height="14.24" rx="3.32"/><circle class="cls-1" cx="63.68" cy="19.69" r="3.32"/><rect class="cls-2" x="60.36" y="24.91" width="6.64" height="14.24" rx="3.32"/><circle class="cls-1" cx="72.75" cy="35.82" r="3.32"/><rect class="cls-2" x="69.43" y="16.36" width="6.64" height="14.24" rx="3.32"/><circle class="cls-1" cx="81.68" cy="19.69" r="3.32"/><rect class="cls-2" x="78.36" y="24.91" width="6.64" height="14.24" rx="3.32"/><circle class="cls-1" cx="90.75" cy="35.82" r="3.32"/><rect class="cls-2" x="87.43" y="16.36" width="6.64" height="14.24" rx="3.32"/><circle class="cls-1" cx="99.68" cy="19.69" r="3.32"/><rect class="cls-2" x="96.36" y="24.91" width="6.64" height="14.24" rx="3.32"/><circle class="cls-1" cx="108.75" cy="35.82" r="3.32"/><rect class="cls-2" x="105.43" y="16.36" width="6.64" height="14.24" rx="3.32"/><circle class="cls-1" cx="117.68" cy="19.69" r="3.32"/><rect class="cls-2" x="114.36" y="24.91" width="6.64" height="14.24" rx="3.32"/><circle class="cls-1" cx="126.75" cy="35.82" r="3.32"/><rect class="cls-2" x="123.43" y="16.36" width="6.64" height="14.24" rx="3.32"/><circle class="cls-1" cx="0.75" cy="60.82" r="3.32"/><rect class="cls-2" x="-2.57" y="41.36" width="6.64" height="14.24" rx="3.32"/><circle class="cls-1" cx="9.68" cy="44.69" r="3.32"/><rect class="cls-2" x="6.36" y="49.91" width="6.64" height="14.24" rx="3.32"/><circle class="cls-1" cx="18.75" cy="60.82" r="3.32"/><rect class="cls-2" x="15.43" y="41.36" width="6.64" height="14.24" rx="3.32"/><circle class="cls-1" cx="27.68" cy="44.69" r="3.32"/><rect class="cls-2" x="24.36" y="49.91" width="6.64" height="14.24" rx="3.32"/><circle class="cls-1" cx="36.75" cy="60.82" r="3.32"/><rect class="cls-2" x="33.43" y="41.36" width="6.64" height="14.24" rx="3.32"/><circle class="cls-1" cx="45.68" cy="44.69" r="3.32"/><rect class="cls-2" x="42.36" y="49.91" width="6.64" height="14.24" rx="3.32"/><circle class="cls-1" cx="54.75" cy="60.82" r="3.32"/><rect class="cls-2" x="51.43" y="41.36" width="6.64" height="14.24" rx="3.32"/><circle class="cls-1" cx="63.68" cy="44.69" r="3.32"/><rect class="cls-2" x="60.36" y="49.91" width="6.64" height="14.24" rx="3.32"/><circle class="cls-1" cx="72.75" cy="60.82" r="3.32"/><rect class="cls-2" x="69.43" y="41.36" width="6.64" height="14.24" rx="3.32"/><circle class="cls-1" cx="81.68" cy="44.69" r="3.32"/><rect class="cls-2" x="78.36" y="49.91" width="6.64" height="14.24" rx="3.32"/><circle class="cls-1" cx="90.75" cy="60.82" r="3.32"/><rect class="cls-2" x="87.43" y="41.36" width="6.64" height="14.24" rx="3.32"/><circle class="cls-1" cx="99.68" cy="44.69" r="3.32"/><rect class="cls-2" x="96.36" y="49.91" width="6.64" height="14.24" rx="3.32"/><circle class="cls-1" cx="108.75" cy="60.82" r="3.32"/><rect class="cls-2" x="105.43" y="41.36" width="6.64" height="14.24" rx="3.32"/><circle class="cls-1" cx="117.68" cy="44.69" r="3.32"/><rect class="cls-2" x="114.36" y="49.91" width="6.64" height="14.24" rx="3.32"/><circle class="cls-1" cx="126.75" cy="60.82" r="3.32"/><rect class="cls-2" x="123.43" y="41.36" width="6.64" height="14.24" rx="3.32"/><circle class="cls-1" cx="0.75" cy="85.82" r="3.32"/><rect class="cls-2" x="-2.57" y="66.36" width="6.64" height="14.24" rx="3.32"/><circle class="cls-1" cx="9.68" cy="69.69" r="3.32"/><rect class="cls-2" x="6.36" y="74.91" width="6.64" height="14.24" rx="3.32"/><circle class="cls-1" cx="18.75" cy="85.82" r="3.32"/><rect class="cls-2" x="15.43" y="66.36" width="6.64" height="14.24" rx="3.32"/><circle class="cls-1" cx="27.68" cy="69.69" r="3.32"/><rect class="cls-2" x="24.36" y="74.91" width="6.64" height="14.24" rx="3.32"/><circle class="cls-1" cx="36.75" cy="85.82" r="3.32"/><rect class="cls-2" x="33.43" y="66.36" width="6.64" height="14.24" rx="3.32"/><circle class="cls-1" cx="45.68" cy="69.69" r="3.32"/><rect class="cls-2" x="42.36" y="74.91" width="6.64" height="14.24" rx="3.32"/><circle class="cls-1" cx="54.75" cy="85.82" r="3.32"/><rect class="cls-2" x="51.43" y="66.36" width="6.64" height="14.24" rx="3.32"/><circle class="cls-1" cx="63.68" cy="69.69" r="3.32"/><rect class="cls-2" x="60.36" y="74.91" width="6.64" height="14.24" rx="3.32"/><circle class="cls-1" cx="72.75" cy="85.82" r="3.32"/><rect class="cls-2" x="69.43" y="66.36" width="6.64" height="14.24" rx="3.32"/><circle class="cls-1" cx="81.68" cy="69.69" r="3.32"/><rect class="cls-2" x="78.36" y="74.91" width="6.64" height="14.24" rx="3.32"/><circle class="cls-1" cx="90.75" cy="85.82" r="3.32"/><rect class="cls-2" x="87.43" y="66.36" width="6.64" height="14.24" rx="3.32"/><circle class="cls-1" cx="99.68" cy="69.69" r="3.32"/><rect class="cls-2" x="96.36" y="74.91" width="6.64" height="14.24" rx="3.32"/><circle class="cls-1" cx="108.75" cy="85.82" r="3.32"/><rect class="cls-2" x="105.43" y="66.36" width="6.64" height="14.24" rx="3.32"/><circle class="cls-1" cx="117.68" cy="69.69" r="3.32"/><rect class="cls-2" x="114.36" y="74.91" width="6.64" height="14.24" rx="3.32"/><circle class="cls-1" cx="126.75" cy="85.82" r="3.32"/><rect class="cls-2" x="123.43" y="66.36" width="6.64" height="14.24" rx="3.32"/><circle class="cls-1" cx="0.75" cy="110.82" r="3.32"/><rect class="cls-2" x="-2.57" y="91.36" width="6.64" height="14.24" rx="3.32"/><circle class="cls-1" cx="9.68" cy="94.69" r="3.32"/><rect class="cls-2" x="6.36" y="99.91" width="6.64" height="14.24" rx="3.32"/><circle class="cls-1" cx="18.75" cy="110.82" r="3.32"/><rect class="cls-2" x="15.43" y="91.36" width="6.64" height="14.24" rx="3.32"/><circle class="cls-1" cx="27.68" cy="94.69" r="3.32"/><rect class="cls-2" x="24.36" y="99.91" width="6.64" height="14.24" rx="3.32"/><circle class="cls-1" cx="36.75" cy="110.82" r="3.32"/><rect class="cls-2" x="33.43" y="91.36" width="6.64" height="14.24" rx="3.32"/><circle class="cls-1" cx="45.68" cy="94.69" r="3.32"/><rect class="cls-2" x="42.36" y="99.91" width="6.64" height="14.24" rx="3.32"/><circle class="cls-1" cx="54.75" cy="110.82" r="3.32"/><rect class="cls-2" x="51.43" y="91.36" width="6.64" height="14.24" rx="3.32"/><circle class="cls-1" cx="63.68" cy="94.69" r="3.32"/><rect class="cls-2" x="60.36" y="99.91" width="6.64" height="14.24" rx="3.32"/><circle class="cls-1" cx="72.75" cy="110.82" r="3.32"/><rect class="cls-2" x="69.43" y="91.36" width="6.64" height="14.24" rx="3.32"/><circle class="cls-1" cx="81.68" cy="94.69" r="3.32"/><rect class="cls-2" x="78.36" y="99.91" width="6.64" height="14.24" rx="3.32"/><circle class="cls-1" cx="90.75" cy="110.82" r="3.32"/><rect class="cls-2" x="87.43" y="91.36" width="6.64" height="14.24" rx="3.32"/><circle class="cls-1" cx="99.68" cy="94.69" r="3.32"/><rect class="cls-2" x="96.36" y="99.91" width="6.64" height="14.24" rx="3.32"/><circle class="cls-1" cx="108.75" cy="110.82" r="3.32"/><rect class="cls-2" x="105.43" y="91.36" width="6.64" height="14.24" rx="3.32"/><circle class="cls-1" cx="117.68" cy="94.69" r="3.32"/><rect class="cls-2" x="114.36" y="99.91" width="6.64" height="14.24" rx="3.32"/><circle class="cls-1" cx="126.75" cy="110.82" r="3.32"/><rect class="cls-2" x="123.43" y="91.36" width="6.64" height="14.24" rx="3.32"/><circle class="cls-1" cx="0.75" cy="135.82" r="3.32"/><rect class="cls-2" x="-2.57" y="116.36" width="6.64" height="14.24" rx="3.32"/><circle class="cls-1" cx="9.68" cy="119.69" r="3.32"/><rect class="cls-2" x="6.36" y="124.91" width="6.64" height="14.24" rx="3.32"/><circle class="cls-1" cx="18.75" cy="135.82" r="3.32"/><rect class="cls-2" x="15.43" y="116.36" width="6.64" height="14.24" rx="3.32"/><circle class="cls-1" cx="27.68" cy="119.69" r="3.32"/><rect class="cls-2" x="24.36" y="124.91" width="6.64" height="14.24" rx="3.32"/><circle class="cls-1" cx="36.75" cy="135.82" r="3.32"/><rect class="cls-2" x="33.43" y="116.36" width="6.64" height="14.24" rx="3.32"/><circle class="cls-1" cx="45.68" cy="119.69" r="3.32"/><rect class="cls-2" x="42.36" y="124.91" width="6.64" height="14.24" rx="3.32"/><circle class="cls-1" cx="54.75" cy="135.82" r="3.32"/><rect class="cls-2" x="51.43" y="116.36" width="6.64" height="14.24" rx="3.32"/><circle class="cls-1" cx="63.68" cy="119.69" r="3.32"/><rect class="cls-2" x="60.36" y="124.91" width="6.64" height="14.24" rx="3.32"/><circle class="cls-1" cx="72.75" cy="135.82" r="3.32"/><rect class="cls-2" x="69.43" y="116.36" width="6.64" height="14.24" rx="3.32"/><circle class="cls-1" cx="81.68" cy="119.69" r="3.32"/><rect class="cls-2" x="78.36" y="124.91" width="6.64" height="14.24" rx="3.32"/><circle class="cls-1" cx="90.75" cy="135.82" r="3.32"/><rect class="cls-2" x="87.43" y="116.36" width="6.64" height="14.24" rx="3.32"/><circle class="cls-1" cx="99.68" cy="119.69" r="3.32"/><rect class="cls-2" x="96.36" y="124.91" width="6.64" height="14.24" rx="3.32"/><circle class="cls-1" cx="108.75" cy="135.82" r="3.32"/><rect class="cls-2" x="105.43" y="116.36" width="6.64" height="14.24" rx="3.32"/><circle class="cls-1" cx="117.68" cy="119.69" r="3.32"/><rect class="cls-2" x="114.36" y="124.91" width="6.64" height="14.24" rx="3.32"/><circle class="cls-1" cx="126.75" cy="135.82" r="3.32"/><rect class="cls-2" x="123.43" y="116.36" width="6.64" height="14.24" rx="3.32"/><circle class="cls-1" cx="0.75" cy="160.82" r="3.32"/><rect class="cls-2" x="-2.57" y="141.36" width="6.64" height="14.24" rx="3.32"/><circle class="cls-1" cx="9.68" cy="144.69" r="3.32"/><rect class="cls-2" x="6.36" y="149.91" width="6.64" height="14.24" rx="3.32"/><circle class="cls-1" cx="18.75" cy="160.82" r="3.32"/><rect class="cls-2" x="15.43" y="141.36" width="6.64" height="14.24" rx="3.32"/><circle class="cls-1" cx="27.68" cy="144.69" r="3.32"/><rect class="cls-2" x="24.36" y="149.91" width="6.64" height="14.24" rx="3.32"/><circle class="cls-1" cx="36.75" cy="160.82" r="3.32"/><rect class="cls-2" x="33.43" y="141.36" width="6.64" height="14.24" rx="3.32"/><circle class="cls-1" cx="45.68" cy="144.69" r="3.32"/><rect class="cls-2" x="42.36" y="149.91" width="6.64" height="14.24" rx="3.32"/><circle class="cls-1" cx="54.75" cy="160.82" r="3.32"/><rect class="cls-2" x="51.43" y="141.36" width="6.64" height="14.24" rx="3.32"/><circle class="cls-1" cx="63.68" cy="144.69" r="3.32"/><rect class="cls-2" x="60.36" y="149.91" width="6.64" height="14.24" rx="3.32"/><circle class="cls-1" cx="72.75" cy="160.82" r="3.32"/><rect class="cls-2" x="69.43" y="141.36" width="6.64" height="14.24" rx="3.32"/><circle class="cls-1" cx="81.68" cy="144.69" r="3.32"/><rect class="cls-2" x="78.36" y="149.91" width="6.64" height="14.24" rx="3.32"/><circle class="cls-1" cx="90.75" cy="160.82" r="3.32"/><rect class="cls-2" x="87.43" y="141.36" width="6.64" height="14.24" rx="3.32"/><circle class="cls-1" cx="99.68" cy="144.69" r="3.32"/><rect class="cls-2" x="96.36" y="149.91" width="6.64" height="14.24" rx="3.32"/><circle class="cls-1" cx="108.75" cy="160.82" r="3.32"/><rect class="cls-2" x="105.43" y="141.36" width="6.64" height="14.24" rx="3.32"/><circle class="cls-1" cx="117.68" cy="144.69" r="3.32"/><rect class="cls-2" x="114.36" y="149.91" width="6.64" height="14.24" rx="3.32"/><circle class="cls-1" cx="126.75" cy="160.82" r="3.32"/><rect class="cls-2" x="123.43" y="141.36" width="6.64" height="14.24" rx="3.32"/><rect class="cls-2" x="-2.57" y="166.36" width="6.64" height="14.24" rx="3.32"/><circle class="cls-1" cx="9.68" cy="169.69" r="3.32"/><rect class="cls-2" x="15.43" y="166.36" width="6.64" height="14.24" rx="3.32"/><circle class="cls-1" cx="27.68" cy="169.69" r="3.32"/><rect class="cls-2" x="33.43" y="166.36" width="6.64" height="14.24" rx="3.32"/><circle class="cls-1" cx="45.68" cy="169.69" r="3.32"/><rect class="cls-2" x="51.43" y="166.36" width="6.64" height="14.24" rx="3.32"/><circle class="cls-1" cx="63.68" cy="169.69" r="3.32"/><rect class="cls-2" x="69.43" y="166.36" width="6.64" height="14.24" rx="3.32"/><circle class="cls-1" cx="81.68" cy="169.69" r="3.32"/><rect class="cls-2" x="87.43" y="166.36" width="6.64" height="14.24" rx="3.32"/><circle class="cls-1" cx="99.68" cy="169.69" r="3.32"/><rect class="cls-2" x="105.43" y="166.36" width="6.64" height="14.24" rx="3.32"/><circle class="cls-1" cx="117.68" cy="169.69" r="3.32"/><rect class="cls-2" x="123.43" y="166.36" width="6.64" height="14.24" rx="3.32"/><rect class="cls-2" x="132.36" y="-0.09" width="6.64" height="14.24" rx="3.32"/><circle class="cls-1" cx="144.75" cy="10.82" r="3.32"/><rect class="cls-2" x="141.43" y="-8.64" width="6.64" height="14.24" rx="3.32"/><rect class="cls-2" x="150.36" y="-0.09" width="6.64" height="14.24" rx="3.32"/><circle class="cls-1" cx="162.75" cy="10.82" r="3.32"/><rect class="cls-2" x="159.43" y="-8.64" width="6.64" height="14.24" rx="3.32"/><rect class="cls-2" x="168.36" y="-0.09" width="6.64" height="14.24" rx="3.32"/><circle class="cls-1" cx="180.75" cy="10.82" r="3.32"/><rect class="cls-2" x="177.43" y="-8.64" width="6.64" height="14.24" rx="3.32"/><rect class="cls-2" x="186.36" y="-0.09" width="6.64" height="14.24" rx="3.32"/><circle class="cls-1" cx="198.75" cy="10.82" r="3.32"/><rect class="cls-2" x="195.43" y="-8.64" width="6.64" height="14.24" rx="3.32"/><rect class="cls-2" x="204.36" y="-0.09" width="6.64" height="14.24" rx="3.32"/><circle class="cls-1" cx="216.75" cy="10.82" r="3.32"/><rect class="cls-2" x="213.43" y="-8.64" width="6.64" height="14.24" rx="3.32"/><rect class="cls-2" x="222.36" y="-0.09" width="6.64" height="14.24" rx="3.32"/><circle class="cls-1" cx="234.75" cy="10.82" r="3.32"/><rect class="cls-2" x="231.43" y="-8.64" width="6.64" height="14.24" rx="3.32"/><rect class="cls-2" x="240.36" y="-0.09" width="6.64" height="14.24" rx="3.32"/><circle class="cls-1" cx="252.75" cy="10.82" r="3.32"/><rect class="cls-2" x="249.43" y="-8.64" width="6.64" height="14.24" rx="3.32"/><rect class="cls-2" x="258.36" y="-0.09" width="6.64" height="14.24" rx="3.32"/><circle class="cls-1" cx="270.75" cy="10.82" r="3.32"/><rect class="cls-2" x="267.43" y="-8.64" width="6.64" height="14.24" rx="3.32"/><rect class="cls-2" x="276.36" y="-0.09" width="6.64" height="14.24" rx="3.32"/><circle class="cls-1" cx="288.75" cy="10.82" r="3.32"/><rect class="cls-2" x="285.43" y="-8.64" width="6.64" height="14.24" rx="3.32"/><rect class="cls-2" x="294.36" y="-0.09" width="6.64" height="14.24" rx="3.32"/><circle class="cls-1" cx="306.75" cy="10.82" r="3.32"/><rect class="cls-2" x="303.43" y="-8.64" width="6.64" height="14.24" rx="3.32"/><rect class="cls-2" x="312.36" y="-0.09" width="6.64" height="14.24" rx="3.32"/><circle class="cls-1" cx="135.68" cy="19.69" r="3.32"/><rect class="cls-2" x="132.36" y="24.91" width="6.64" height="14.24" rx="3.32"/><circle class="cls-1" cx="144.75" cy="35.82" r="3.32"/><rect class="cls-2" x="141.43" y="16.36" width="6.64" height="14.24" rx="3.32"/><circle class="cls-1" cx="153.68" cy="19.69" r="3.32"/><rect class="cls-2" x="150.36" y="24.91" width="6.64" height="14.24" rx="3.32"/><circle class="cls-1" cx="162.75" cy="35.82" r="3.32"/><rect class="cls-2" x="159.43" y="16.36" width="6.64" height="14.24" rx="3.32"/><circle class="cls-1" cx="171.68" cy="19.69" r="3.32"/><rect class="cls-2" x="168.36" y="24.91" width="6.64" height="14.24" rx="3.32"/><circle class="cls-1" cx="180.75" cy="35.82" r="3.32"/><rect class="cls-2" x="177.43" y="16.36" width="6.64" height="14.24" rx="3.32"/><circle class="cls-1" cx="189.68" cy="19.69" r="3.32"/><rect class="cls-2" x="186.36" y="24.91" width="6.64" height="14.24" rx="3.32"/><circle class="cls-1" cx="198.75" cy="35.82" r="3.32"/><rect class="cls-2" x="195.43" y="16.36" width="6.64" height="14.24" rx="3.32"/><circle class="cls-1" cx="207.68" cy="19.69" r="3.32"/><rect class="cls-2" x="204.36" y="24.91" width="6.64" height="14.24" rx="3.32"/><circle class="cls-1" cx="216.75" cy="35.82" r="3.32"/><rect class="cls-2" x="213.43" y="16.36" width="6.64" height="14.24" rx="3.32"/><circle class="cls-1" cx="225.68" cy="19.69" r="3.32"/><rect class="cls-2" x="222.36" y="24.91" width="6.64" height="14.24" rx="3.32"/><circle class="cls-1" cx="234.75" cy="35.82" r="3.32"/><rect class="cls-2" x="231.43" y="16.36" width="6.64" height="14.24" rx="3.32"/><circle class="cls-1" cx="243.68" cy="19.69" r="3.32"/><rect class="cls-2" x="240.36" y="24.91" width="6.64" height="14.24" rx="3.32"/><circle class="cls-1" cx="252.75" cy="35.82" r="3.32"/><rect class="cls-2" x="249.43" y="16.36" width="6.64" height="14.24" rx="3.32"/><circle class="cls-1" cx="261.68" cy="19.69" r="3.32"/><rect class="cls-2" x="258.36" y="24.91" width="6.64" height="14.24" rx="3.32"/><circle class="cls-1" cx="270.75" cy="35.82" r="3.32"/><rect class="cls-2" x="267.43" y="16.36" width="6.64" height="14.24" rx="3.32"/><circle class="cls-1" cx="279.68" cy="19.69" r="3.32"/><rect class="cls-2" x="276.36" y="24.91" width="6.64" height="14.24" rx="3.32"/><circle class="cls-1" cx="288.75" cy="35.82" r="3.32"/><rect class="cls-2" x="285.43" y="16.36" width="6.64" height="14.24" rx="3.32"/><circle class="cls-1" cx="297.68" cy="19.69" r="3.32"/><rect class="cls-2" x="294.36" y="24.91" width="6.64" height="14.24" rx="3.32"/><circle class="cls-1" cx="306.75" cy="35.82" r="3.32"/><rect class="cls-2" x="303.43" y="16.36" width="6.64" height="14.24" rx="3.32"/><circle class="cls-1" cx="315.68" cy="19.69" r="3.32"/><rect class="cls-2" x="312.36" y="24.91" width="6.64" height="14.24" rx="3.32"/><circle class="cls-1" cx="135.68" cy="44.69" r="3.32"/><rect class="cls-2" x="132.36" y="49.91" width="6.64" height="14.24" rx="3.32"/><circle class="cls-1" cx="144.75" cy="60.82" r="3.32"/><rect class="cls-2" x="141.43" y="41.36" width="6.64" height="14.24" rx="3.32"/><circle class="cls-1" cx="153.68" cy="44.69" r="3.32"/><rect class="cls-2" x="150.36" y="49.91" width="6.64" height="14.24" rx="3.32"/><circle class="cls-1" cx="162.75" cy="60.82" r="3.32"/><rect class="cls-2" x="159.43" y="41.36" width="6.64" height="14.24" rx="3.32"/><circle class="cls-1" cx="171.68" cy="44.69" r="3.32"/><rect class="cls-2" x="168.36" y="49.91" width="6.64" height="14.24" rx="3.32"/><circle class="cls-1" cx="180.75" cy="60.82" r="3.32"/><rect class="cls-2" x="177.43" y="41.36" width="6.64" height="14.24" rx="3.32"/><circle class="cls-1" cx="189.68" cy="44.69" r="3.32"/><rect class="cls-2" x="186.36" y="49.91" width="6.64" height="14.24" rx="3.32"/><circle class="cls-1" cx="198.75" cy="60.82" r="3.32"/><rect class="cls-2" x="195.43" y="41.36" width="6.64" height="14.24" rx="3.32"/><circle class="cls-1" cx="207.68" cy="44.69" r="3.32"/><rect class="cls-2" x="204.36" y="49.91" width="6.64" height="14.24" rx="3.32"/><circle class="cls-1" cx="216.75" cy="60.82" r="3.32"/><rect class="cls-2" x="213.43" y="41.36" width="6.64" height="14.24" rx="3.32"/><circle class="cls-1" cx="225.68" cy="44.69" r="3.32"/><rect class="cls-2" x="222.36" y="49.91" width="6.64" height="14.24" rx="3.32"/><circle class="cls-1" cx="234.75" cy="60.82" r="3.32"/><rect class="cls-2" x="231.43" y="41.36" width="6.64" height="14.24" rx="3.32"/><circle class="cls-1" cx="243.68" cy="44.69" r="3.32"/><rect class="cls-2" x="240.36" y="49.91" width="6.64" height="14.24" rx="3.32"/><circle class="cls-1" cx="252.75" cy="60.82" r="3.32"/><rect class="cls-2" x="249.43" y="41.36" width="6.64" height="14.24" rx="3.32"/><circle class="cls-1" cx="261.68" cy="44.69" r="3.32"/><rect class="cls-2" x="258.36" y="49.91" width="6.64" height="14.24" rx="3.32"/><circle class="cls-1" cx="270.75" cy="60.82" r="3.32"/><rect class="cls-2" x="267.43" y="41.36" width="6.64" height="14.24" rx="3.32"/><circle class="cls-1" cx="279.68" cy="44.69" r="3.32"/><rect class="cls-2" x="276.36" y="49.91" width="6.64" height="14.24" rx="3.32"/><circle class="cls-1" cx="288.75" cy="60.82" r="3.32"/><rect class="cls-2" x="285.43" y="41.36" width="6.64" height="14.24" rx="3.32"/><circle class="cls-1" cx="297.68" cy="44.69" r="3.32"/><rect class="cls-2" x="294.36" y="49.91" width="6.64" height="14.24" rx="3.32"/><circle class="cls-1" cx="306.75" cy="60.82" r="3.32"/><rect class="cls-2" x="303.43" y="41.36" width="6.64" height="14.24" rx="3.32"/><circle class="cls-1" cx="315.68" cy="44.69" r="3.32"/><rect class="cls-2" x="312.36" y="49.91" width="6.64" height="14.24" rx="3.32"/><circle class="cls-1" cx="135.68" cy="69.69" r="3.32"/><rect class="cls-2" x="132.36" y="74.91" width="6.64" height="14.24" rx="3.32"/><circle class="cls-1" cx="144.75" cy="85.82" r="3.32"/><rect class="cls-2" x="141.43" y="66.36" width="6.64" height="14.24" rx="3.32"/><circle class="cls-1" cx="153.68" cy="69.69" r="3.32"/><rect class="cls-2" x="150.36" y="74.91" width="6.64" height="14.24" rx="3.32"/><circle class="cls-1" cx="162.75" cy="85.82" r="3.32"/><rect class="cls-2" x="159.43" y="66.36" width="6.64" height="14.24" rx="3.32"/><circle class="cls-1" cx="171.68" cy="69.69" r="3.32"/><rect class="cls-2" x="168.36" y="74.91" width="6.64" height="14.24" rx="3.32"/><circle class="cls-1" cx="180.75" cy="85.82" r="3.32"/><rect class="cls-2" x="177.43" y="66.36" width="6.64" height="14.24" rx="3.32"/><circle class="cls-1" cx="189.68" cy="69.69" r="3.32"/><rect class="cls-2" x="186.36" y="74.91" width="6.64" height="14.24" rx="3.32"/><circle class="cls-1" cx="198.75" cy="85.82" r="3.32"/><rect class="cls-2" x="195.43" y="66.36" width="6.64" height="14.24" rx="3.32"/><circle class="cls-1" cx="207.68" cy="69.69" r="3.32"/><rect class="cls-2" x="204.36" y="74.91" width="6.64" height="14.24" rx="3.32"/><circle class="cls-1" cx="216.75" cy="85.82" r="3.32"/><rect class="cls-2" x="213.43" y="66.36" width="6.64" height="14.24" rx="3.32"/><circle class="cls-1" cx="225.68" cy="69.69" r="3.32"/><rect class="cls-2" x="222.36" y="74.91" width="6.64" height="14.24" rx="3.32"/><circle class="cls-1" cx="234.75" cy="85.82" r="3.32"/><rect class="cls-2" x="231.43" y="66.36" width="6.64" height="14.24" rx="3.32"/><circle class="cls-1" cx="243.68" cy="69.69" r="3.32"/><rect class="cls-2" x="240.36" y="74.91" width="6.64" height="14.24" rx="3.32"/><circle class="cls-1" cx="252.75" cy="85.82" r="3.32"/><rect class="cls-2" x="249.43" y="66.36" width="6.64" height="14.24" rx="3.32"/><circle class="cls-1" cx="261.68" cy="69.69" r="3.32"/><rect class="cls-2" x="258.36" y="74.91" width="6.64" height="14.24" rx="3.32"/><circle class="cls-1" cx="270.75" cy="85.82" r="3.32"/><rect class="cls-2" x="267.43" y="66.36" width="6.64" height="14.24" rx="3.32"/><circle class="cls-1" cx="279.68" cy="69.69" r="3.32"/><rect class="cls-2" x="276.36" y="74.91" width="6.64" height="14.24" rx="3.32"/><circle class="cls-1" cx="288.75" cy="85.82" r="3.32"/><rect class="cls-2" x="285.43" y="66.36" width="6.64" height="14.24" rx="3.32"/><circle class="cls-1" cx="297.68" cy="69.69" r="3.32"/><rect class="cls-2" x="294.36" y="74.91" width="6.64" height="14.24" rx="3.32"/><circle class="cls-1" cx="306.75" cy="85.82" r="3.32"/><rect class="cls-2" x="303.43" y="66.36" width="6.64" height="14.24" rx="3.32"/><circle class="cls-1" cx="315.68" cy="69.69" r="3.32"/><rect class="cls-2" x="312.36" y="74.91" width="6.64" height="14.24" rx="3.32"/><circle class="cls-1" cx="135.68" cy="94.69" r="3.32"/><rect class="cls-2" x="132.36" y="99.91" width="6.64" height="14.24" rx="3.32"/><circle class="cls-1" cx="144.75" cy="110.82" r="3.32"/><rect class="cls-2" x="141.43" y="91.36" width="6.64" height="14.24" rx="3.32"/><circle class="cls-1" cx="153.68" cy="94.69" r="3.32"/><rect class="cls-2" x="150.36" y="99.91" width="6.64" height="14.24" rx="3.32"/><circle class="cls-1" cx="162.75" cy="110.82" r="3.32"/><rect class="cls-2" x="159.43" y="91.36" width="6.64" height="14.24" rx="3.32"/><circle class="cls-1" cx="171.68" cy="94.69" r="3.32"/><rect class="cls-2" x="168.36" y="99.91" width="6.64" height="14.24" rx="3.32"/><circle class="cls-1" cx="180.75" cy="110.82" r="3.32"/><rect class="cls-2" x="177.43" y="91.36" width="6.64" height="14.24" rx="3.32"/><circle class="cls-1" cx="189.68" cy="94.69" r="3.32"/><rect class="cls-2" x="186.36" y="99.91" width="6.64" height="14.24" rx="3.32"/><circle class="cls-1" cx="198.75" cy="110.82" r="3.32"/><rect class="cls-2" x="195.43" y="91.36" width="6.64" height="14.24" rx="3.32"/><circle class="cls-1" cx="207.68" cy="94.69" r="3.32"/><rect class="cls-2" x="204.36" y="99.91" width="6.64" height="14.24" rx="3.32"/><circle class="cls-1" cx="216.75" cy="110.82" r="3.32"/><rect class="cls-2" x="213.43" y="91.36" width="6.64" height="14.24" rx="3.32"/><circle class="cls-1" cx="225.68" cy="94.69" r="3.32"/><rect class="cls-2" x="222.36" y="99.91" width="6.64" height="14.24" rx="3.32"/><circle class="cls-1" cx="234.75" cy="110.82" r="3.32"/><rect class="cls-2" x="231.43" y="91.36" width="6.64" height="14.24" rx="3.32"/><circle class="cls-1" cx="243.68" cy="94.69" r="3.32"/><rect class="cls-2" x="240.36" y="99.91" width="6.64" height="14.24" rx="3.32"/><circle class="cls-1" cx="252.75" cy="110.82" r="3.32"/><rect class="cls-2" x="249.43" y="91.36" width="6.64" height="14.24" rx="3.32"/><circle class="cls-1" cx="261.68" cy="94.69" r="3.32"/><rect class="cls-2" x="258.36" y="99.91" width="6.64" height="14.24" rx="3.32"/><circle class="cls-1" cx="270.75" cy="110.82" r="3.32"/><rect class="cls-2" x="267.43" y="91.36" width="6.64" height="14.24" rx="3.32"/><circle class="cls-1" cx="279.68" cy="94.69" r="3.32"/><rect class="cls-2" x="276.36" y="99.91" width="6.64" height="14.24" rx="3.32"/><circle class="cls-1" cx="288.75" cy="110.82" r="3.32"/><rect class="cls-2" x="285.43" y="91.36" width="6.64" height="14.24" rx="3.32"/><circle class="cls-1" cx="297.68" cy="94.69" r="3.32"/><rect class="cls-2" x="294.36" y="99.91" width="6.64" height="14.24" rx="3.32"/><circle class="cls-1" cx="306.75" cy="110.82" r="3.32"/><rect class="cls-2" x="303.43" y="91.36" width="6.64" height="14.24" rx="3.32"/><circle class="cls-1" cx="315.68" cy="94.69" r="3.32"/><rect class="cls-2" x="312.36" y="99.91" width="6.64" height="14.24" rx="3.32"/><circle class="cls-1" cx="135.68" cy="119.69" r="3.32"/><rect class="cls-2" x="132.36" y="124.91" width="6.64" height="14.24" rx="3.32"/><circle class="cls-1" cx="144.75" cy="135.82" r="3.32"/><rect class="cls-2" x="141.43" y="116.36" width="6.64" height="14.24" rx="3.32"/><circle class="cls-1" cx="153.68" cy="119.69" r="3.32"/><rect class="cls-2" x="150.36" y="124.91" width="6.64" height="14.24" rx="3.32"/><circle class="cls-1" cx="162.75" cy="135.82" r="3.32"/><rect class="cls-2" x="159.43" y="116.36" width="6.64" height="14.24" rx="3.32"/><circle class="cls-1" cx="171.68" cy="119.69" r="3.32"/><rect class="cls-2" x="168.36" y="124.91" width="6.64" height="14.24" rx="3.32"/><circle class="cls-1" cx="180.75" cy="135.82" r="3.32"/><rect class="cls-2" x="177.43" y="116.36" width="6.64" height="14.24" rx="3.32"/><circle class="cls-1" cx="189.68" cy="119.69" r="3.32"/><rect class="cls-2" x="186.36" y="124.91" width="6.64" height="14.24" rx="3.32"/><circle class="cls-1" cx="198.75" cy="135.82" r="3.32"/><rect class="cls-2" x="195.43" y="116.36" width="6.64" height="14.24" rx="3.32"/><circle class="cls-1" cx="207.68" cy="119.69" r="3.32"/><rect class="cls-2" x="204.36" y="124.91" width="6.64" height="14.24" rx="3.32"/><circle class="cls-1" cx="216.75" cy="135.82" r="3.32"/><rect class="cls-2" x="213.43" y="116.36" width="6.64" height="14.24" rx="3.32"/><circle class="cls-1" cx="225.68" cy="119.69" r="3.32"/><rect class="cls-2" x="222.36" y="124.91" width="6.64" height="14.24" rx="3.32"/><circle class="cls-1" cx="234.75" cy="135.82" r="3.32"/><rect class="cls-2" x="231.43" y="116.36" width="6.64" height="14.24" rx="3.32"/><circle class="cls-1" cx="243.68" cy="119.69" r="3.32"/><rect class="cls-2" x="240.36" y="124.91" width="6.64" height="14.24" rx="3.32"/><circle class="cls-1" cx="252.75" cy="135.82" r="3.32"/><rect class="cls-2" x="249.43" y="116.36" width="6.64" height="14.24" rx="3.32"/><circle class="cls-1" cx="261.68" cy="119.69" r="3.32"/><rect class="cls-2" x="258.36" y="124.91" width="6.64" height="14.24" rx="3.32"/><circle class="cls-1" cx="270.75" cy="135.82" r="3.32"/><rect class="cls-2" x="267.43" y="116.36" width="6.64" height="14.24" rx="3.32"/><circle class="cls-1" cx="279.68" cy="119.69" r="3.32"/><rect class="cls-2" x="276.36" y="124.91" width="6.64" height="14.24" rx="3.32"/><circle class="cls-1" cx="288.75" cy="135.82" r="3.32"/><rect class="cls-2" x="285.43" y="116.36" width="6.64" height="14.24" rx="3.32"/><circle class="cls-1" cx="297.68" cy="119.69" r="3.32"/><rect class="cls-2" x="294.36" y="124.91" width="6.64" height="14.24" rx="3.32"/><circle class="cls-1" cx="306.75" cy="135.82" r="3.32"/><rect class="cls-2" x="303.43" y="116.36" width="6.64" height="14.24" rx="3.32"/><circle class="cls-1" cx="315.68" cy="119.69" r="3.32"/><rect class="cls-2" x="312.36" y="124.91" width="6.64" height="14.24" rx="3.32"/><circle class="cls-1" cx="135.68" cy="144.69" r="3.32"/><rect class="cls-2" x="132.36" y="149.91" width="6.64" height="14.24" rx="3.32"/><circle class="cls-1" cx="144.75" cy="160.82" r="3.32"/><rect class="cls-2" x="141.43" y="141.36" width="6.64" height="14.24" rx="3.32"/><circle class="cls-1" cx="153.68" cy="144.69" r="3.32"/><rect class="cls-2" x="150.36" y="149.91" width="6.64" height="14.24" rx="3.32"/><circle class="cls-1" cx="162.75" cy="160.82" r="3.32"/><rect class="cls-2" x="159.43" y="141.36" width="6.64" height="14.24" rx="3.32"/><circle class="cls-1" cx="171.68" cy="144.69" r="3.32"/><rect class="cls-2" x="168.36" y="149.91" width="6.64" height="14.24" rx="3.32"/><circle class="cls-1" cx="180.75" cy="160.82" r="3.32"/><rect class="cls-2" x="177.43" y="141.36" width="6.64" height="14.24" rx="3.32"/><circle class="cls-1" cx="189.68" cy="144.69" r="3.32"/><rect class="cls-2" x="186.36" y="149.91" width="6.64" height="14.24" rx="3.32"/><circle class="cls-1" cx="198.75" cy="160.82" r="3.32"/><rect class="cls-2" x="195.43" y="141.36" width="6.64" height="14.24" rx="3.32"/><circle class="cls-1" cx="207.68" cy="144.69" r="3.32"/><rect class="cls-2" x="204.36" y="149.91" width="6.64" height="14.24" rx="3.32"/><circle class="cls-1" cx="216.75" cy="160.82" r="3.32"/><rect class="cls-2" x="213.43" y="141.36" width="6.64" height="14.24" rx="3.32"/><circle class="cls-1" cx="225.68" cy="144.69" r="3.32"/><rect class="cls-2" x="222.36" y="149.91" width="6.64" height="14.24" rx="3.32"/><circle class="cls-1" cx="234.75" cy="160.82" r="3.32"/><rect class="cls-2" x="231.43" y="141.36" width="6.64" height="14.24" rx="3.32"/><circle class="cls-1" cx="243.68" cy="144.69" r="3.32"/><rect class="cls-2" x="240.36" y="149.91" width="6.64" height="14.24" rx="3.32"/><circle class="cls-1" cx="252.75" cy="160.82" r="3.32"/><rect class="cls-2" x="249.43" y="141.36" width="6.64" height="14.24" rx="3.32"/><circle class="cls-1" cx="261.68" cy="144.69" r="3.32"/><rect class="cls-2" x="258.36" y="149.91" width="6.64" height="14.24" rx="3.32"/><circle class="cls-1" cx="270.75" cy="160.82" r="3.32"/><rect class="cls-2" x="267.43" y="141.36" width="6.64" height="14.24" rx="3.32"/><circle class="cls-1" cx="279.68" cy="144.69" r="3.32"/><rect class="cls-2" x="276.36" y="149.91" width="6.64" height="14.24" rx="3.32"/><circle class="cls-1" cx="288.75" cy="160.82" r="3.32"/><rect class="cls-2" x="285.43" y="141.36" width="6.64" height="14.24" rx="3.32"/><circle class="cls-1" cx="297.68" cy="144.69" r="3.32"/><rect class="cls-2" x="294.36" y="149.91" width="6.64" height="14.24" rx="3.32"/><circle class="cls-1" cx="306.75" cy="160.82" r="3.32"/><rect class="cls-2" x="303.43" y="141.36" width="6.64" height="14.24" rx="3.32"/><circle class="cls-1" cx="315.68" cy="144.69" r="3.32"/><rect class="cls-2" x="312.36" y="149.91" width="6.64" height="14.24" rx="3.32"/><circle class="cls-1" cx="135.68" cy="169.69" r="3.32"/><rect class="cls-2" x="141.43" y="166.36" width="6.64" height="14.24" rx="3.32"/><circle class="cls-1" cx="153.68" cy="169.69" r="3.32"/><rect class="cls-2" x="159.43" y="166.36" width="6.64" height="14.24" rx="3.32"/><circle class="cls-1" cx="171.68" cy="169.69" r="3.32"/><rect class="cls-2" x="177.43" y="166.36" width="6.64" height="14.24" rx="3.32"/><circle class="cls-1" cx="189.68" cy="169.69" r="3.32"/><rect class="cls-2" x="195.43" y="166.36" width="6.64" height="14.24" rx="3.32"/><circle class="cls-1" cx="207.68" cy="169.69" r="3.32"/><rect class="cls-2" x="213.43" y="166.36" width="6.64" height="14.24" rx="3.32"/><circle class="cls-1" cx="225.68" cy="169.69" r="3.32"/><rect class="cls-2" x="231.43" y="166.36" width="6.64" height="14.24" rx="3.32"/><circle class="cls-1" cx="243.68" cy="169.69" r="3.32"/><rect class="cls-2" x="249.43" y="166.36" width="6.64" height="14.24" rx="3.32"/><circle class="cls-1" cx="261.68" cy="169.69" r="3.32"/><rect class="cls-2" x="267.43" y="166.36" width="6.64" height="14.24" rx="3.32"/><circle class="cls-1" cx="279.68" cy="169.69" r="3.32"/><rect class="cls-2" x="285.43" y="166.36" width="6.64" height="14.24" rx="3.32"/><circle class="cls-1" cx="297.68" cy="169.69" r="3.32"/><rect class="cls-2" x="303.43" y="166.36" width="6.64" height="14.24" rx="3.32"/><circle class="cls-1" cx="315.68" cy="169.69" r="3.32"/></svg>