<svg id="Camada_1" data-name="Camada 1" xmlns="http://www.w3.org/2000/svg" viewBox="0 0 314 174"><defs><style>.cls-1{fill:#ae41d9;}.cls-2{fill:#ffbf00;}</style></defs><rect class="cls-1" x="269.3" y="-8.67" width="14.24" height="6.64" rx="3.32" transform="translate(84.75 193.89) rotate(-45)"/><circle class="cls-2" cx="280.15" cy="3.75" r="3.32"/><rect class="cls-1" x="281.76" y="-8.3" width="14.24" height="6.64" rx="3.32" transform="translate(88.13 202.81) rotate(-45)"/><rect class="cls-1" x="238.9" y="-3.73" width="14.24" height="6.64" rx="3.32" transform="translate(72.34 173.84) rotate(-45)"/><circle class="cls-2" cx="249.75" cy="8.7" r="3.32"/><rect class="cls-1" x="251.35" y="-3.35" width="14.24" height="6.64" rx="3.32" transform="translate(75.72 182.76) rotate(-45)"/><circle class="cls-2" cx="267.47" cy="3.6" r="3.32"/><rect class="cls-1" x="251.63" y="9" width="14.24" height="6.64" rx="3.32" transform="translate(67.07 186.57) rotate(-45)"/><circle class="cls-2" cx="262.47" cy="21.43" r="3.32"/><rect class="cls-1" x="264.08" y="9.38" width="14.24" height="6.64" rx="3.32" transform="translate(70.45 195.49) rotate(-45)"/><circle class="cls-2" cx="206.61" cy="0.92" r="3.32"/><rect class="cls-1" x="208.49" y="1.22" width="14.24" height="6.64" rx="3.32" transform="translate(59.94 153.79) rotate(-45)"/><circle class="cls-2" cx="219.34" cy="13.65" r="3.32"/><rect class="cls-1" x="220.95" y="1.6" width="14.24" height="6.64" rx="3.32" transform="translate(63.32 162.71) rotate(-45)"/><circle class="cls-2" cx="237.06" cy="8.55" r="3.32"/><rect class="cls-1" x="221.22" y="13.95" width="14.24" height="6.64" rx="3.32" transform="translate(54.66 166.52) rotate(-45)"/><circle class="cls-2" cx="232.07" cy="26.38" r="3.32"/><rect class="cls-1" x="233.68" y="14.33" width="14.24" height="6.64" rx="3.32" transform="translate(58.05 175.44) rotate(-45)"/><circle class="cls-2" cx="249.79" cy="21.28" r="3.32"/><rect class="cls-1" x="233.95" y="26.68" width="14.24" height="6.64" rx="3.32" transform="translate(49.39 179.25) rotate(-45)"/><circle class="cls-2" cx="244.8" cy="39.1" r="3.32"/><rect class="cls-1" x="246.4" y="27.06" width="14.24" height="6.64" rx="3.32" transform="translate(52.77 188.16) rotate(-45)"/><rect class="cls-1" x="165.36" y="-6.55" width="14.24" height="6.64" rx="3.32" transform="translate(52.8 121.01) rotate(-45)"/><circle class="cls-2" cx="176.21" cy="5.87" r="3.32"/><rect class="cls-1" x="177.81" y="-6.18" width="14.24" height="6.64" rx="3.32" transform="translate(56.18 129.93) rotate(-45)"/><circle class="cls-2" cx="193.93" cy="0.77" r="3.32"/><rect class="cls-1" x="178.09" y="6.17" width="14.24" height="6.64" rx="3.32" transform="translate(47.53 133.74) rotate(-45)"/><circle class="cls-2" cx="188.94" cy="18.6" r="3.32"/><rect class="cls-1" x="190.54" y="6.55" width="14.24" height="6.64" rx="3.32" transform="translate(50.91 142.66) rotate(-45)"/><circle class="cls-2" cx="206.66" cy="13.5" r="3.32"/><rect class="cls-1" x="190.81" y="18.9" width="14.24" height="6.64" rx="3.32" transform="translate(42.26 146.47) rotate(-45)"/><circle class="cls-2" cx="201.66" cy="31.32" r="3.32"/><rect class="cls-1" x="203.27" y="19.28" width="14.24" height="6.64" rx="3.32" transform="translate(45.64 155.39) rotate(-45)"/><circle class="cls-2" cx="219.38" cy="26.23" r="3.32"/><rect class="cls-1" x="203.54" y="31.63" width="14.24" height="6.64" rx="3.32" transform="translate(36.99 159.2) rotate(-45)"/><circle class="cls-2" cx="214.39" cy="44.05" r="3.32"/><rect class="cls-1" x="216" y="32.01" width="14.24" height="6.64" rx="3.32" transform="translate(40.37 168.11) rotate(-45)"/><circle class="cls-2" cx="232.11" cy="38.96" r="3.32"/><rect class="cls-1" x="216.27" y="44.36" width="14.24" height="6.64" rx="3.32" transform="translate(31.71 171.92) rotate(-45)"/><circle class="cls-2" cx="227.12" cy="56.78" r="3.32"/><rect class="cls-1" x="228.73" y="44.73" width="14.24" height="6.64" rx="3.32" transform="translate(35.1 180.84) rotate(-45)"/><circle class="cls-2" cx="133.07" cy="-1.91" r="3.32"/><rect class="cls-1" x="134.95" y="-1.6" width="14.24" height="6.64" rx="3.32" transform="translate(40.4 100.96) rotate(-45)"/><circle class="cls-2" cx="145.8" cy="10.82" r="3.32"/><rect class="cls-1" x="147.41" y="-1.23" width="14.24" height="6.64" rx="3.32" transform="translate(43.78 109.88) rotate(-45)"/><circle class="cls-2" cx="163.52" cy="5.72" r="3.32"/><rect class="cls-1" x="147.68" y="11.12" width="14.24" height="6.64" rx="3.32" transform="translate(35.12 113.69) rotate(-45)"/><circle class="cls-2" cx="158.53" cy="23.55" r="3.32"/><rect class="cls-1" x="160.14" y="11.5" width="14.24" height="6.64" rx="3.32" transform="translate(38.51 122.61) rotate(-45)"/><circle class="cls-2" cx="176.25" cy="18.45" r="3.32"/><rect class="cls-1" x="160.41" y="23.85" width="14.24" height="6.64" rx="3.32" transform="translate(29.85 126.42) rotate(-45)"/><circle class="cls-2" cx="171.26" cy="36.27" r="3.32"/><rect class="cls-1" x="172.86" y="24.23" width="14.24" height="6.64" rx="3.32" transform="translate(33.23 135.34) rotate(-45)"/><circle class="cls-2" cx="188.98" cy="31.18" r="3.32"/><rect class="cls-1" x="173.14" y="36.58" width="14.24" height="6.64" rx="3.32" transform="translate(24.58 139.15) rotate(-45)"/><circle class="cls-2" cx="183.99" cy="49" r="3.32"/><rect class="cls-1" x="185.59" y="36.96" width="14.24" height="6.64" rx="3.32" transform="translate(27.96 148.06) rotate(-45)"/><circle class="cls-2" cx="201.71" cy="43.91" r="3.32"/><rect class="cls-1" x="185.86" y="49.31" width="14.24" height="6.64" rx="3.32" transform="translate(19.31 151.87) rotate(-45)"/><circle class="cls-2" cx="196.71" cy="61.73" r="3.32"/><rect class="cls-1" x="198.32" y="49.68" width="14.24" height="6.64" rx="3.32" transform="translate(22.69 160.79) rotate(-45)"/><circle class="cls-2" cx="214.43" cy="56.63" r="3.32"/><rect class="cls-1" x="198.59" y="62.04" width="14.24" height="6.64" rx="3.32" transform="translate(14.04 164.6) rotate(-45)"/><circle class="cls-2" cx="209.44" cy="74.46" r="3.32"/><rect class="cls-1" x="211.05" y="62.41" width="14.24" height="6.64" rx="3.32" transform="translate(17.42 173.52) rotate(-45)"/><circle class="cls-2" cx="102.67" cy="3.04" r="3.32"/><rect class="cls-1" x="104.28" y="-9.01" width="14.24" height="6.64" rx="3.32" transform="translate(36.65 77.1) rotate(-45)"/><circle class="cls-2" cx="120.39" cy="-2.06" r="3.32"/><rect class="cls-1" x="104.55" y="3.35" width="14.24" height="6.64" rx="3.32" transform="translate(27.99 80.91) rotate(-45)"/><circle class="cls-2" cx="115.4" cy="15.77" r="3.32"/><rect class="cls-1" x="117" y="3.72" width="14.24" height="6.64" rx="3.32" transform="translate(31.37 89.83) rotate(-45)"/><circle class="cls-2" cx="133.12" cy="10.67" r="3.32"/><rect class="cls-1" x="117.27" y="16.07" width="14.24" height="6.64" rx="3.32" transform="translate(22.72 93.64) rotate(-45)"/><circle class="cls-2" cx="128.12" cy="28.5" r="3.32"/><rect class="cls-1" x="129.73" y="16.45" width="14.24" height="6.64" rx="3.32" transform="translate(26.1 102.56) rotate(-45)"/><circle class="cls-2" cx="145.85" cy="23.4" r="3.32"/><rect class="cls-1" x="130" y="28.8" width="14.24" height="6.64" rx="3.32" transform="translate(17.45 106.37) rotate(-45)"/><circle class="cls-2" cx="140.85" cy="41.22" r="3.32"/><rect class="cls-1" x="142.46" y="29.18" width="14.24" height="6.64" rx="3.32" transform="translate(20.83 115.29) rotate(-45)"/><circle class="cls-2" cx="158.57" cy="36.13" r="3.32"/><rect class="cls-1" x="142.73" y="41.53" width="14.24" height="6.64" rx="3.32" transform="translate(12.17 119.1) rotate(-45)"/><circle class="cls-2" cx="153.58" cy="53.95" r="3.32"/><rect class="cls-1" x="155.19" y="41.91" width="14.24" height="6.64" rx="3.32" transform="translate(15.56 128.01) rotate(-45)"/><circle class="cls-2" cx="171.3" cy="48.86" r="3.32"/><rect class="cls-1" x="155.46" y="54.26" width="14.24" height="6.64" rx="3.32" transform="translate(6.9 131.82) rotate(-45)"/><circle class="cls-2" cx="166.31" cy="66.68" r="3.32"/><rect class="cls-1" x="167.91" y="54.63" width="14.24" height="6.64" rx="3.32" transform="translate(10.29 140.74) rotate(-45)"/><circle class="cls-2" cx="184.03" cy="61.58" r="3.32"/><rect class="cls-1" x="168.19" y="66.99" width="14.24" height="6.64" rx="3.32" transform="translate(1.63 144.55) rotate(-45)"/><circle class="cls-2" cx="179.04" cy="79.41" r="3.32"/><rect class="cls-1" x="180.64" y="67.36" width="14.24" height="6.64" rx="3.32" transform="translate(5.01 153.47) rotate(-45)"/><circle class="cls-2" cx="196.76" cy="74.31" r="3.32"/><rect class="cls-1" x="180.91" y="79.71" width="14.24" height="6.64" rx="3.32" transform="translate(-3.64 157.28) rotate(-45)"/><circle class="cls-2" cx="191.76" cy="92.14" r="3.32"/><rect class="cls-1" x="193.37" y="80.09" width="14.24" height="6.64" rx="3.32" transform="translate(-0.26 166.2) rotate(-45)"/><rect class="cls-1" x="61.41" y="-4.43" width="14.24" height="6.64" rx="3.32" transform="translate(20.86 48.13) rotate(-45)"/><circle class="cls-2" cx="72.26" cy="7.99" r="3.32"/><rect class="cls-1" x="73.87" y="-4.06" width="14.24" height="6.64" rx="3.32" transform="translate(24.24 57.05) rotate(-45)"/><circle class="cls-2" cx="89.98" cy="2.89" r="3.32"/><rect class="cls-1" x="74.14" y="8.3" width="14.24" height="6.64" rx="3.32" transform="translate(15.59 60.86) rotate(-45)"/><circle class="cls-2" cx="84.99" cy="20.72" r="3.32"/><rect class="cls-1" x="86.6" y="8.67" width="14.24" height="6.64" rx="3.32" transform="translate(18.97 69.78) rotate(-45)"/><circle class="cls-2" cx="102.71" cy="15.62" r="3.32"/><rect class="cls-1" x="86.87" y="21.02" width="14.24" height="6.64" rx="3.32" transform="translate(10.31 73.59) rotate(-45)"/><circle class="cls-2" cx="97.72" cy="33.45" r="3.32"/><rect class="cls-1" x="99.33" y="21.4" width="14.24" height="6.64" rx="3.32" transform="translate(13.7 82.51) rotate(-45)"/><circle class="cls-2" cx="115.44" cy="28.35" r="3.32"/><rect class="cls-1" x="99.6" y="33.75" width="14.24" height="6.64" rx="3.32" transform="translate(5.04 86.32) rotate(-45)"/><circle class="cls-2" cx="110.45" cy="46.17" r="3.32"/><rect class="cls-1" x="112.05" y="34.13" width="14.24" height="6.64" rx="3.32" transform="translate(8.42 95.24) rotate(-45)"/><circle class="cls-2" cx="128.17" cy="41.08" r="3.32"/><rect class="cls-1" x="112.33" y="46.48" width="14.24" height="6.64" rx="3.32" transform="translate(-0.23 99.05) rotate(-45)"/><circle class="cls-2" cx="123.17" cy="58.9" r="3.32"/><rect class="cls-1" x="124.78" y="46.86" width="14.24" height="6.64" rx="3.32" transform="translate(3.15 107.96) rotate(-45)"/><circle class="cls-2" cx="140.9" cy="53.8" r="3.32"/><rect class="cls-1" x="125.05" y="59.21" width="14.24" height="6.64" rx="3.32" transform="translate(-5.5 111.77) rotate(-45)"/><circle class="cls-2" cx="135.9" cy="71.63" r="3.32"/><rect class="cls-1" x="137.51" y="59.58" width="14.24" height="6.64" rx="3.32" transform="translate(-2.12 120.69) rotate(-45)"/><circle class="cls-2" cx="153.62" cy="66.53" r="3.32"/><rect class="cls-1" x="137.78" y="71.94" width="14.24" height="6.64" rx="3.32" transform="translate(-10.77 124.5) rotate(-45)"/><circle class="cls-2" cx="148.63" cy="84.36" r="3.32"/><rect class="cls-1" x="150.24" y="72.31" width="14.24" height="6.64" rx="3.32" transform="translate(-7.39 133.42) rotate(-45)"/><circle class="cls-2" cx="166.35" cy="79.26" r="3.32"/><rect class="cls-1" x="150.51" y="84.66" width="14.24" height="6.64" rx="3.32" transform="translate(-16.05 137.23) rotate(-45)"/><circle class="cls-2" cx="161.36" cy="97.09" r="3.32"/><rect class="cls-1" x="162.96" y="85.04" width="14.24" height="6.64" rx="3.32" transform="translate(-12.66 146.15) rotate(-45)"/><circle class="cls-2" cx="179.08" cy="91.99" r="3.32"/><rect class="cls-1" x="163.24" y="97.39" width="14.24" height="6.64" rx="3.32" transform="translate(-21.32 149.96) rotate(-45)"/><circle class="cls-2" cx="174.09" cy="109.81" r="3.32"/><rect class="cls-1" x="175.69" y="97.77" width="14.24" height="6.64" rx="3.32" transform="translate(-17.94 158.88) rotate(-45)"/><circle class="cls-2" cx="29.13" cy="0.21" r="3.32"/><rect class="cls-1" x="31.01" y="0.52" width="14.24" height="6.64" rx="3.32" transform="translate(8.45 28.08) rotate(-45)"/><circle class="cls-2" cx="41.86" cy="12.94" r="3.32"/><rect class="cls-1" x="43.46" y="0.89" width="14.24" height="6.64" rx="3.32" transform="translate(11.83 37) rotate(-45)"/><circle class="cls-2" cx="59.58" cy="7.84" r="3.32"/><rect class="cls-1" x="43.74" y="13.25" width="14.24" height="6.64" rx="3.32" transform="translate(3.18 40.81) rotate(-45)"/><circle class="cls-2" cx="54.59" cy="25.67" r="3.32"/><rect class="cls-1" x="56.19" y="13.62" width="14.24" height="6.64" rx="3.32" transform="translate(6.56 49.73) rotate(-45)"/><circle class="cls-2" cx="72.31" cy="20.57" r="3.32"/><rect class="cls-1" x="56.46" y="25.97" width="14.24" height="6.64" rx="3.32" transform="translate(-2.09 53.54) rotate(-45)"/><circle class="cls-2" cx="67.31" cy="38.4" r="3.32"/><rect class="cls-1" x="68.92" y="26.35" width="14.24" height="6.64" rx="3.32" transform="translate(1.29 62.46) rotate(-45)"/><circle class="cls-2" cx="85.03" cy="33.3" r="3.32"/><rect class="cls-1" x="69.19" y="38.7" width="14.24" height="6.64" rx="3.32" transform="translate(-7.36 66.27) rotate(-45)"/><circle class="cls-2" cx="80.04" cy="51.12" r="3.32"/><rect class="cls-1" x="81.65" y="39.08" width="14.24" height="6.64" rx="3.32" transform="translate(-3.98 75.19) rotate(-45)"/><circle class="cls-2" cx="97.76" cy="46.03" r="3.32"/><rect class="cls-1" x="81.92" y="51.43" width="14.24" height="6.64" rx="3.32" transform="translate(-12.64 79) rotate(-45)"/><circle class="cls-2" cx="92.77" cy="63.85" r="3.32"/><rect class="cls-1" x="94.38" y="51.81" width="14.24" height="6.64" rx="3.32" transform="translate(-9.25 87.91) rotate(-45)"/><circle class="cls-2" cx="110.49" cy="58.75" r="3.32"/><rect class="cls-1" x="94.65" y="64.16" width="14.24" height="6.64" rx="3.32" transform="translate(-17.91 91.72) rotate(-45)"/><circle class="cls-2" cx="105.5" cy="76.58" r="3.32"/><rect class="cls-1" x="107.1" y="64.53" width="14.24" height="6.64" rx="3.32" transform="translate(-14.53 100.64) rotate(-45)"/><circle class="cls-2" cx="123.22" cy="71.48" r="3.32"/><rect class="cls-1" x="107.38" y="76.89" width="14.24" height="6.64" rx="3.32" transform="translate(-23.18 104.45) rotate(-45)"/><circle class="cls-2" cx="118.23" cy="89.31" r="3.32"/><rect class="cls-1" x="119.83" y="77.26" width="14.24" height="6.64" rx="3.32" transform="translate(-19.8 113.37) rotate(-45)"/><circle class="cls-2" cx="135.95" cy="84.21" r="3.32"/><rect class="cls-1" x="120.1" y="89.61" width="14.24" height="6.64" rx="3.32" transform="translate(-28.45 117.18) rotate(-45)"/><circle class="cls-2" cx="130.95" cy="102.04" r="3.32"/><rect class="cls-1" x="132.56" y="89.99" width="14.24" height="6.64" rx="3.32" transform="translate(-25.07 126.1) rotate(-45)"/><circle class="cls-2" cx="148.67" cy="96.94" r="3.32"/><rect class="cls-1" x="132.83" y="102.34" width="14.24" height="6.64" rx="3.32" transform="translate(-33.72 129.91) rotate(-45)"/><circle class="cls-2" cx="143.68" cy="114.76" r="3.32"/><rect class="cls-1" x="145.29" y="102.72" width="14.24" height="6.64" rx="3.32" transform="translate(-30.34 138.82) rotate(-45)"/><circle class="cls-2" cx="161.4" cy="109.67" r="3.32"/><rect class="cls-1" x="145.56" y="115.07" width="14.24" height="6.64" rx="3.32" transform="translate(-39 142.64) rotate(-45)"/><circle class="cls-2" cx="156.41" cy="127.49" r="3.32"/><rect class="cls-1" x="158.02" y="115.45" width="14.24" height="6.64" rx="3.32" transform="translate(-35.61 151.55) rotate(-45)"/><rect class="cls-1" x="-12.13" y="-7.26" width="14.24" height="6.64" rx="3.32" transform="translate(1.32 -4.69) rotate(-45)"/><circle class="cls-2" cx="-1.28" cy="5.16" r="3.32"/><rect class="cls-1" x="0.33" y="-6.88" width="14.24" height="6.64" rx="3.32" transform="translate(4.7 4.22) rotate(-45)"/><circle class="cls-2" cx="16.44" cy="0.06" r="3.32"/><rect class="cls-1" x="0.6" y="5.47" width="14.24" height="6.64" rx="3.32" transform="translate(-3.95 8.03) rotate(-45)"/><circle class="cls-2" cx="11.45" cy="17.89" r="3.32"/><rect class="cls-1" x="13.06" y="5.84" width="14.24" height="6.64" rx="3.32" transform="translate(-0.57 16.95) rotate(-45)"/><circle class="cls-2" cx="29.17" cy="12.79" r="3.32"/><rect class="cls-1" x="13.33" y="18.2" width="14.24" height="6.64" rx="3.32" transform="translate(-9.23 20.76) rotate(-45)"/><circle class="cls-2" cx="24.18" cy="30.62" r="3.32"/><rect class="cls-1" x="25.79" y="18.57" width="14.24" height="6.64" rx="3.32" transform="translate(-5.84 29.68) rotate(-45)"/><circle class="cls-2" cx="41.9" cy="25.52" r="3.32"/><rect class="cls-1" x="26.06" y="30.92" width="14.24" height="6.64" rx="3.32" transform="translate(-14.5 33.49) rotate(-45)"/><circle class="cls-2" cx="36.91" cy="43.35" r="3.32"/><rect class="cls-1" x="38.51" y="31.3" width="14.24" height="6.64" rx="3.32" transform="translate(-11.12 42.41) rotate(-45)"/><circle class="cls-2" cx="54.63" cy="38.25" r="3.32"/><rect class="cls-1" x="38.79" y="43.65" width="14.24" height="6.64" rx="3.32" transform="translate(-19.77 46.22) rotate(-45)"/><circle class="cls-2" cx="49.64" cy="56.07" r="3.32"/><rect class="cls-1" x="51.24" y="44.03" width="14.24" height="6.64" rx="3.32" transform="translate(-16.39 55.14) rotate(-45)"/><circle class="cls-2" cx="67.36" cy="50.98" r="3.32"/><rect class="cls-1" x="51.51" y="56.38" width="14.24" height="6.64" rx="3.32" transform="translate(-25.04 58.95) rotate(-45)"/><circle class="cls-2" cx="62.36" cy="68.8" r="3.32"/><rect class="cls-1" x="63.97" y="56.76" width="14.24" height="6.64" rx="3.32" transform="translate(-21.66 67.86) rotate(-45)"/><circle class="cls-2" cx="80.08" cy="63.7" r="3.32"/><rect class="cls-1" x="64.24" y="69.11" width="14.24" height="6.64" rx="3.32" transform="translate(-30.31 71.67) rotate(-45)"/><circle class="cls-2" cx="75.09" cy="81.53" r="3.32"/><rect class="cls-1" x="76.7" y="69.48" width="14.24" height="6.64" rx="3.32" transform="translate(-26.93 80.59) rotate(-45)"/><circle class="cls-2" cx="92.81" cy="76.43" r="3.32"/><rect class="cls-1" x="76.97" y="81.83" width="14.24" height="6.64" rx="3.32" transform="translate(-35.59 84.4) rotate(-45)"/><circle class="cls-2" cx="87.82" cy="94.26" r="3.32"/><rect class="cls-1" x="89.43" y="82.21" width="14.24" height="6.64" rx="3.32" transform="translate(-32.2 93.32) rotate(-45)"/><circle class="cls-2" cx="105.54" cy="89.16" r="3.32"/><rect class="cls-1" x="89.7" y="94.56" width="14.24" height="6.64" rx="3.32" transform="translate(-40.86 97.13) rotate(-45)"/><circle class="cls-2" cx="100.55" cy="106.99" r="3.32"/><rect class="cls-1" x="102.15" y="94.94" width="14.24" height="6.64" rx="3.32" transform="translate(-37.48 106.05) rotate(-45)"/><circle class="cls-2" cx="118.27" cy="101.89" r="3.32"/><rect class="cls-1" x="102.43" y="107.29" width="14.24" height="6.64" rx="3.32" transform="translate(-46.13 109.86) rotate(-45)"/><circle class="cls-2" cx="113.28" cy="119.71" r="3.32"/><rect class="cls-1" x="114.88" y="107.67" width="14.24" height="6.64" rx="3.32" transform="translate(-42.75 118.77) rotate(-45)"/><circle class="cls-2" cx="131" cy="114.62" r="3.32"/><rect class="cls-1" x="115.15" y="120.02" width="14.24" height="6.64" rx="3.32" transform="translate(-51.4 122.58) rotate(-45)"/><circle class="cls-2" cx="126" cy="132.44" r="3.32"/><rect class="cls-1" x="127.61" y="120.39" width="14.24" height="6.64" rx="3.32" transform="translate(-48.02 131.5) rotate(-45)"/><circle class="cls-2" cx="143.72" cy="127.34" r="3.32"/><rect class="cls-1" x="127.88" y="132.75" width="14.24" height="6.64" rx="3.32" transform="translate(-56.67 135.31) rotate(-45)"/><circle class="cls-2" cx="138.73" cy="145.17" r="3.32"/><rect class="cls-1" x="140.34" y="133.12" width="14.24" height="6.64" rx="3.32" transform="translate(-53.29 144.23) rotate(-45)"/><circle class="cls-2" cx="-1.23" cy="17.74" r="3.32"/><rect class="cls-1" x="-4.62" y="23.52" width="14.24" height="6.64" rx="3.32" transform="translate(-18.25 9.63) rotate(-45)"/><circle class="cls-2" cx="11.5" cy="30.47" r="3.32"/><rect class="cls-1" x="-4.35" y="35.87" width="14.24" height="6.64" rx="3.32" transform="translate(-26.9 13.44) rotate(-45)"/><circle class="cls-2" cx="6.5" cy="48.3" r="3.32"/><rect class="cls-1" x="8.11" y="36.25" width="14.24" height="6.64" rx="3.32" transform="translate(-23.52 22.36) rotate(-45)"/><circle class="cls-2" cx="24.22" cy="43.2" r="3.32"/><rect class="cls-1" x="8.38" y="48.6" width="14.24" height="6.64" rx="3.32" transform="translate(-32.18 26.17) rotate(-45)"/><circle class="cls-2" cx="19.23" cy="61.02" r="3.32"/><rect class="cls-1" x="20.84" y="48.98" width="14.24" height="6.64" rx="3.32" transform="translate(-28.79 35.08) rotate(-45)"/><circle class="cls-2" cx="36.95" cy="55.93" r="3.32"/><rect class="cls-1" x="21.11" y="61.33" width="14.24" height="6.64" rx="3.32" transform="translate(-37.45 38.89) rotate(-45)"/><circle class="cls-2" cx="31.96" cy="73.75" r="3.32"/><rect class="cls-1" x="33.56" y="61.7" width="14.24" height="6.64" rx="3.32" transform="translate(-34.07 47.81) rotate(-45)"/><circle class="cls-2" cx="49.68" cy="68.65" r="3.32"/><rect class="cls-1" x="33.84" y="74.06" width="14.24" height="6.64" rx="3.32" transform="translate(-42.72 51.62) rotate(-45)"/><circle class="cls-2" cx="44.69" cy="86.48" r="3.32"/><rect class="cls-1" x="46.29" y="74.43" width="14.24" height="6.64" rx="3.32" transform="translate(-39.34 60.54) rotate(-45)"/><circle class="cls-2" cx="62.41" cy="81.38" r="3.32"/><rect class="cls-1" x="46.56" y="86.78" width="14.24" height="6.64" rx="3.32" transform="translate(-47.99 64.35) rotate(-45)"/><circle class="cls-2" cx="57.41" cy="99.21" r="3.32"/><rect class="cls-1" x="59.02" y="87.16" width="14.24" height="6.64" rx="3.32" transform="translate(-44.61 73.27) rotate(-45)"/><circle class="cls-2" cx="75.13" cy="94.11" r="3.32"/><rect class="cls-1" x="59.29" y="99.51" width="14.24" height="6.64" rx="3.32" transform="translate(-53.26 77.08) rotate(-45)"/><circle class="cls-2" cx="70.14" cy="111.93" r="3.32"/><rect class="cls-1" x="71.75" y="99.89" width="14.24" height="6.64" rx="3.32" transform="translate(-49.88 86) rotate(-45)"/><circle class="cls-2" cx="87.86" cy="106.84" r="3.32"/><rect class="cls-1" x="72.02" y="112.24" width="14.24" height="6.64" rx="3.32" transform="translate(-58.54 89.81) rotate(-45)"/><circle class="cls-2" cx="82.87" cy="124.66" r="3.32"/><rect class="cls-1" x="84.48" y="112.62" width="14.24" height="6.64" rx="3.32" transform="translate(-55.15 98.72) rotate(-45)"/><circle class="cls-2" cx="100.59" cy="119.57" r="3.32"/><rect class="cls-1" x="84.75" y="124.97" width="14.24" height="6.64" rx="3.32" transform="translate(-63.81 102.53) rotate(-45)"/><circle class="cls-2" cx="95.6" cy="137.39" r="3.32"/><rect class="cls-1" x="97.2" y="125.34" width="14.24" height="6.64" rx="3.32" transform="translate(-60.43 111.45) rotate(-45)"/><circle class="cls-2" cx="113.32" cy="132.29" r="3.32"/><rect class="cls-1" x="97.48" y="137.7" width="14.24" height="6.64" rx="3.32" transform="translate(-69.08 115.26) rotate(-45)"/><circle class="cls-2" cx="108.33" cy="150.12" r="3.32"/><rect class="cls-1" x="109.93" y="138.07" width="14.24" height="6.64" rx="3.32" transform="translate(-65.7 124.18) rotate(-45)"/><circle class="cls-2" cx="126.05" cy="145.02" r="3.32"/><rect class="cls-1" x="110.2" y="150.42" width="14.24" height="6.64" rx="3.32" transform="translate(-74.35 127.99) rotate(-45)"/><circle class="cls-2" cx="121.05" cy="162.85" r="3.32"/><rect class="cls-1" x="122.66" y="150.8" width="14.24" height="6.64" rx="3.32" transform="translate(-70.97 136.91) rotate(-45)"/><rect class="cls-1" x="-9.57" y="53.93" width="14.24" height="6.64" rx="3.32" transform="translate(-41.2 15.03) rotate(-45)"/><circle class="cls-2" cx="6.55" cy="60.88" r="3.32"/><rect class="cls-1" x="-9.3" y="66.28" width="14.24" height="6.64" rx="3.32" transform="translate(-49.85 18.84) rotate(-45)"/><circle class="cls-2" cx="1.55" cy="78.7" r="3.32"/><rect class="cls-1" x="3.16" y="66.65" width="14.24" height="6.64" rx="3.32" transform="translate(-46.47 27.76) rotate(-45)"/><circle class="cls-2" cx="19.27" cy="73.6" r="3.32"/><rect class="cls-1" x="3.43" y="79.01" width="14.24" height="6.64" rx="3.32" transform="translate(-55.13 31.57) rotate(-45)"/><circle class="cls-2" cx="14.28" cy="91.43" r="3.32"/><rect class="cls-1" x="15.89" y="79.38" width="14.24" height="6.64" rx="3.32" transform="translate(-51.74 40.49) rotate(-45)"/><circle class="cls-2" cx="32" cy="86.33" r="3.32"/><rect class="cls-1" x="16.16" y="91.73" width="14.24" height="6.64" rx="3.32" transform="translate(-60.4 44.3) rotate(-45)"/><circle class="cls-2" cx="27.01" cy="104.16" r="3.32"/><rect class="cls-1" x="28.61" y="92.11" width="14.24" height="6.64" rx="3.32" transform="translate(-57.01 53.22) rotate(-45)"/><circle class="cls-2" cx="44.73" cy="99.06" r="3.32"/><rect class="cls-1" x="28.89" y="104.46" width="14.24" height="6.64" rx="3.32" transform="translate(-65.67 57.03) rotate(-45)"/><circle class="cls-2" cx="39.74" cy="116.88" r="3.32"/><rect class="cls-1" x="41.34" y="104.84" width="14.24" height="6.64" rx="3.32" transform="translate(-62.29 65.95) rotate(-45)"/><circle class="cls-2" cx="57.46" cy="111.79" r="3.32"/><rect class="cls-1" x="41.61" y="117.19" width="14.24" height="6.64" rx="3.32" transform="translate(-70.94 69.76) rotate(-45)"/><circle class="cls-2" cx="52.46" cy="129.61" r="3.32"/><rect class="cls-1" x="54.07" y="117.57" width="14.24" height="6.64" rx="3.32" transform="translate(-67.56 78.67) rotate(-45)"/><circle class="cls-2" cx="70.18" cy="124.52" r="3.32"/><rect class="cls-1" x="54.34" y="129.92" width="14.24" height="6.64" rx="3.32" transform="translate(-76.21 82.48) rotate(-45)"/><circle class="cls-2" cx="65.19" cy="142.34" r="3.32"/><rect class="cls-1" x="66.8" y="130.29" width="14.24" height="6.64" rx="3.32" transform="translate(-72.83 91.4) rotate(-45)"/><circle class="cls-2" cx="82.91" cy="137.24" r="3.32"/><rect class="cls-1" x="67.07" y="142.65" width="14.24" height="6.64" rx="3.32" transform="translate(-81.49 95.21) rotate(-45)"/><circle class="cls-2" cx="77.92" cy="155.07" r="3.32"/><rect class="cls-1" x="79.53" y="143.02" width="14.24" height="6.64" rx="3.32" transform="translate(-78.1 104.13) rotate(-45)"/><circle class="cls-2" cx="95.64" cy="149.97" r="3.32"/><rect class="cls-1" x="79.8" y="155.37" width="14.24" height="6.64" rx="3.32" transform="translate(-86.76 107.94) rotate(-45)"/><circle class="cls-2" cx="90.65" cy="167.8" r="3.32"/><rect class="cls-1" x="92.25" y="155.75" width="14.24" height="6.64" rx="3.32" transform="translate(-83.38 116.86) rotate(-45)"/><circle class="cls-2" cx="108.37" cy="162.7" r="3.32"/><rect class="cls-1" x="92.53" y="168.1" width="14.24" height="6.64" rx="3.32" transform="translate(-92.03 120.67) rotate(-45)"/><rect class="cls-1" x="104.98" y="168.48" width="14.24" height="6.64" rx="3.32" transform="translate(-88.65 129.59) rotate(-45)"/><circle class="cls-2" cx="1.6" cy="91.28" r="3.32"/><rect class="cls-1" x="-1.79" y="97.06" width="14.24" height="6.64" rx="3.32" transform="translate(-69.42 33.17) rotate(-45)"/><circle class="cls-2" cx="14.32" cy="104.01" r="3.32"/><rect class="cls-1" x="-1.52" y="109.41" width="14.24" height="6.64" rx="3.32" transform="translate(-78.07 36.98) rotate(-45)"/><circle class="cls-2" cx="9.33" cy="121.83" r="3.32"/><rect class="cls-1" x="10.94" y="109.79" width="14.24" height="6.64" rx="3.32" transform="translate(-74.69 45.9) rotate(-45)"/><circle class="cls-2" cx="27.05" cy="116.74" r="3.32"/><rect class="cls-1" x="11.21" y="122.14" width="14.24" height="6.64" rx="3.32" transform="translate(-83.35 49.71) rotate(-45)"/><circle class="cls-2" cx="22.06" cy="134.56" r="3.32"/><rect class="cls-1" x="23.66" y="122.52" width="14.24" height="6.64" rx="3.32" transform="translate(-79.96 58.62) rotate(-45)"/><circle class="cls-2" cx="39.78" cy="129.47" r="3.32"/><rect class="cls-1" x="23.94" y="134.87" width="14.24" height="6.64" rx="3.32" transform="translate(-88.62 62.43) rotate(-45)"/><circle class="cls-2" cx="34.79" cy="147.29" r="3.32"/><rect class="cls-1" x="36.39" y="135.24" width="14.24" height="6.64" rx="3.32" transform="translate(-85.24 71.35) rotate(-45)"/><circle class="cls-2" cx="52.51" cy="142.19" r="3.32"/><rect class="cls-1" x="36.66" y="147.6" width="14.24" height="6.64" rx="3.32" transform="translate(-93.89 75.16) rotate(-45)"/><circle class="cls-2" cx="47.51" cy="160.02" r="3.32"/><rect class="cls-1" x="49.12" y="147.97" width="14.24" height="6.64" rx="3.32" transform="translate(-90.51 84.08) rotate(-45)"/><circle class="cls-2" cx="65.24" cy="154.92" r="3.32"/><rect class="cls-1" x="49.39" y="160.32" width="14.24" height="6.64" rx="3.32" transform="translate(-99.16 87.89) rotate(-45)"/><circle class="cls-2" cx="60.24" cy="172.75" r="3.32"/><rect class="cls-1" x="61.85" y="160.7" width="14.24" height="6.64" rx="3.32" transform="translate(-95.78 96.81) rotate(-45)"/><circle class="cls-2" cx="77.96" cy="167.65" r="3.32"/><rect class="cls-1" x="62.12" y="173.05" width="14.24" height="6.64" rx="3.32" transform="translate(-104.44 100.62) rotate(-45)"/><rect class="cls-1" x="74.58" y="173.43" width="14.24" height="6.64" rx="3.32" transform="translate(-101.05 109.54) rotate(-45)"/><rect class="cls-1" x="-6.74" y="127.47" width="14.24" height="6.64" rx="3.32" transform="translate(-92.37 38.57) rotate(-45)"/><circle class="cls-2" cx="9.37" cy="134.42" r="3.32"/><rect class="cls-1" x="-6.47" y="139.82" width="14.24" height="6.64" rx="3.32" transform="translate(-101.02 42.38) rotate(-45)"/><circle class="cls-2" cx="4.38" cy="152.24" r="3.32"/><rect class="cls-1" x="5.99" y="140.19" width="14.24" height="6.64" rx="3.32" transform="translate(-97.64 51.3) rotate(-45)"/><circle class="cls-2" cx="22.1" cy="147.14" r="3.32"/><rect class="cls-1" x="6.26" y="152.55" width="14.24" height="6.64" rx="3.32" transform="translate(-106.3 55.11) rotate(-45)"/><circle class="cls-2" cx="17.11" cy="164.97" r="3.32"/><rect class="cls-1" x="18.72" y="152.92" width="14.24" height="6.64" rx="3.32" transform="translate(-102.91 64.03) rotate(-45)"/><circle class="cls-2" cx="34.83" cy="159.87" r="3.32"/><rect class="cls-1" x="18.99" y="165.27" width="14.24" height="6.64" rx="3.32" transform="translate(-111.57 67.84) rotate(-45)"/><rect class="cls-1" x="31.44" y="165.65" width="14.24" height="6.64" rx="3.32" transform="translate(-108.19 76.76) rotate(-45)"/><circle class="cls-2" cx="47.56" cy="172.6" r="3.32"/><rect class="cls-1" x="-11.69" y="157.87" width="14.24" height="6.64" rx="3.32" transform="translate(-115.32 43.98) rotate(-45)"/><circle class="cls-2" cx="4.42" cy="164.82" r="3.32"/><rect class="cls-1" x="-11.42" y="170.22" width="14.24" height="6.64" rx="3.32" transform="translate(-123.97 47.79) rotate(-45)"/><rect class="cls-1" x="1.04" y="170.6" width="14.24" height="6.64" rx="3.32" transform="translate(-120.59 56.71) rotate(-45)"/><circle class="cls-2" cx="310.56" cy="-1.2" r="3.32"/><rect class="cls-1" x="312.44" y="-0.9" width="14.24" height="6.64" rx="3.32" transform="translate(91.88 226.67) rotate(-45)"/><circle class="cls-2" cx="297.87" cy="-1.35" r="3.32"/><rect class="cls-1" x="282.03" y="4.05" width="14.24" height="6.64" rx="3.32" transform="translate(79.47 206.62) rotate(-45)"/><circle class="cls-2" cx="292.88" cy="16.48" r="3.32"/><rect class="cls-1" x="294.49" y="4.43" width="14.24" height="6.64" rx="3.32" transform="translate(82.86 215.54) rotate(-45)"/><circle class="cls-2" cx="310.6" cy="11.38" r="3.32"/><rect class="cls-1" x="294.76" y="16.78" width="14.24" height="6.64" rx="3.32" transform="translate(74.2 219.35) rotate(-45)"/><circle class="cls-2" cx="305.61" cy="29.2" r="3.32"/><rect class="cls-1" x="307.21" y="17.16" width="14.24" height="6.64" rx="3.32" transform="translate(77.58 228.26) rotate(-45)"/><rect class="cls-1" x="307.49" y="29.51" width="14.24" height="6.64" rx="3.32" transform="translate(68.93 232.07) rotate(-45)"/><circle class="cls-2" cx="280.2" cy="16.33" r="3.32"/><rect class="cls-1" x="264.35" y="21.73" width="14.24" height="6.64" rx="3.32" transform="translate(61.8 199.3) rotate(-45)"/><circle class="cls-2" cx="275.2" cy="34.15" r="3.32"/><rect class="cls-1" x="276.81" y="22.11" width="14.24" height="6.64" rx="3.32" transform="translate(65.18 208.22) rotate(-45)"/><circle class="cls-2" cx="292.92" cy="29.06" r="3.32"/><rect class="cls-1" x="277.08" y="34.46" width="14.24" height="6.64" rx="3.32" transform="translate(56.53 212.02) rotate(-45)"/><circle class="cls-2" cx="287.93" cy="46.88" r="3.32"/><rect class="cls-1" x="289.54" y="34.83" width="14.24" height="6.64" rx="3.32" transform="translate(59.91 220.94) rotate(-45)"/><circle class="cls-2" cx="305.65" cy="41.78" r="3.32"/><rect class="cls-1" x="289.81" y="47.19" width="14.24" height="6.64" rx="3.32" transform="translate(51.25 224.75) rotate(-45)"/><circle class="cls-2" cx="300.66" cy="59.61" r="3.32"/><rect class="cls-1" x="302.26" y="47.56" width="14.24" height="6.64" rx="3.32" transform="translate(54.64 233.67) rotate(-45)"/><rect class="cls-1" x="302.54" y="59.91" width="14.24" height="6.64" rx="3.32" transform="translate(45.98 237.48) rotate(-45)"/><circle class="cls-2" cx="313.39" cy="72.34" r="3.32"/><circle class="cls-2" cx="262.52" cy="34.01" r="3.32"/><rect class="cls-1" x="246.68" y="39.41" width="14.24" height="6.64" rx="3.32" transform="translate(44.12 191.97) rotate(-45)"/><circle class="cls-2" cx="257.53" cy="51.83" r="3.32"/><rect class="cls-1" x="259.13" y="39.78" width="14.24" height="6.64" rx="3.32" transform="translate(47.5 200.89) rotate(-45)"/><circle class="cls-2" cx="275.25" cy="46.73" r="3.32"/><rect class="cls-1" x="259.4" y="52.14" width="14.24" height="6.64" rx="3.32" transform="translate(38.85 204.7) rotate(-45)"/><circle class="cls-2" cx="270.25" cy="64.56" r="3.32"/><rect class="cls-1" x="271.86" y="52.51" width="14.24" height="6.64" rx="3.32" transform="translate(42.23 213.62) rotate(-45)"/><circle class="cls-2" cx="287.97" cy="59.46" r="3.32"/><rect class="cls-1" x="272.13" y="64.86" width="14.24" height="6.64" rx="3.32" transform="translate(33.58 217.43) rotate(-45)"/><circle class="cls-2" cx="282.98" cy="77.29" r="3.32"/><rect class="cls-1" x="284.59" y="65.24" width="14.24" height="6.64" rx="3.32" transform="translate(36.96 226.35) rotate(-45)"/><circle class="cls-2" cx="300.7" cy="72.19" r="3.32"/><rect class="cls-1" x="284.86" y="77.59" width="14.24" height="6.64" rx="3.32" transform="translate(28.3 230.16) rotate(-45)"/><circle class="cls-2" cx="295.71" cy="90.01" r="3.32"/><rect class="cls-1" x="297.32" y="77.97" width="14.24" height="6.64" rx="3.32" transform="translate(31.69 239.08) rotate(-45)"/><circle class="cls-2" cx="313.43" cy="84.92" r="3.32"/><rect class="cls-1" x="297.59" y="90.32" width="14.24" height="6.64" rx="3.32" transform="translate(23.03 242.89) rotate(-45)"/><circle class="cls-2" cx="308.44" cy="102.74" r="3.32"/><rect class="cls-1" x="310.04" y="90.7" width="14.24" height="6.64" rx="3.32" transform="translate(26.41 251.8) rotate(-45)"/><rect class="cls-1" x="310.31" y="103.05" width="14.24" height="6.64" rx="3.32" transform="translate(17.76 255.61) rotate(-45)"/><circle class="cls-2" cx="244.84" cy="51.68" r="3.32"/><rect class="cls-1" x="229" y="57.09" width="14.24" height="6.64" rx="3.32" transform="translate(26.44 184.65) rotate(-45)"/><circle class="cls-2" cx="239.85" cy="69.51" r="3.32"/><rect class="cls-1" x="241.45" y="57.46" width="14.24" height="6.64" rx="3.32" transform="translate(29.82 193.57) rotate(-45)"/><circle class="cls-2" cx="257.57" cy="64.41" r="3.32"/><rect class="cls-1" x="241.73" y="69.81" width="14.24" height="6.64" rx="3.32" transform="translate(21.17 197.38) rotate(-45)"/><circle class="cls-2" cx="252.58" cy="82.24" r="3.32"/><rect class="cls-1" x="254.18" y="70.19" width="14.24" height="6.64" rx="3.32" transform="translate(24.55 206.3) rotate(-45)"/><circle class="cls-2" cx="270.3" cy="77.14" r="3.32"/><rect class="cls-1" x="254.45" y="82.54" width="14.24" height="6.64" rx="3.32" transform="translate(15.9 210.11) rotate(-45)"/><circle class="cls-2" cx="265.3" cy="94.96" r="3.32"/><rect class="cls-1" x="266.91" y="82.92" width="14.24" height="6.64" rx="3.32" transform="translate(19.28 219.03) rotate(-45)"/><circle class="cls-2" cx="283.02" cy="89.87" r="3.32"/><rect class="cls-1" x="267.18" y="95.27" width="14.24" height="6.64" rx="3.32" transform="translate(10.63 222.84) rotate(-45)"/><circle class="cls-2" cx="278.03" cy="107.69" r="3.32"/><rect class="cls-1" x="279.64" y="95.65" width="14.24" height="6.64" rx="3.32" transform="translate(14.01 231.75) rotate(-45)"/><circle class="cls-2" cx="295.75" cy="102.6" r="3.32"/><rect class="cls-1" x="279.91" y="108" width="14.24" height="6.64" rx="3.32" transform="translate(5.35 235.56) rotate(-45)"/><circle class="cls-2" cx="290.76" cy="120.42" r="3.32"/><rect class="cls-1" x="292.37" y="108.37" width="14.24" height="6.64" rx="3.32" transform="translate(8.74 244.48) rotate(-45)"/><circle class="cls-2" cx="308.48" cy="115.32" r="3.32"/><rect class="cls-1" x="292.64" y="120.73" width="14.24" height="6.64" rx="3.32" transform="translate(0.08 248.29) rotate(-45)"/><circle class="cls-2" cx="303.49" cy="133.15" r="3.32"/><rect class="cls-1" x="305.09" y="121.1" width="14.24" height="6.64" rx="3.32" transform="translate(3.46 257.21) rotate(-45)"/><rect class="cls-1" x="305.37" y="133.45" width="14.24" height="6.64" rx="3.32" transform="translate(-5.19 261.02) rotate(-45)"/><circle class="cls-2" cx="316.22" cy="145.88" r="3.32"/><circle class="cls-2" cx="227.16" cy="69.36" r="3.32"/><rect class="cls-1" x="211.32" y="74.76" width="14.24" height="6.64" rx="3.32" transform="translate(8.76 177.33) rotate(-45)"/><circle class="cls-2" cx="222.17" cy="87.19" r="3.32"/><rect class="cls-1" x="223.78" y="75.14" width="14.24" height="6.64" rx="3.32" transform="translate(12.15 186.25) rotate(-45)"/><circle class="cls-2" cx="239.89" cy="82.09" r="3.32"/><rect class="cls-1" x="224.05" y="87.49" width="14.24" height="6.64" rx="3.32" transform="translate(3.49 190.06) rotate(-45)"/><circle class="cls-2" cx="234.9" cy="99.91" r="3.32"/><rect class="cls-1" x="236.5" y="87.87" width="14.24" height="6.64" rx="3.32" transform="translate(6.87 198.98) rotate(-45)"/><circle class="cls-2" cx="252.62" cy="94.82" r="3.32"/><rect class="cls-1" x="236.78" y="100.22" width="14.24" height="6.64" rx="3.32" transform="translate(-1.78 202.79) rotate(-45)"/><circle class="cls-2" cx="247.63" cy="112.64" r="3.32"/><rect class="cls-1" x="249.23" y="100.6" width="14.24" height="6.64" rx="3.32" transform="translate(1.6 211.7) rotate(-45)"/><circle class="cls-2" cx="265.35" cy="107.55" r="3.32"/><rect class="cls-1" x="249.5" y="112.95" width="14.24" height="6.64" rx="3.32" transform="translate(-7.05 215.51) rotate(-45)"/><circle class="cls-2" cx="260.35" cy="125.37" r="3.32"/><rect class="cls-1" x="261.96" y="113.32" width="14.24" height="6.64" rx="3.32" transform="translate(-3.67 224.43) rotate(-45)"/><circle class="cls-2" cx="278.07" cy="120.27" r="3.32"/><rect class="cls-1" x="262.23" y="125.68" width="14.24" height="6.64" rx="3.32" transform="translate(-12.32 228.24) rotate(-45)"/><circle class="cls-2" cx="273.08" cy="138.1" r="3.32"/><rect class="cls-1" x="274.69" y="126.05" width="14.24" height="6.64" rx="3.32" transform="translate(-8.94 237.16) rotate(-45)"/><circle class="cls-2" cx="290.8" cy="133" r="3.32"/><rect class="cls-1" x="274.96" y="138.4" width="14.24" height="6.64" rx="3.32" transform="translate(-17.6 240.97) rotate(-45)"/><circle class="cls-2" cx="285.81" cy="150.83" r="3.32"/><rect class="cls-1" x="287.42" y="138.78" width="14.24" height="6.64" rx="3.32" transform="translate(-14.21 249.89) rotate(-45)"/><circle class="cls-2" cx="303.53" cy="145.73" r="3.32"/><rect class="cls-1" x="287.69" y="151.13" width="14.24" height="6.64" rx="3.32" transform="translate(-22.87 253.7) rotate(-45)"/><circle class="cls-2" cx="298.54" cy="163.55" r="3.32"/><rect class="cls-1" x="300.14" y="151.51" width="14.24" height="6.64" rx="3.32" transform="translate(-19.49 262.62) rotate(-45)"/><circle class="cls-2" cx="316.26" cy="158.46" r="3.32"/><rect class="cls-1" x="300.42" y="163.86" width="14.24" height="6.64" rx="3.32" transform="translate(-28.14 266.43) rotate(-45)"/><circle class="cls-2" cx="311.27" cy="176.28" r="3.32"/><rect class="cls-1" x="312.87" y="164.24" width="14.24" height="6.64" rx="3.32" transform="translate(-24.76 275.34) rotate(-45)"/><circle class="cls-2" cx="209.48" cy="87.04" r="3.32"/><rect class="cls-1" x="193.64" y="92.44" width="14.24" height="6.64" rx="3.32" transform="translate(-8.91 170.01) rotate(-45)"/><circle class="cls-2" cx="204.49" cy="104.86" r="3.32"/><rect class="cls-1" x="206.1" y="92.82" width="14.24" height="6.64" rx="3.32" transform="translate(-5.53 178.93) rotate(-45)"/><circle class="cls-2" cx="222.21" cy="99.77" r="3.32"/><rect class="cls-1" x="206.37" y="105.17" width="14.24" height="6.64" rx="3.32" transform="translate(-14.19 182.74) rotate(-45)"/><circle class="cls-2" cx="217.22" cy="117.59" r="3.32"/><rect class="cls-1" x="218.83" y="105.55" width="14.24" height="6.64" rx="3.32" transform="translate(-10.8 191.65) rotate(-45)"/><circle class="cls-2" cx="234.94" cy="112.49" r="3.32"/><rect class="cls-1" x="219.1" y="117.9" width="14.24" height="6.64" rx="3.32" transform="translate(-19.46 195.46) rotate(-45)"/><circle class="cls-2" cx="229.95" cy="130.32" r="3.32"/><rect class="cls-1" x="231.55" y="118.27" width="14.24" height="6.64" rx="3.32" transform="translate(-16.08 204.38) rotate(-45)"/><circle class="cls-2" cx="247.67" cy="125.22" r="3.32"/><rect class="cls-1" x="231.83" y="130.63" width="14.24" height="6.64" rx="3.32" transform="translate(-24.73 208.19) rotate(-45)"/><circle class="cls-2" cx="242.68" cy="143.05" r="3.32"/><rect class="cls-1" x="244.28" y="131" width="14.24" height="6.64" rx="3.32" transform="translate(-21.35 217.11) rotate(-45)"/><circle class="cls-2" cx="260.4" cy="137.95" r="3.32"/><rect class="cls-1" x="244.55" y="143.35" width="14.24" height="6.64" rx="3.32" transform="translate(-30 220.92) rotate(-45)"/><circle class="cls-2" cx="255.4" cy="155.78" r="3.32"/><rect class="cls-1" x="257.01" y="143.73" width="14.24" height="6.64" rx="3.32" transform="translate(-26.62 229.84) rotate(-45)"/><circle class="cls-2" cx="273.12" cy="150.68" r="3.32"/><rect class="cls-1" x="257.28" y="156.08" width="14.24" height="6.64" rx="3.32" transform="translate(-35.27 233.65) rotate(-45)"/><circle class="cls-2" cx="268.13" cy="168.5" r="3.32"/><rect class="cls-1" x="269.74" y="156.46" width="14.24" height="6.64" rx="3.32" transform="translate(-31.89 242.57) rotate(-45)"/><circle class="cls-2" cx="285.85" cy="163.41" r="3.32"/><rect class="cls-1" x="270.01" y="168.81" width="14.24" height="6.64" rx="3.32" transform="translate(-40.55 246.38) rotate(-45)"/><rect class="cls-1" x="282.47" y="169.19" width="14.24" height="6.64" rx="3.32" transform="translate(-37.16 255.29) rotate(-45)"/><circle class="cls-2" cx="298.58" cy="176.13" r="3.32"/><circle class="cls-2" cx="191.81" cy="104.72" r="3.32"/><rect class="cls-1" x="175.96" y="110.12" width="14.24" height="6.64" rx="3.32" transform="translate(-26.59 162.69) rotate(-45)"/><circle class="cls-2" cx="186.81" cy="122.54" r="3.32"/><rect class="cls-1" x="188.42" y="110.5" width="14.24" height="6.64" rx="3.32" transform="translate(-23.21 171.6) rotate(-45)"/><circle class="cls-2" cx="204.54" cy="117.44" r="3.32"/><rect class="cls-1" x="188.69" y="122.85" width="14.24" height="6.64" rx="3.32" transform="translate(-31.86 175.41) rotate(-45)"/><circle class="cls-2" cx="199.54" cy="135.27" r="3.32"/><rect class="cls-1" x="201.15" y="123.22" width="14.24" height="6.64" rx="3.32" transform="translate(-28.48 184.33) rotate(-45)"/><circle class="cls-2" cx="217.26" cy="130.17" r="3.32"/><rect class="cls-1" x="201.42" y="135.58" width="14.24" height="6.64" rx="3.32" transform="translate(-37.14 188.14) rotate(-45)"/><circle class="cls-2" cx="212.27" cy="148" r="3.32"/><rect class="cls-1" x="213.88" y="135.95" width="14.24" height="6.64" rx="3.32" transform="translate(-33.75 197.06) rotate(-45)"/><circle class="cls-2" cx="229.99" cy="142.9" r="3.32"/><rect class="cls-1" x="214.15" y="148.3" width="14.24" height="6.64" rx="3.32" transform="translate(-42.41 200.87) rotate(-45)"/><circle class="cls-2" cx="225" cy="160.73" r="3.32"/><rect class="cls-1" x="226.6" y="148.68" width="14.24" height="6.64" rx="3.32" transform="translate(-39.03 209.79) rotate(-45)"/><circle class="cls-2" cx="242.72" cy="155.63" r="3.32"/><rect class="cls-1" x="226.88" y="161.03" width="14.24" height="6.64" rx="3.32" transform="translate(-47.68 213.6) rotate(-45)"/><circle class="cls-2" cx="237.73" cy="173.45" r="3.32"/><rect class="cls-1" x="239.33" y="161.41" width="14.24" height="6.64" rx="3.32" transform="translate(-44.3 222.51) rotate(-45)"/><circle class="cls-2" cx="255.45" cy="168.36" r="3.32"/><rect class="cls-1" x="239.6" y="173.76" width="14.24" height="6.64" rx="3.32" transform="translate(-52.95 226.33) rotate(-45)"/><rect class="cls-1" x="252.06" y="174.13" width="14.24" height="6.64" rx="3.32" transform="translate(-49.57 235.24) rotate(-45)"/><circle class="cls-2" cx="174.13" cy="122.39" r="3.32"/><rect class="cls-1" x="158.29" y="127.8" width="14.24" height="6.64" rx="3.32" transform="translate(-44.27 155.36) rotate(-45)"/><circle class="cls-2" cx="169.14" cy="140.22" r="3.32"/><rect class="cls-1" x="170.74" y="128.17" width="14.24" height="6.64" rx="3.32" transform="translate(-40.89 164.28) rotate(-45)"/><circle class="cls-2" cx="186.86" cy="135.12" r="3.32"/><rect class="cls-1" x="171.01" y="140.52" width="14.24" height="6.64" rx="3.32" transform="translate(-49.54 168.09) rotate(-45)"/><circle class="cls-2" cx="181.86" cy="152.95" r="3.32"/><rect class="cls-1" x="183.47" y="140.9" width="14.24" height="6.64" rx="3.32" transform="translate(-46.16 177.01) rotate(-45)"/><circle class="cls-2" cx="199.59" cy="147.85" r="3.32"/><rect class="cls-1" x="183.74" y="153.25" width="14.24" height="6.64" rx="3.32" transform="translate(-54.81 180.82) rotate(-45)"/><circle class="cls-2" cx="194.59" cy="165.68" r="3.32"/><rect class="cls-1" x="196.2" y="153.63" width="14.24" height="6.64" rx="3.32" transform="translate(-51.43 189.74) rotate(-45)"/><circle class="cls-2" cx="212.31" cy="160.58" r="3.32"/><rect class="cls-1" x="196.47" y="165.98" width="14.24" height="6.64" rx="3.32" transform="translate(-60.09 193.55) rotate(-45)"/><rect class="cls-1" x="208.93" y="166.36" width="14.24" height="6.64" rx="3.32" transform="translate(-56.7 202.46) rotate(-45)"/><circle class="cls-2" cx="225.04" cy="173.31" r="3.32"/><circle class="cls-2" cx="156.45" cy="140.07" r="3.32"/><rect class="cls-1" x="140.61" y="145.47" width="14.24" height="6.64" rx="3.32" transform="translate(-61.95 148.04) rotate(-45)"/><circle class="cls-2" cx="151.46" cy="157.9" r="3.32"/><rect class="cls-1" x="153.07" y="145.85" width="14.24" height="6.64" rx="3.32" transform="translate(-58.56 156.96) rotate(-45)"/><circle class="cls-2" cx="169.18" cy="152.8" r="3.32"/><rect class="cls-1" x="153.34" y="158.2" width="14.24" height="6.64" rx="3.32" transform="translate(-67.22 160.77) rotate(-45)"/><circle class="cls-2" cx="164.19" cy="170.62" r="3.32"/><rect class="cls-1" x="165.79" y="158.58" width="14.24" height="6.64" rx="3.32" transform="translate(-63.84 169.69) rotate(-45)"/><circle class="cls-2" cx="181.91" cy="165.53" r="3.32"/><rect class="cls-1" x="166.07" y="170.93" width="14.24" height="6.64" rx="3.32" transform="translate(-72.49 173.5) rotate(-45)"/><rect class="cls-1" x="178.52" y="171.31" width="14.24" height="6.64" rx="3.32" transform="translate(-69.11 182.41) rotate(-45)"/><circle class="cls-2" cx="138.77" cy="157.75" r="3.32"/><rect class="cls-1" x="122.93" y="163.15" width="14.24" height="6.64" rx="3.32" transform="translate(-79.62 140.72) rotate(-45)"/><circle class="cls-2" cx="133.78" cy="175.57" r="3.32"/><rect class="cls-1" x="135.39" y="163.53" width="14.24" height="6.64" rx="3.32" transform="translate(-76.24 149.64) rotate(-45)"/><circle class="cls-2" cx="151.5" cy="170.48" r="3.32"/><rect class="cls-1" x="135.66" y="175.88" width="14.24" height="6.64" rx="3.32" transform="translate(-84.9 153.45) rotate(-45)"/><rect class="cls-1" x="148.12" y="176.26" width="14.24" height="6.64" rx="3.32" transform="translate(-81.51 162.36) rotate(-45)"/><circle class="cls-2" cx="121.1" cy="175.43" r="3.32"/></svg>