<svg id="Camada_1" data-name="Camada 1" xmlns="http://www.w3.org/2000/svg" viewBox="0 0 314 174"><defs><style>.cls-1{fill:#ae41d9;}.cls-2{fill:#ffbf00;}.cls-3{fill:#fff;}</style></defs><circle class="cls-1" cx="86.92" cy="66.72" r="8.35"/><circle class="cls-2" cx="110.78" cy="107.28" r="8.35"/><rect class="cls-1" x="78.57" y="79.84" width="16.7" height="35.79" rx="8.35"/><path class="cls-3" d="M126.84,77.47h8.51L146,77.16a13.9,13.9,0,0,1,2.79.27A3.45,3.45,0,0,1,151,78.94a7.55,7.55,0,0,1,.85,4.1,7.2,7.2,0,0,1-.81,3.87,3.63,3.63,0,0,1-2.13,1.59,11.34,11.34,0,0,1-2.87.35l-10.14-.23h-9.36a3.77,3.77,0,0,1-3.14-1.36A7.79,7.79,0,0,1,122.5,83a6.5,6.5,0,0,1,1.09-4.14A3.88,3.88,0,0,1,126.84,77.47ZM135,115.63a7.07,7.07,0,0,1-3.94-.85,3.41,3.41,0,0,1-1.51-2.21,14.81,14.81,0,0,1-.27-2.9V73.45a16.22,16.22,0,0,1,.85-5.19,12.94,12.94,0,0,1,2.71-4.61,13.63,13.63,0,0,1,4.72-3.29,17.62,17.62,0,0,1,7-1.23,14.45,14.45,0,0,1,2.83.27,3.36,3.36,0,0,1,2.17,1.47,7.56,7.56,0,0,1,.81,4.06,7.23,7.23,0,0,1-.85,4.06,3.54,3.54,0,0,1-2.21,1.48,14.36,14.36,0,0,1-2.82.26,9.63,9.63,0,0,0-1.67.12,3.23,3.23,0,0,0-1,.35,1.46,1.46,0,0,0-.58.77,4,4,0,0,0-.2,1.32V109.9a12.56,12.56,0,0,1-.3,2.79,3.49,3.49,0,0,1-1.55,2.13A7.83,7.83,0,0,1,135,115.63Z"/><path class="cls-3" d="M162.21,115.55a7.56,7.56,0,0,1-4.06-.81,3.31,3.31,0,0,1-1.47-2.17,14.35,14.35,0,0,1-.27-2.82v-27a14.25,14.25,0,0,1,.27-2.86,3.26,3.26,0,0,1,1.51-2.13,7.77,7.77,0,0,1,4.1-.81,7,7,0,0,1,4,.85A3.44,3.44,0,0,1,167.75,80a14.57,14.57,0,0,1,.27,2.94v26.93a14.38,14.38,0,0,1-.27,2.83,3.19,3.19,0,0,1-1.48,2.13A7.89,7.89,0,0,1,162.21,115.55Zm6.91-50.27a6.91,6.91,0,1,1-6.91-6.91A6.91,6.91,0,0,1,169.12,65.28Z"/><path class="cls-3" d="M189.61,115.55a39,39,0,0,1-5.61-.35,12.53,12.53,0,0,1-4.18-1.27,7.66,7.66,0,0,1-2.83-2.56,11.47,11.47,0,0,1-1.58-4.21,33.83,33.83,0,0,1-.51-6.39V65a14.35,14.35,0,0,1,.27-2.87A3.45,3.45,0,0,1,176.68,60a7.3,7.3,0,0,1,4-.85,7.1,7.1,0,0,1,4,.85,3.64,3.64,0,0,1,1.5,2.16,12.37,12.37,0,0,1,.32,2.87v35.22a14.67,14.67,0,0,0,.11,2,2.79,2.79,0,0,0,.46,1.27,1.65,1.65,0,0,0,1,.62,6.57,6.57,0,0,0,1.63.16,7.75,7.75,0,0,1,1.89.23,2.77,2.77,0,0,1,1.67,1.4,7.93,7.93,0,0,1,.7,3.86,8.7,8.7,0,0,1-.7,4,2.74,2.74,0,0,1-1.67,1.47A8.63,8.63,0,0,1,189.61,115.55Z"/><path class="cls-3" d="M229.63,115.47a7.11,7.11,0,0,1-4.22-1,3,3,0,0,1-1.36-2.48l.78-1.31a8.56,8.56,0,0,1-1.78,1.89,12.65,12.65,0,0,1-8.59,2.9,15.43,15.43,0,0,1-6.78-1.54,18.45,18.45,0,0,1-5.68-4.3,21.32,21.32,0,0,1-3.92-6.23,19.21,19.21,0,0,1-1.43-7.35,18.77,18.77,0,0,1,1.43-7.24A20.42,20.42,0,0,1,202,82.69a19.61,19.61,0,0,1,5.69-4.21,15.21,15.21,0,0,1,6.74-1.55,12.7,12.7,0,0,1,8.24,2.71,10.21,10.21,0,0,1,2.05,2.09l-.62-1.09a3.06,3.06,0,0,1,1.28-2.82,7.45,7.45,0,0,1,4.29-1,7.08,7.08,0,0,1,4,.85A3.5,3.5,0,0,1,235.16,80a15.45,15.45,0,0,1,.27,2.94v26.7a15.1,15.1,0,0,1-.27,2.87,3.32,3.32,0,0,1-1.47,2.2A7.56,7.56,0,0,1,229.63,115.47Zm-13.47-11.53a6.85,6.85,0,0,0,3.68-1,7.55,7.55,0,0,0,2.63-2.83,8.16,8.16,0,0,0,1-3.95,7.74,7.74,0,0,0-3.72-6.77,7,7,0,0,0-3.71-1,7.41,7.41,0,0,0-4,1.08,8.3,8.3,0,0,0-2.79,2.86,7.88,7.88,0,0,0-1,4,7.37,7.37,0,0,0,1,3.83,7.89,7.89,0,0,0,2.86,2.79A8.11,8.11,0,0,0,216.16,103.94Z"/></svg>