<svg xmlns="http://www.w3.org/2000/svg" viewBox="0 0 148.3 148.3"><defs><style>.cls-1{fill:#fff;}.cls-2{fill:#ae41d9;}.cls-3{fill:#ffbf00;}.cls-4{fill:#444;}</style></defs><g id="Camada_2" data-name="Camada 2"><g id="Camada_1-2" data-name="Camada 1"><circle class="cls-1" cx="74.15" cy="74.15" r="74.15"/><circle class="cls-2" cx="34.09" cy="62.56" r="4.77"/><circle class="cls-3" cx="47.73" cy="85.75" r="4.77"/><rect class="cls-2" x="29.31" y="70.06" width="9.55" height="20.46" rx="4.77"/><path class="cls-4" d="M56.91,68.7h4.87l6.1-.17a8.28,8.28,0,0,1,1.6.15,2,2,0,0,1,1.23.86,4.26,4.26,0,0,1,.49,2.35,4.11,4.11,0,0,1-.46,2.21,2.07,2.07,0,0,1-1.22.91,6.52,6.52,0,0,1-1.64.2l-5.79-.13H56.73a2.13,2.13,0,0,1-1.79-.78,4.4,4.4,0,0,1-.51-2.45,3.75,3.75,0,0,1,.62-2.37A2.22,2.22,0,0,1,56.91,68.7Zm4.64,21.82A4,4,0,0,1,59.3,90a2,2,0,0,1-.87-1.26,8.68,8.68,0,0,1-.15-1.66V66.4a9.14,9.14,0,0,1,.49-3,7.39,7.39,0,0,1,1.55-2.64A7.68,7.68,0,0,1,63,58.92a10,10,0,0,1,4-.7,8.38,8.38,0,0,1,1.61.15,1.88,1.88,0,0,1,1.24.84,4.32,4.32,0,0,1,.47,2.33,4.19,4.19,0,0,1-.49,2.32,2,2,0,0,1-1.26.84,8.56,8.56,0,0,1-1.62.15,6.07,6.07,0,0,0-1,.07,1.69,1.69,0,0,0-.6.2.9.9,0,0,0-.33.44,2.39,2.39,0,0,0-.11.76V87.24a7.48,7.48,0,0,1-.17,1.6,2,2,0,0,1-.89,1.21A4.43,4.43,0,0,1,61.55,90.52Z"/><path class="cls-4" d="M77.13,90.47A4.32,4.32,0,0,1,74.81,90,1.88,1.88,0,0,1,74,88.77a7.65,7.65,0,0,1-.16-1.61V71.71A7.73,7.73,0,0,1,74,70.07a1.86,1.86,0,0,1,.86-1.21,4.41,4.41,0,0,1,2.34-.47,4.06,4.06,0,0,1,2.28.49,2,2,0,0,1,.85,1.24,8.6,8.6,0,0,1,.15,1.68V87.2a8.56,8.56,0,0,1-.15,1.62A1.84,1.84,0,0,1,79.45,90,4.42,4.42,0,0,1,77.13,90.47Zm4-28.74a4,4,0,1,1-4-3.95A4,4,0,0,1,81.08,61.73Z"/><path class="cls-4" d="M92.79,90.47a23.34,23.34,0,0,1-3.2-.19,7.23,7.23,0,0,1-2.39-.74,4.3,4.3,0,0,1-1.62-1.46,6.78,6.78,0,0,1-.91-2.41A19.69,19.69,0,0,1,84.39,82V61.58a8.4,8.4,0,0,1,.15-1.64,2,2,0,0,1,.86-1.24,4.25,4.25,0,0,1,2.31-.48A4.05,4.05,0,0,1,90,58.7a2.1,2.1,0,0,1,.87,1.24A7.65,7.65,0,0,1,91,61.58V81.71a9.22,9.22,0,0,0,.07,1.18,1.4,1.4,0,0,0,.27.72.93.93,0,0,0,.55.36,3.83,3.83,0,0,0,.93.09,4.55,4.55,0,0,1,1.08.13,1.54,1.54,0,0,1,1,.8,4.47,4.47,0,0,1,.4,2.21,4.88,4.88,0,0,1-.4,2.3,1.55,1.55,0,0,1-1,.84A4.72,4.72,0,0,1,92.79,90.47Z"/><path class="cls-4" d="M115.67,90.43a4,4,0,0,1-2.41-.58,1.7,1.7,0,0,1-.78-1.41l.45-.75a5.27,5.27,0,0,1-1,1.08,7.44,7.44,0,0,1-2,1.15,7.52,7.52,0,0,1-3,.51,8.78,8.78,0,0,1-3.87-.89,10.44,10.44,0,0,1-3.26-2.45,12.29,12.29,0,0,1-2.23-3.56,10.89,10.89,0,0,1-.82-4.21,10.57,10.57,0,0,1,.82-4.13,11.32,11.32,0,0,1,2.26-3.5,11,11,0,0,1,3.25-2.41,8.67,8.67,0,0,1,3.85-.89,7.38,7.38,0,0,1,2.78.47,7.8,7.8,0,0,1,1.93,1.08,5.65,5.65,0,0,1,1.17,1.2l-.35-.62a1.76,1.76,0,0,1,.73-1.62,4.27,4.27,0,0,1,2.45-.55,4,4,0,0,1,2.28.49,2,2,0,0,1,.84,1.28A8.26,8.26,0,0,1,119,71.8V87.07a8,8,0,0,1-.16,1.63A1.89,1.89,0,0,1,118,90,4.3,4.3,0,0,1,115.67,90.43ZM108,83.84a3.84,3.84,0,0,0,2.1-.6,4.33,4.33,0,0,0,1.51-1.61,4.67,4.67,0,0,0,.55-2.26A4.38,4.38,0,0,0,110,75.5a4,4,0,0,0-2.13-.6,4.28,4.28,0,0,0-2.28.62A4.71,4.71,0,0,0,104,77.16a4.41,4.41,0,0,0-.6,2.3,4.19,4.19,0,0,0,.6,2.19,4.47,4.47,0,0,0,1.64,1.59A4.53,4.53,0,0,0,108,83.84Z"/></g></g></svg>