<svg width="334" height="278" viewBox="0 0 334 278" fill="none" xmlns="http://www.w3.org/2000/svg">
<path d="M298.95 153.306C298.95 171.904 283.913 186.981 265.365 186.981C246.815 186.981 231.778 171.904 231.778 153.306C231.778 134.708 246.815 119.632 265.365 119.632C283.913 119.632 298.95 134.708 298.95 153.306Z" fill="#EDEDEB"/>
<path d="M9.64294 94.0103H101.616C101.616 94.0103 100.285 86.7073 83.2677 87.1248C86.646 76.4826 77.1215 64.8278 55.6289 64.3809C34.1374 63.9332 41.6921 81.2823 41.6921 81.2823C41.6921 81.2823 5.5847 75.0222 16.5109 87.959C-1.38741 88.5852 -4.92547 90.8807 9.64294 94.0103Z" fill="#EDEDEB"/>
<path d="M248.387 139.644C250.484 129.148 232.606 117.654 199.684 117.213C166.762 116.771 183.272 133.881 183.272 133.881C183.272 133.881 126.38 127.707 146.766 140.465C119.636 141.084 114.898 143.346 138.025 146.433H278.36C278.36 146.433 274.232 139.231 248.387 139.644Z" fill="#FAFAF9"/>
<path d="M230.143 61.0373H325.436C325.436 61.0373 346.7 48.7988 321.499 47.2193C325.831 36.7566 315.188 19.0078 277.987 18.5956C240.784 18.1825 260.07 42.6782 260.07 42.6782C260.07 42.6782 203.361 26.2939 223.251 52.3521C214.588 52.3521 183.676 61.0373 230.143 61.0373Z" fill="#F3F2F1"/>
<path d="M30.5574 187.808H73.3799C73.3799 187.808 82.9354 182.308 71.6106 181.599C73.5571 176.897 68.7745 168.921 52.0574 168.736C35.34 168.551 44.0055 179.558 44.0055 179.558C44.0055 179.558 18.5231 172.195 27.4609 183.905C23.5677 183.905 9.67652 187.808 30.5574 187.808Z" fill="#F3F2F1"/>
<path d="M28.6227 20.1715C28.6227 20.1715 16.5452 12.4084 8.13852 23.4485C15.0434 16.5889 28.1638 23.4974 28.1638 23.4974C28.1638 23.4974 43.1815 16.6582 48.1883 23.548C42.8342 12.4741 28.6227 20.1715 28.6227 20.1715Z" fill="#EDEDEB"/>
<path d="M93.4133 122.428C93.4133 122.428 86.1418 117.754 81.081 124.4C85.2381 120.271 93.1368 124.43 93.1368 124.43C93.1368 124.43 102.178 120.313 105.192 124.46C101.968 117.793 93.4133 122.428 93.4133 122.428Z" fill="#EDEDEB"/>
<path d="M225.889 14.1433C225.889 14.1433 222.253 11.807 219.722 15.1294C221.802 13.0649 225.751 15.1453 225.751 15.1453C225.751 15.1453 230.271 13.0862 231.778 15.1595C230.166 11.8265 225.889 14.1433 225.889 14.1433Z" fill="#F3F2F1"/>
<path d="M314.748 93.901C314.748 93.901 311.113 91.5647 308.583 94.8879C310.661 92.8226 314.61 94.903 314.61 94.903C314.61 94.903 319.131 92.8439 320.638 94.9172C319.026 91.5842 314.748 93.901 314.748 93.901Z" fill="#F3F2F1"/>
<path d="M110.347 250.115C113.362 267.653 99.2609 276.284 85.5677 271.929C76.2266 268.958 66.9732 271.242 60.6871 274.238C59.5317 274.788 58.4517 273.365 59.2677 272.376C60.3734 271.037 61.5341 269.822 62.6398 268.763C63.5515 267.889 62.6664 266.389 61.4597 266.758C56.0046 268.43 47.9623 269.994 40.1868 268.163C39.1334 267.916 38.9216 266.51 39.8528 265.959C47.6026 261.361 59.4298 249.272 70.5199 245.341C71.825 244.877 71.4281 242.946 70.045 243.017C68.3049 243.106 66.517 243.344 64.8353 243.655C63.5267 243.898 62.8613 242.159 63.991 241.453C79.4658 231.777 106.496 227.716 110.347 250.115Z" fill="#AE41D9"/>
<path d="M91.2745 275.708L85.3445 229.845C85.2071 228.785 86.0728 227.867 87.1351 227.943L115.929 229.997C116.728 230.055 117.378 230.669 117.481 231.466L121.936 265.925C122.04 266.722 121.569 267.481 120.809 267.741L93.4895 277.09C92.4821 277.435 91.4118 276.768 91.2745 275.708Z" fill="#040606"/>
<path d="M85.5474 267.108L81.9936 239.626C81.8643 238.627 82.6289 237.738 83.6327 237.719L116.697 237.1C117.556 237.083 118.289 237.718 118.399 238.572L121.017 258.819C121.128 259.673 120.581 260.473 119.746 260.677L87.6171 268.531C86.6416 268.77 85.6758 268.106 85.5474 267.108Z" fill="#444444"/>
<path d="M212.599 265.916L212.452 265.021L229.724 262.162L229.871 263.057L212.599 265.916Z" fill="#AE41D9"/>
<path d="M203.018 267.502L202.871 266.606L207.951 265.766L208.098 266.661L203.018 267.502Z" fill="#AE41D9"/>
<path d="M280.875 227.746C280.875 227.746 257.047 205.366 222.921 209.801L115.422 219.99C107.113 220.777 101.11 228.316 102.183 236.615L105.835 264.858C106.908 273.157 114.629 278.91 122.865 277.548L229.401 259.914C263.527 255.479 280.875 227.746 280.875 227.746Z" fill="#AE41D9"/>
<path d="M261.467 247.242C268.401 242.358 273.488 237.09 276.712 233.262H276.712C273.51 237.066 268.466 242.293 261.599 247.152C261.555 247.183 261.511 247.213 261.467 247.242ZM276.899 233.04C277.736 232.038 278.441 231.14 279.014 230.381C278.441 231.141 277.737 232.038 276.899 233.04Z" fill="white"/>
<path d="M276.712 233.262H276.712C276.775 233.187 276.837 233.114 276.899 233.04C276.838 233.114 276.776 233.188 276.712 233.262Z" fill="#EEEEEC"/>
<path d="M257.951 248.325C254.912 248.325 252.031 246.123 251.594 242.735L248.753 220.742C248.238 216.759 251.402 213.509 255.077 213.509C255.814 213.509 256.57 213.64 257.322 213.921C271.996 219.411 280.871 227.748 280.871 227.748L280.861 227.766C280.767 227.915 280.15 228.875 279.014 230.381C278.441 231.14 277.736 232.038 276.899 233.04C276.837 233.114 276.775 233.187 276.712 233.262C273.488 237.09 268.401 242.358 261.467 247.242C260.363 247.985 259.145 248.325 257.951 248.325Z" fill="#FFBF00"/>
<path d="M207.968 255.725C197.944 257.028 188.765 249.938 187.466 239.888C186.166 229.838 193.238 220.634 203.262 219.332C213.286 218.03 222.464 225.119 223.764 235.17C225.063 245.219 217.991 254.423 207.968 255.725Z" fill="white"/>
<path d="M205.631 249.932C205.18 249.932 204.733 249.905 204.29 249.859C204.725 249.905 205.164 249.927 205.606 249.927C205.953 249.927 206.303 249.913 206.655 249.885C206.312 249.916 205.971 249.932 205.631 249.932ZM217.943 238.522C217.95 237.977 217.911 237.411 217.838 236.853C217.009 230.99 211.662 226.698 205.525 226.698C205.006 226.698 204.48 226.729 203.953 226.792C198.047 227.485 193.689 231.994 193.255 237.346C193.255 237.402 193.254 237.457 193.254 237.513C193.254 237.457 193.255 237.402 193.255 237.346C193.332 231.278 197.841 226.031 204.024 225.231C204.564 225.161 205.101 225.127 205.63 225.127C211.755 225.127 217.071 229.685 217.879 235.938C217.994 236.805 218.009 237.67 217.943 238.522Z" fill="#FFE597"/>
<path d="M205.606 249.927C205.164 249.927 204.725 249.905 204.29 249.859C204.02 249.829 203.74 249.797 203.47 249.749C203.281 249.713 203.084 249.677 202.878 249.631C197.96 248.506 194.03 244.427 193.356 239.124C193.289 238.586 193.254 238.048 193.254 237.513C193.254 237.457 193.255 237.402 193.255 237.346C193.689 231.994 198.047 227.485 203.953 226.792C204.48 226.729 205.006 226.698 205.525 226.698C211.662 226.698 217.009 230.99 217.838 236.853C217.911 237.411 217.95 237.977 217.943 238.522C217.492 244.227 213.111 249.063 207.201 249.829C207.02 249.848 206.837 249.875 206.655 249.885C206.303 249.913 205.953 249.927 205.606 249.927Z" fill="#FFBF00" fill-opacity="0.67"/>
<path d="M179.904 209.793L185.436 209.244L186.218 196.558L180.686 197.108L179.904 209.793Z" fill="#FFC6C0"/>
<path d="M148.109 213.092L153.562 212.543L154.724 199.636L149.271 200.185L148.109 213.092Z" fill="#FFC6C0"/>
<path d="M153.87 211.317L147.744 211.934C147.52 211.956 147.347 212.13 147.326 212.353L146.854 217.31C146.805 217.824 147.26 218.261 147.774 218.199C149.909 217.947 150.932 217.717 153.626 217.446C155.284 217.279 157.505 217.133 159.794 216.902C162.033 216.676 162.099 214.377 161.136 214.267C156.82 213.771 156.294 212.637 154.798 211.563C154.528 211.37 154.196 211.284 153.87 211.317Z" fill="#444444"/>
<path d="M185.602 208.098L179.646 208.698C179.423 208.72 179.249 208.895 179.228 209.118L178.757 214.074C178.708 214.588 179.149 215.025 179.663 214.966C181.807 214.712 184.895 214.273 187.595 214.002C190.753 213.683 190.771 213.85 194.474 213.477C196.713 213.251 197.051 210.926 196.088 210.815C191.705 210.31 190.939 210.293 186.969 208.391C186.536 208.184 186.072 208.05 185.602 208.098Z" fill="#444444"/>
<path d="M164.362 31.7331C165.74 31.8601 167.304 32.0129 168.776 32.0786C170.268 32.1657 171.751 32.2056 173.204 32.2048C174.655 32.1932 176.08 32.123 177.398 31.9569C178.686 31.781 179.944 31.4772 180.603 31.1325L178.976 33.6403C178.955 33.9317 179.038 33.9317 178.985 33.7513C178.948 33.5825 178.833 33.2885 178.665 32.9669C178.327 32.3167 177.793 31.5687 177.204 30.8412C176.006 29.3772 174.587 27.9035 173.096 26.4919C171.609 25.0653 170.044 23.6759 168.454 22.2999C166.88 20.9132 165.226 19.5603 163.624 18.2313L165.76 14.8992C167.742 15.9137 169.599 17.0152 171.478 18.1603C173.338 19.3213 175.163 20.5543 176.954 21.8841C178.733 23.2353 180.496 24.6451 182.169 26.364C183.006 27.2337 183.831 28.1558 184.611 29.3363C184.999 29.9297 185.376 30.5969 185.688 31.4408C185.99 32.2696 186.263 33.3543 186.095 34.7134L185.903 36.2777L184.469 37.2211C182.422 38.5687 180.538 39.0635 178.724 39.4686C176.915 39.8479 175.17 40.0309 173.452 40.1197C171.734 40.2166 170.043 40.2041 168.366 40.1278C166.671 40.0274 165.07 39.9243 163.302 39.6578L164.362 31.7331Z" fill="#FFC6C0"/>
<path d="M167.602 16.6688L164.348 12.5736L161.905 18.4233C161.905 18.4233 164.871 21.9126 168.004 20.1511L167.602 16.6688Z" fill="#FFC6C0"/>
<path d="M160.029 10.4443L159.481 17.1023L161.905 18.4233L164.348 12.5737L160.029 10.4443Z" fill="#FFC6C0"/>
<path d="M156.036 11.2927L160.996 9.23532C161.364 9.08253 161.751 9.24243 161.86 9.59154L165.06 19.8153C165.169 20.1644 164.96 20.5722 164.591 20.725L159.631 22.7814C159.263 22.9351 158.875 22.7752 158.766 22.4261L155.567 12.2023C155.457 11.8523 155.668 11.4455 156.036 11.2927Z" fill="#444444"/>
<path d="M158.959 41.4923C162.561 45.8593 177.34 41.7641 177.34 41.7641L176.089 31.7455C176.089 31.7455 172.364 30.628 164.969 30.3971C157.376 30.1599 155.007 36.7006 158.959 41.4923Z" fill="#AE41D9"/>
<path d="M180.28 203.65L180.453 200.85H180.456L180.283 203.65H180.28Z" fill="#C3C5C2"/>
<path d="M180.283 203.65L180.455 200.85L185.988 200.285L185.814 203.101L180.283 203.65Z" fill="#B35349"/>
<path d="M148.668 206.842L149.269 200.189H149.271L148.671 206.842H148.668ZM154.53 201.804L154.724 199.64H154.725L154.53 201.804Z" fill="#C3C5C2"/>
<path d="M148.671 206.842L149.271 200.189L154.724 199.64L154.53 201.804L154.123 206.292L148.671 206.842Z" fill="#B35349"/>
<path d="M170.312 33.1837C172.459 38.7615 177.719 55.3804 175.888 80.4978L146.719 83.4355C145.959 78.9779 145.814 54.5711 138.858 33.905C138.858 33.905 143.733 32.3975 148.468 31.6886C152.173 31.1334 157.554 30.4707 160.868 30.4396C163.254 30.4174 165.591 30.6182 167.222 30.8065C168.613 30.9664 169.809 31.8725 170.312 33.1837Z" fill="#AE41D9"/>
<path d="M145.452 68.0773C145.347 66.9935 145.231 65.8751 145.116 64.7194C146.17 63.1391 147.58 61.3704 149.422 59.4605C158.22 50.3107 158.078 47.6902 157.963 37.8928C158.345 37.8386 158.725 37.7942 159.106 37.7417L159.11 37.74C159.43 37.74 163.228 52.8247 153.037 61.3526C150.751 63.2537 147.73 65.9897 145.452 68.0773Z" fill="#8406B6"/>
<path d="M144.601 60.2529C143.668 52.8647 142.153 44.3429 139.525 35.9633L139.52 35.9225C140.1 35.8034 140.836 35.696 141.602 35.696C143.342 35.696 145.241 36.2494 145.846 38.4764C146.765 41.9 146.708 50.3196 144.601 60.2529Z" fill="#8406B6"/>
<path d="M148.639 19.9263C149.921 23.8385 150.927 28.7447 148.468 31.6887C148.468 31.6887 150.578 35.5742 157.991 34.828C164.765 34.1449 160.868 30.4397 160.868 30.4397C156.286 29.8249 155.831 24.2996 156.218 21.1211L148.639 19.9263Z" fill="#FFC6C0"/>
<path d="M158.309 34.4709L160.093 36.0895C160.22 36.2058 160.276 36.379 160.24 36.5443L159.884 38.1655C159.843 38.3511 159.693 38.4897 159.504 38.5181L157.784 38.7767C157.62 38.8006 157.452 38.7367 157.344 38.607L156.158 37.1883C156.02 37.0222 156.008 36.7859 156.131 36.6145L157.611 34.5376C157.773 34.311 158.098 34.2808 158.309 34.4709Z" fill="#444444"/>
<path d="M157.763 34.4034C156.842 37.0951 154.849 39.8835 154.849 39.8835C154.849 39.8835 147.644 36.5949 147.205 31.9019C147.189 31.7287 147.269 31.559 147.407 31.4524C147.683 31.2392 148.178 30.8519 148.643 30.453C148.884 30.246 149.251 30.2993 149.409 30.5747C149.981 31.5741 151.842 33.5693 157.763 34.4034Z" fill="white"/>
<path d="M158.015 34.3492C160.401 36.0832 161.713 38.5697 161.713 38.5697C161.713 38.5697 164.021 35.0483 162.348 30.549C162.289 30.3926 162.158 30.2718 161.998 30.2283C161.689 30.1439 161.134 30.0026 160.514 29.8925C160.179 29.833 159.874 30.1164 159.919 30.4557C160.058 31.4782 160.017 33.404 158.015 34.3492Z" fill="white"/>
<path d="M159.059 37.6769C159.339 37.5525 162.211 51.1431 152.3 59.4019C148.26 62.7686 141.773 68.7817 141.779 68.7693C142.383 66.3797 144.277 62.6958 149.039 57.8615C157.641 49.1301 157.631 46.7601 157.985 37.8715C158.343 37.8066 158.701 37.7417 159.059 37.6769Z" fill="#444444"/>
<path d="M157.071 27.6717C157.07 27.6717 157.07 27.6717 157.069 27.6717C156.944 27.4229 156.833 27.1644 156.736 26.8997C156.834 27.1644 156.945 27.4229 157.071 27.6717ZM156.115 22.5638C156.127 22.0512 156.164 21.5653 156.218 21.1229L156.223 21.1238C156.167 21.5653 156.128 22.0512 156.115 22.5638Z" fill="#C3C5C2"/>
<path d="M157.069 27.6717C156.403 27.6406 155.708 27.5073 155.007 27.2612C152.351 26.3303 150.883 24.5945 149.25 21.9615C149.065 21.2641 148.859 20.5837 148.641 19.9281L156.218 21.1229C156.164 21.5653 156.127 22.0512 156.115 22.5638C156.078 23.9478 156.227 25.521 156.736 26.8997C156.833 27.1644 156.944 27.4229 157.069 27.6717Z" fill="#B35349"/>
<path d="M153.232 7.80419C154.289 -0.554979 160.421 8.29189 158.717 12.4493C157.673 14.9925 152.977 9.81714 153.232 7.80419Z" fill="#444444"/>
<path d="M144.795 15.3896C146.898 20.4735 147.873 23.5516 151.378 25.3709C156.65 28.1069 162.154 23.6715 161.592 18.0946C161.085 13.0764 157.732 5.60381 152.007 5.17386C146.367 4.74924 142.693 10.3048 144.795 15.3896Z" fill="#FFC6C0"/>
<path d="M147.165 20.3012C149.396 20.0462 149.986 17.6975 149.986 17.6975C149.222 17.3804 147.149 16.3304 146.197 14.7527C146.197 14.7527 148.449 11.5103 148.211 9.63502C151.1 9.60748 157.866 6.84033 156.337 3.74095C154.809 0.640684 148.721 -0.888128 145.184 1.29894C141.647 3.48511 139.225 3.6015 137.6 3.60239C138.626 4.29351 140.191 4.62928 140.191 4.62928C140.191 4.62928 137.012 7.40086 137.209 12.1818C137.374 16.158 135.218 17.7561 135.218 17.7561C135.218 17.7561 137.844 18.1576 138.691 16.9842C138.33 18.2802 140.518 22.8231 145.332 23.4556C150.716 24.1627 147.165 20.3012 147.165 20.3012Z" fill="#444444"/>
<path d="M144.955 22.7334C146.953 23.6466 148.491 23.9256 149.533 23.3251C150.697 22.6526 150.267 20.621 148.957 19.4733C147.779 18.4401 145.456 17.4568 144.11 18.5769C142.785 19.682 142.903 21.7954 144.955 22.7334Z" fill="#FFC6C0"/>
<path d="M175.888 80.4979C175.888 80.4979 188.437 121.857 189.322 137.489C190.292 154.606 187.833 200.097 187.833 200.097L177.97 201.104C177.97 201.104 176.127 157.789 173.63 141.036C170.919 122.852 157.301 82.3936 157.301 82.3936L175.888 80.4979Z" fill="#444444"/>
<path d="M171.63 131.03C171.265 129.47 170.87 127.855 170.451 126.203C170.87 127.85 171.266 129.463 171.63 131.021C171.63 131.024 171.63 131.027 171.63 131.03Z" fill="#C3C5C2"/>
<path d="M171.63 131.021C171.266 129.463 170.87 127.85 170.451 126.203C169.046 120.669 167.373 114.724 165.703 109.061L167.249 99.9967C167.249 99.9967 172.617 114.472 171.63 131.021Z" fill="#111D23"/>
<path d="M177.158 198.646L177.473 202.299L188.502 201.188L188.824 197.055L177.158 198.646Z" fill="#AE41D9"/>
<path d="M165.541 81.5399C165.541 81.5399 169.628 118.519 168.183 134.477C166.599 151.953 156.507 204.221 156.507 204.221L146.519 205.226C146.519 205.226 152.009 154.821 152.016 137.676C152.023 119.067 146.719 83.4365 146.719 83.4365L165.541 81.5399Z" fill="#444444"/>
<path d="M146.194 202.028L146.045 205.464L157.024 204.358L158.146 200.46L146.194 202.028Z" fill="#AE41D9"/>
<path d="M153.065 14.3077C153.21 14.7296 153.549 14.9997 153.822 14.9108C154.095 14.822 154.197 14.408 154.052 13.9852C153.907 13.5632 153.567 13.2923 153.294 13.382C153.022 13.4709 152.919 13.8848 153.065 14.3077Z" fill="#444444"/>
<path d="M157.778 12.7708C157.925 13.1937 158.263 13.4637 158.536 13.3749C158.809 13.286 158.912 12.8721 158.766 12.4492C158.621 12.0264 158.282 11.7563 158.009 11.8452C157.737 11.934 157.633 12.3489 157.778 12.7708Z" fill="#444444"/>
<path d="M156.353 13.469C156.353 13.469 158.141 15.5975 159.59 16.4325C159.092 17.3706 157.728 17.4612 157.728 17.4612L156.353 13.469Z" fill="#D8413B"/>
<path d="M156.677 19.1934L156.752 19.0264L156.584 18.9483C154.771 19.5994 153.442 18.6222 153.427 18.6125L153.247 18.6373L153.276 18.8194C153.334 18.863 154.734 19.8917 156.677 19.1934Z" fill="#444444"/>
<path d="M151.113 13.2301L151.275 13.0684C151.631 11.9713 152.549 11.7306 152.558 11.7288C152.689 11.7022 152.779 11.5538 152.741 11.4143C152.703 11.274 152.561 11.1887 152.423 11.2225C152.373 11.2349 151.222 11.5343 150.781 12.8961C150.737 13.0329 150.813 13.1812 150.948 13.2283L151.113 13.2301Z" fill="#444444"/>
<path d="M159.313 10.3893L159.407 10.3226C159.502 10.2169 159.491 10.0526 159.383 9.95487C158.304 8.97859 157.148 9.26196 157.098 9.27439C156.963 9.3046 156.88 9.45118 156.919 9.59153C156.957 9.73011 157.1 9.81451 157.237 9.77987C157.276 9.7701 158.18 9.55955 159.042 10.3386C159.119 10.4079 159.224 10.4239 159.313 10.3893Z" fill="#444444"/>
<path d="M135.386 42.9198L142.81 45.9295C142.81 45.9295 136.69 64.1615 138.009 66.6311C139.805 69.9916 144.581 75.3456 147.421 78.9078C147.328 79.8138 146.363 82.0364 145.674 82.525C139.707 79.6762 130.295 70.7529 129.812 67.3328C128.71 59.536 135.386 42.9198 135.386 42.9198Z" fill="#FFC6C0"/>
<path d="M138.858 33.905C132.782 35.8789 131.935 49.4081 131.935 49.4081L141.326 54.2398C141.326 54.2398 145.429 49.6977 146.994 43.1445C148.633 36.2787 144.186 32.1746 138.858 33.905Z" fill="#AE41D9"/>
<path d="M156.463 210.878L156.634 210.893C156.671 210.907 156.715 210.936 156.734 211.036C156.773 211.24 156.735 211.4 156.617 211.524C156.351 211.804 155.643 211.909 154.693 211.816C155.265 211.398 156.045 210.92 156.463 210.878ZM155.793 212.087C156.208 212.045 156.588 211.936 156.808 211.705C156.983 211.52 157.044 211.28 156.99 210.994C156.949 210.781 156.823 210.69 156.723 210.65C156.088 210.403 154.458 211.66 154.273 211.804L154.232 211.941L154.342 212.035C154.732 212.089 155.289 212.138 155.793 212.087Z" fill="#AE41D9"/>
<path d="M155.197 209.714L155.255 209.712C155.426 209.715 155.45 209.791 155.461 209.823C155.574 210.176 154.991 211.15 154.483 211.632C154.49 211.165 154.549 210.229 154.914 209.858C154.997 209.773 155.09 209.725 155.197 209.714ZM154.373 212.037L154.432 212.015C154.958 211.652 155.899 210.347 155.709 209.749C155.673 209.641 155.569 209.459 155.254 209.453C155.05 209.449 154.873 209.523 154.725 209.673C154.157 210.256 154.223 211.843 154.227 211.91L154.3 212.022L154.373 212.037Z" fill="#AE41D9"/>
<path d="M188.835 207.595C188.935 207.584 189.019 207.591 189.082 207.617L189.18 207.747C189.215 207.921 189.181 208.062 189.076 208.179C188.778 208.51 187.887 208.651 186.658 208.573C187.367 208.137 188.318 207.646 188.835 207.595ZM187.989 208.822C188.53 208.768 189.021 208.635 189.271 208.354C189.432 208.176 189.487 207.956 189.434 207.701C189.404 207.549 189.316 207.437 189.179 207.379C188.471 207.074 186.418 208.409 186.185 208.562L186.134 208.702L186.25 208.801C186.723 208.846 187.388 208.884 187.989 208.822Z" fill="#AE41D9"/>
<path d="M187.329 206.455L187.408 206.451C187.643 206.452 187.669 206.541 187.678 206.57C187.784 206.935 187.014 207.951 186.393 208.423C186.409 207.986 186.494 207.087 186.902 206.669C187.025 206.542 187.165 206.472 187.329 206.455ZM186.276 208.8L186.327 208.784C186.948 208.422 188.104 207.112 187.928 206.504C187.887 206.362 187.761 206.192 187.402 206.193C187.14 206.186 186.903 206.291 186.713 206.486C186.091 207.125 186.128 208.608 186.129 208.672L186.198 208.784L186.276 208.8Z" fill="#AE41D9"/>
<path d="M146.082 78.142L151.302 78.317L148.077 83.7732C148.077 83.7732 143.514 83.4676 143.056 79.8956L146.082 78.142Z" fill="#FFC6C0"/>
<path d="M153.746 80.1434L150.58 84.9359L148.077 83.7731L151.302 78.317L153.746 80.1434Z" fill="#FFC6C0"/>
</svg>
