<svg width="366" height="273" viewBox="0 0 366 273" fill="none" xmlns="http://www.w3.org/2000/svg">
<path d="M109.314 157.317C101.041 149.646 86.3677 150.549 79.095 159.168C76.222 162.567 74.2816 167.019 70.3331 169.08C64.3164 172.246 56.976 168.253 50.1771 168.832C42.2049 169.516 35.6617 177.601 36.6394 185.536C37.0907 189.116 38.7829 192.936 37.1057 196.118C34.9623 200.187 28.7575 200.352 26.1478 204.143C23.7937 207.557 25.6288 212.611 29.0433 214.973C32.4578 217.334 36.8801 217.62 41.0241 217.432C45.1682 217.244 49.3874 216.68 53.4336 217.582C57.8935 218.598 61.7443 221.343 65.9861 223.028C76.222 227.127 88.1352 224.87 97.5965 219.23C107.058 213.589 114.361 205.015 120.746 196.058" fill="#AE41D9"/>
<g opacity="0.8">
<path d="M109.314 157.317C101.041 149.646 86.3677 150.549 79.095 159.168C76.222 162.567 74.2816 167.019 70.3331 169.08C64.3164 172.246 56.976 168.253 50.1771 168.832C42.2049 169.516 35.6617 177.601 36.6394 185.536C37.0907 189.116 38.7829 192.936 37.1057 196.118C34.9623 200.187 28.7575 200.352 26.1478 204.143C23.7937 207.557 25.6288 212.611 29.0433 214.973C32.4578 217.334 36.8801 217.62 41.0241 217.432C45.1682 217.244 49.3874 216.68 53.4336 217.582C57.8935 218.598 61.7443 221.343 65.9861 223.028C76.222 227.127 88.1352 224.87 97.5965 219.23C107.058 213.589 114.361 205.015 120.746 196.058" fill="white"/>
</g>
<path d="M107.283 167.749C100.515 161.146 88.0299 162.078 82.3516 169.599C78.8769 174.194 76.8914 181.249 71.183 182.001C67.3097 182.52 63.6621 179.609 59.7512 179.91C54.5693 180.309 51.4256 186.626 52.7568 191.65C54.088 196.674 58.5178 200.299 63.1507 202.653C79.2304 210.806 100.65 206.497 112.322 192.748" fill="#AE41D9"/>
<path d="M260.492 184.566L251.79 172.231L263.109 164.206L271.036 180.309L261.018 184.453" fill="#FFBE9D"/>
<path d="M270.562 178.098L276.722 189.206C276.722 189.206 290.079 186.679 291.418 188.627L270.307 201.337L260.003 184.415L270.562 178.098Z" fill="#AE41D9"/>
<g opacity="0.6">
<path d="M269.645 192.222C269.479 192.407 269.387 192.646 269.387 192.895C269.387 193.143 269.479 193.383 269.645 193.568C269.825 193.738 270.063 193.832 270.311 193.832C270.558 193.832 270.796 193.738 270.976 193.568C271.154 193.374 271.252 193.12 271.252 192.857C271.252 192.594 271.154 192.341 270.976 192.147C270.773 191.985 270.515 191.909 270.257 191.935C269.999 191.96 269.76 192.084 269.592 192.282" fill="white"/>
</g>
<g opacity="0.6">
<path d="M270.307 201.337L269.337 199.592L289.944 188.055C289.944 188.055 291.125 187.897 291.448 188.627L270.307 201.337Z" fill="white"/>
</g>
<path d="M277.03 188.898C277.091 189.003 276.602 189.357 276.278 189.996C275.955 190.635 275.962 191.229 275.842 191.244C275.722 191.259 275.519 190.575 275.902 189.808C276.286 189.041 276.963 188.77 277.03 188.898Z" fill="#263238"/>
<path d="M279.768 188.476C279.851 188.567 279.512 189.01 279.422 189.657C279.332 190.304 279.512 190.823 279.422 190.883C279.332 190.943 278.896 190.394 279.024 189.59C279.151 188.785 279.708 188.379 279.768 188.476Z" fill="#263238"/>
<path d="M282.619 190.372C282.536 190.447 282.085 190.018 282.009 189.296C281.934 188.574 282.28 188.055 282.378 188.115C282.476 188.176 282.378 188.657 282.423 189.251C282.468 189.845 282.716 190.274 282.619 190.372Z" fill="#263238"/>
<path d="M275.316 186.514C275.316 186.634 274.774 186.777 274.21 187.168C273.646 187.559 273.308 188.01 273.202 187.958C273.097 187.905 273.308 187.266 273.954 186.822C274.601 186.378 275.316 186.408 275.316 186.514Z" fill="#263238"/>
<path d="M274.022 184.302C274.022 184.34 273.684 184.648 272.962 184.934C272.54 185.096 272.101 185.204 271.653 185.258C271.388 185.288 271.122 185.303 270.856 185.303C270.696 185.306 270.536 185.286 270.382 185.243C270.27 185.211 270.172 185.142 270.104 185.048C270.036 184.954 270.001 184.84 270.006 184.724C270.013 184.621 270.045 184.522 270.098 184.434C270.152 184.346 270.226 184.273 270.314 184.22C270.449 184.141 270.593 184.077 270.743 184.032C271.003 183.953 271.27 183.897 271.54 183.866C271.994 183.809 272.454 183.827 272.901 183.919C273.32 183.962 273.715 184.13 274.037 184.4C274.037 184.46 273.578 184.28 272.856 184.212C272.437 184.157 272.012 184.157 271.593 184.212C271.338 184.255 271.087 184.315 270.841 184.393C270.585 184.468 270.389 184.581 270.397 184.716C270.405 184.851 270.397 184.784 270.487 184.821C270.6 184.851 270.717 184.864 270.833 184.859C271.084 184.878 271.335 184.878 271.585 184.859C272.01 184.823 272.431 184.748 272.841 184.633C273.225 184.492 273.62 184.381 274.022 184.302Z" fill="#263238"/>
<path d="M274.022 184.528C274.022 184.528 273.571 184.317 273.135 183.678C272.879 183.297 272.691 182.875 272.578 182.43C272.512 182.166 272.474 181.896 272.465 181.625C272.437 181.452 272.454 181.274 272.514 181.109C272.575 180.944 272.677 180.798 272.811 180.685C272.905 180.627 273.013 180.596 273.123 180.596C273.234 180.596 273.342 180.627 273.435 180.685C273.561 180.779 273.674 180.888 273.774 181.008C273.954 181.222 274.099 181.463 274.203 181.723C274.382 182.153 274.455 182.62 274.413 183.084C274.33 183.881 273.969 184.265 273.939 184.235C274.026 183.851 274.084 183.461 274.112 183.069C274.112 182.656 274.022 182.248 273.849 181.873C273.748 181.659 273.619 181.459 273.466 181.279C273.3 181.068 273.105 180.941 273.029 181.016C272.963 181.094 272.915 181.185 272.888 181.284C272.86 181.383 272.855 181.486 272.871 181.587C272.888 182.253 273.064 182.906 273.383 183.49C273.691 184.159 274.022 184.483 274.022 184.528Z" fill="#263238"/>
<path d="M228.272 140.719L255.295 183.197L270.081 173.149L245.179 121.977" fill="#263238"/>
<path d="M230.453 131.4C230.566 131.453 229.762 133.175 229.378 135.462C228.994 137.748 229.145 139.636 229.024 139.643C228.475 136.804 228.983 133.861 230.453 131.37V131.4Z" fill="#FFBF00"/>
<path d="M227.678 131.521C227.799 131.521 227.678 133.386 227.987 135.642C228.295 137.898 228.867 139.666 228.739 139.703C227.57 137.145 227.196 134.294 227.663 131.521H227.678Z" fill="#FFBF00"/>
<path d="M122.852 140.591L104.305 134.875C81.9454 163.357 83.4346 194.644 119.445 213.168L139.42 190.77L122.852 140.591Z" fill="#263238"/>
<path d="M124.672 136.056C112.804 142.975 106.907 157.566 108.351 171.833C109.938 187.491 120.28 202.759 139.247 206.978L266.749 181.49C272.012 180.438 276.999 178.304 281.395 175.224C285.79 172.144 289.497 168.184 292.282 163.596C295.066 159.008 296.867 153.891 297.57 148.57C298.273 143.249 297.864 137.84 296.367 132.686V132.686C293.586 123.117 287.225 114.987 278.606 109.985C269.986 104.984 259.771 103.495 250.083 105.829L124.672 136.056Z" fill="#E0E0E0"/>
<path d="M124.672 136.056C124.672 136.056 125.07 135.943 125.853 135.747L129.335 134.89L142.745 131.611L192.097 119.653L226.182 111.38L245.172 106.792L250.106 105.604L252.633 105.122C253.054 105.047 253.482 104.957 253.904 104.889L255.197 104.769C256.062 104.701 256.927 104.596 257.799 104.558H260.424C261.307 104.561 262.189 104.624 263.064 104.746L264.38 104.882L265.042 104.949L265.696 105.085L268.321 105.611C269.194 105.814 270.044 106.115 270.908 106.363C271.337 106.498 271.773 106.611 272.202 106.762L273.458 107.273L274.722 107.785C275.148 107.943 275.563 108.132 275.962 108.349C276.775 108.76 277.587 109.181 278.399 109.612C279.197 110.048 279.949 110.59 280.731 111.071C281.114 111.327 281.483 111.56 281.889 111.823L282.98 112.681L284.078 113.538L284.619 113.967L285.13 114.448C290.823 119.568 294.891 126.243 296.833 133.649C298.847 141.329 298.448 149.443 295.69 156.889C292.843 164.545 287.673 171.119 280.904 175.691C278.05 177.624 274.945 179.157 271.676 180.249C268.434 181.384 265.057 181.881 261.771 182.573L242.216 186.476L204.83 194.034L139.262 207.106H139.202C135.855 206.326 132.605 205.173 129.515 203.669C123.821 200.801 118.943 196.543 115.331 191.289C113.704 188.88 112.321 186.316 111.202 183.633C110.924 182.986 110.713 182.324 110.45 181.678C110.202 181.038 109.988 180.385 109.81 179.722C109.63 179.065 109.449 178.419 109.269 177.782C109.126 177.127 108.991 176.481 108.855 175.841C108.709 175.209 108.598 174.569 108.524 173.924C108.434 173.292 108.351 172.66 108.269 172.036C108.186 171.412 108.171 170.787 108.126 170.171C108.081 169.554 108.043 168.952 108.058 168.343C107.967 163.925 108.591 159.52 109.908 155.302C110.951 151.922 112.471 148.708 114.421 145.758C115.845 143.583 117.544 141.602 119.475 139.861C119.873 139.508 120.227 139.162 120.588 138.869L121.618 138.079L122.498 137.409L123.25 136.921C124.168 136.341 124.642 136.056 124.642 136.056C124.642 136.056 124.183 136.372 123.273 136.958L122.521 137.455L121.656 138.131L120.633 138.929C120.272 139.222 119.881 139.575 119.535 139.921C117.623 141.673 115.94 143.66 114.526 145.833C112.598 148.778 111.097 151.981 110.066 155.347C108.769 159.554 108.16 163.942 108.261 168.343C108.253 168.951 108.278 169.558 108.336 170.163C108.381 170.772 108.412 171.389 108.479 172.013C108.547 172.637 108.652 173.262 108.735 173.893C108.816 174.533 108.928 175.168 109.073 175.796C109.209 176.435 109.344 177.075 109.487 177.722C109.63 178.368 109.848 179.008 110.036 179.654C110.211 180.312 110.422 180.96 110.668 181.595C110.916 182.234 111.127 182.896 111.42 183.543C112.54 186.204 113.921 188.749 115.541 191.139C119.145 196.36 124.009 200.587 129.681 203.428C132.746 204.913 135.967 206.051 139.285 206.82H139.217L204.777 193.681L242.133 186.205L261.688 182.294C264.982 181.602 268.344 181.106 271.54 179.985C274.777 178.904 277.852 177.386 280.678 175.473C287.387 170.94 292.508 164.42 295.321 156.828C298.048 149.457 298.444 141.426 296.457 133.822C294.538 126.486 290.511 119.874 284.875 114.802L284.371 114.328L283.829 113.899L282.746 113.049L281.663 112.199C281.295 111.929 280.911 111.695 280.52 111.447C279.768 110.966 279.016 110.439 278.204 109.996L275.797 108.747C275.4 108.531 274.988 108.345 274.564 108.191L273.315 107.679L272.074 107.175C271.653 107.025 271.217 106.912 270.796 106.777C269.938 106.529 269.096 106.235 268.231 106.025L265.629 105.498L264.982 105.37L264.328 105.295L263.019 105.16C262.154 105.041 261.282 104.978 260.409 104.972H257.807C256.942 105.009 256.085 105.115 255.227 105.182L253.949 105.295C253.52 105.363 253.106 105.453 252.685 105.528L250.181 106.002L245.247 107.183L226.257 111.748L192.172 119.938L142.797 131.761L129.365 134.965L125.86 135.785C125.108 135.973 124.672 136.056 124.672 136.056Z" fill="#263238"/>
<path d="M139.247 206.978L122.438 245.222C122.438 245.222 201.776 237.566 198.399 195.155L139.247 206.978Z" fill="#AE41D9"/>
<path d="M184.719 121.585C184.719 121.585 146.565 84.56 98.0703 100.158L124.672 136.056L184.719 121.585Z" fill="#AE41D9"/>
<path d="M254.378 105.288C270.743 117.366 280.761 164.379 272.871 179.316C319.275 165.778 329 125.917 329 125.917C295.457 94.6906 254.378 105.288 254.378 105.288Z" fill="#AE41D9"/>
<path d="M115.391 189.522C115.474 189.59 112.924 192.643 109.69 196.336C106.456 200.029 103.779 202.962 103.673 202.894C103.568 202.826 106.148 199.773 109.374 196.08C112.601 192.387 115.331 189.417 115.391 189.522Z" fill="#FFBF00"/>
<path d="M329 125.918C329 125.918 328.91 126.091 328.714 126.421L327.842 127.926L326.398 130.295C326.12 130.769 325.811 131.272 325.48 131.799L324.33 133.453C323.51 134.619 322.615 135.928 321.592 137.327L318.05 141.726C317.388 142.479 316.666 143.231 315.936 144.043C315.207 144.855 314.477 145.69 313.635 146.472C311.973 148.052 310.258 149.774 308.257 151.361C303.979 154.932 299.306 158 294.329 160.506C291.566 161.91 288.715 163.131 285.792 164.161C284.288 164.71 282.731 165.184 281.212 165.741C279.619 166.242 277.999 166.656 276.361 166.982C263.215 169.892 248.714 172.871 233.492 176.007C203.1 182.324 175.498 187.927 155.568 191.959L131.929 196.712L125.499 197.983L123.822 198.306C123.446 198.374 123.25 198.397 123.25 198.397C123.25 198.397 123.438 198.344 123.814 198.261L125.477 197.908L131.899 196.561L155.515 191.688L233.454 175.646C248.669 172.487 263.169 169.516 276.324 166.621C277.946 166.301 279.55 165.894 281.129 165.402C282.679 164.838 284.22 164.372 285.717 163.823C288.628 162.803 291.467 161.589 294.216 160.19C299.167 157.697 303.818 154.646 308.077 151.098C310.077 149.526 311.792 147.811 313.462 146.247C314.304 145.494 315.011 144.607 315.763 143.832C316.515 143.058 317.215 142.283 317.884 141.531L321.441 137.161C322.472 135.77 323.374 134.469 324.202 133.318L325.367 131.679C325.698 131.137 326.014 130.641 326.3 130.174L327.804 127.82L328.714 126.384C328.925 126.083 329 125.918 329 125.918Z" fill="#263238"/>
<path d="M208.244 193.282C208.195 193.236 208.149 193.186 208.109 193.132L207.74 192.666L206.334 190.815L205.371 189.522C205.018 189.033 204.672 188.476 204.281 187.897C203.529 186.717 202.581 185.415 201.731 183.859C201.287 183.107 200.829 182.287 200.34 181.452C199.851 180.617 199.445 179.7 198.963 178.782C197.978 176.939 197.128 174.886 196.188 172.765C194.289 168.056 192.763 163.205 191.623 158.257C190.554 153.292 189.877 148.25 189.6 143.178C189.54 140.839 189.442 138.613 189.555 136.53C189.592 135.492 189.592 134.484 189.668 133.521C189.743 132.558 189.833 131.641 189.908 130.753C190.021 128.986 190.307 127.414 190.502 126.023C190.608 125.323 190.69 124.677 190.796 124.082C190.901 123.488 191.036 122.962 191.134 122.473C191.337 121.533 191.503 120.788 191.615 120.217C191.676 119.984 191.713 119.795 191.751 119.645C191.759 119.577 191.779 119.511 191.811 119.45C191.821 119.517 191.821 119.585 191.811 119.653L191.721 120.239C191.615 120.773 191.48 121.525 191.307 122.495C191.217 122.984 191.119 123.518 191.006 124.112C190.893 124.707 190.833 125.353 190.743 126.045C190.57 127.437 190.299 129.009 190.209 130.776C190.134 131.656 190.066 132.574 189.991 133.536C189.916 134.499 189.938 135.499 189.901 136.545C189.803 138.62 189.901 140.831 189.983 143.163C190.515 153.269 192.737 163.214 196.557 172.585C197.482 174.721 198.317 176.774 199.287 178.602C199.753 179.527 200.167 180.444 200.641 181.279L202.002 183.693C202.837 185.25 203.747 186.559 204.491 187.747C204.875 188.334 205.243 188.89 205.552 189.387L206.514 190.718L207.831 192.568C207.966 192.771 208.079 192.929 208.169 193.057C208.203 193.129 208.229 193.204 208.244 193.282V193.282Z" fill="#263238"/>
<path d="M172.422 153.783L92.4597 170.329C92.4597 170.329 92.0987 178.135 94.0616 178.203C95.7087 178.256 155.162 167.523 174.445 164.034C175.186 163.899 175.888 163.605 176.504 163.172C177.12 162.74 177.635 162.18 178.014 161.529C178.393 160.879 178.626 160.154 178.698 159.405C178.77 158.656 178.679 157.9 178.431 157.189C178.009 155.993 177.168 154.989 176.064 154.363C174.959 153.737 173.666 153.531 172.422 153.783V153.783Z" fill="#AE41D9"/>
<path d="M252.788 146.422C252.802 136.611 244.257 128.646 233.703 128.631C223.148 128.616 214.581 136.558 214.567 146.369C214.553 156.18 223.098 164.145 233.653 164.16C244.207 164.175 252.775 156.233 252.788 146.422Z" fill="#FAFAFA"/>
<path d="M252.791 146.42C252.779 146.32 252.779 146.219 252.791 146.119C252.791 145.908 252.753 145.615 252.723 145.246C252.723 145.051 252.723 144.84 252.678 144.607C252.633 144.374 252.595 144.111 252.55 143.855C252.505 143.599 252.445 143.276 252.392 142.96C252.339 142.644 252.211 142.313 252.121 141.96C251.898 141.19 251.624 140.436 251.301 139.703C250.895 138.831 250.422 137.991 249.887 137.191C248.573 135.247 246.898 133.572 244.954 132.258C242.606 130.646 239.929 129.577 237.117 129.129C236.351 128.996 235.577 128.914 234.801 128.881C234.409 128.881 234.011 128.836 233.612 128.881L232.401 128.933H231.785L231.175 129.024L229.942 129.197L228.709 129.49L228.092 129.64L227.483 129.843C224.042 130.942 220.988 133.004 218.683 135.785C216.185 138.764 214.816 142.528 214.816 146.416C214.816 150.304 216.185 154.067 218.683 157.047C220.965 159.808 223.986 161.864 227.392 162.973L228.002 163.176L228.618 163.327L229.844 163.627L231.078 163.8L231.694 163.891H232.304L233.514 163.958C233.913 163.958 234.312 163.958 234.71 163.913C235.487 163.885 236.26 163.808 237.027 163.68C239.838 163.235 242.517 162.174 244.871 160.574C246.817 159.262 248.495 157.59 249.812 155.648C250.354 154.853 250.829 154.016 251.234 153.143C251.562 152.411 251.839 151.658 252.061 150.887C252.159 150.533 252.264 150.203 252.339 149.887C252.415 149.571 252.445 149.27 252.497 148.992C252.55 148.713 252.587 148.465 252.633 148.24C252.678 148.014 252.633 147.788 252.678 147.593C252.678 147.224 252.73 146.931 252.745 146.72C252.735 146.62 252.735 146.52 252.745 146.42C252.755 146.52 252.755 146.62 252.745 146.72V147.6C252.745 147.796 252.745 148.014 252.745 148.247C252.745 148.48 252.67 148.743 252.625 148.999C252.58 149.255 252.535 149.578 252.482 149.902C252.43 150.225 252.317 150.556 252.226 150.91C252.014 151.7 251.745 152.474 251.422 153.226C251.021 154.113 250.548 154.966 250.008 155.776C248.693 157.757 247.007 159.465 245.044 160.807C242.663 162.447 239.948 163.539 237.094 164.003C236.317 164.143 235.53 164.228 234.74 164.259C234.342 164.259 233.936 164.304 233.529 164.304L232.296 164.244H231.672L231.055 164.154L229.799 163.981L228.543 163.68L227.911 163.53L227.295 163.319C223.785 162.199 220.673 160.092 218.33 157.25C215.766 154.207 214.359 150.357 214.359 146.378C214.359 142.4 215.766 138.549 218.33 135.507C220.682 132.679 223.8 130.59 227.31 129.49L227.934 129.279L228.566 129.129L229.814 128.836L231.07 128.663L231.694 128.572H232.319L233.545 128.512C233.951 128.512 234.357 128.55 234.755 128.565C235.545 128.596 236.332 128.681 237.109 128.821C239.963 129.291 242.676 130.391 245.052 132.04C247.012 133.388 248.694 135.102 250.008 137.086C250.542 137.9 251.01 138.755 251.407 139.643C251.729 140.395 251.995 141.169 252.204 141.96C252.294 142.313 252.399 142.652 252.467 142.967C252.535 143.283 252.557 143.592 252.603 143.87C252.648 144.148 252.685 144.411 252.715 144.622C252.745 144.833 252.715 145.081 252.715 145.276C252.715 145.645 252.715 145.938 252.715 146.149C252.749 146.236 252.774 146.327 252.791 146.42Z" fill="#263238"/>
<path d="M168.917 100.692C162.765 100.392 159.742 105.032 156.305 105.957C152.868 106.882 149.107 107.048 145.813 105.709C141.526 103.971 138.593 100.015 134.84 97.3155C127.319 91.9004 116.158 92.2163 108.953 98.0676C108.78 102.166 112.292 105.408 115.722 107.709C119.151 110.011 128.507 113.327 129.733 117.246C130.628 120.187 124.303 122.646 125.89 125.278C127.477 127.911 132.757 127.632 135.667 127.136C154.033 123.97 147.596 129.588 153.281 129.069C153.281 129.069 165.187 126.06 174.52 124.511" fill="#FFBF00"/>
<path d="M230.822 208.836L224.858 194.967L237.591 189.454L242.013 206.85L231.356 208.836" fill="#FFBE9D"/>
<path d="M242.013 204.564L245.736 216.702C245.736 216.702 259.334 216.988 260.236 219.169L236.959 227.239L230.401 208.587L242.013 204.564Z" fill="#AE41D9"/>
<g opacity="0.6">
<path d="M238.192 218.222C237.99 218.365 237.849 218.578 237.796 218.821C237.743 219.063 237.782 219.316 237.907 219.53C238.045 219.736 238.257 219.881 238.499 219.936C238.741 219.991 238.995 219.95 239.208 219.824C239.419 219.668 239.566 219.44 239.62 219.184C239.674 218.927 239.632 218.66 239.501 218.432C239.335 218.23 239.096 218.101 238.836 218.073C238.576 218.045 238.315 218.12 238.11 218.282" fill="white"/>
</g>
<g opacity="0.6">
<path d="M236.959 227.269L236.365 225.359L258.928 218.334C258.928 218.334 260.116 218.425 260.251 219.199L236.959 227.269Z" fill="white"/>
</g>
<path d="M246.074 216.484C246.112 216.597 245.563 216.845 245.127 217.409C244.691 217.973 244.563 218.545 244.442 218.538C244.322 218.53 244.262 217.785 244.796 217.146C245.33 216.507 246.067 216.372 246.074 216.484Z" fill="#263238"/>
<path d="M248.865 216.65C248.932 216.748 248.504 217.109 248.286 217.725C248.067 218.342 248.135 218.891 248.015 218.921C247.894 218.951 247.609 218.342 247.894 217.582C248.18 216.823 248.827 216.537 248.865 216.65Z" fill="#263238"/>
<path d="M251.264 219.087C251.174 219.147 250.82 218.635 250.895 217.913C250.97 217.191 251.414 216.755 251.497 216.83C251.58 216.906 251.362 217.357 251.309 217.951C251.256 218.545 251.377 219.041 251.264 219.087Z" fill="#263238"/>
<path d="M244.916 213.807C244.916 213.927 244.33 213.957 243.705 214.221C243.081 214.484 242.645 214.867 242.555 214.785C242.464 214.702 242.803 214.138 243.54 213.837C244.277 213.536 244.946 213.702 244.916 213.807Z" fill="#263238"/>
<path d="M244.119 211.378C243.773 211.613 243.371 211.751 242.953 211.776C242.505 211.846 242.051 211.862 241.599 211.821C241.334 211.798 241.07 211.758 240.81 211.701C240.655 211.671 240.505 211.618 240.366 211.543C240.262 211.49 240.179 211.403 240.131 211.296C240.083 211.19 240.073 211.07 240.103 210.957C240.132 210.858 240.183 210.768 240.254 210.693C240.325 210.619 240.412 210.562 240.509 210.528C240.656 210.472 240.811 210.442 240.968 210.438C241.238 210.411 241.51 210.411 241.78 210.438C242.234 210.481 242.678 210.595 243.096 210.776C243.811 211.084 244.142 211.445 244.111 211.483C244.081 211.521 243.69 211.272 242.998 211.047C242.593 210.923 242.173 210.85 241.75 210.829C241.5 210.806 241.248 210.806 240.998 210.829C240.727 210.829 240.516 210.919 240.494 211.054C240.471 211.19 240.494 211.122 240.562 211.175C240.667 211.225 240.778 211.263 240.893 211.287C241.14 211.347 241.392 211.392 241.645 211.423C242.069 211.475 242.497 211.488 242.923 211.46C243.319 211.399 243.719 211.371 244.119 211.378V211.378Z" fill="#263238"/>
<path d="M244.029 211.588C244.029 211.588 243.63 211.287 243.329 210.573C243.16 210.146 243.066 209.693 243.051 209.234C243.037 208.965 243.052 208.695 243.096 208.429C243.107 208.253 243.162 208.083 243.257 207.934C243.352 207.786 243.483 207.664 243.638 207.58C243.742 207.545 243.855 207.541 243.962 207.57C244.069 207.598 244.165 207.656 244.239 207.737C244.347 207.852 244.438 207.981 244.51 208.121C244.635 208.358 244.726 208.611 244.781 208.873C244.867 209.332 244.839 209.805 244.698 210.249C244.45 211.002 244.029 211.31 244.006 211.272C244.163 210.914 244.298 210.548 244.412 210.174C244.503 209.771 244.503 209.352 244.412 208.948C244.358 208.715 244.272 208.489 244.157 208.279C244.029 208.046 243.871 207.88 243.788 207.941C243.705 208.001 243.54 208.226 243.51 208.459C243.464 208.708 243.442 208.959 243.442 209.212C243.443 209.634 243.501 210.054 243.615 210.46C243.818 211.167 244.089 211.551 244.029 211.588Z" fill="#263238"/>
<path d="M169.918 101.159C169.918 101.159 158.892 123.007 166.308 128.129C173.723 133.25 208.349 159.28 208.349 159.28L226.016 206.429L242.562 199.66L228.769 144.396L193.969 113.139L169.918 101.159Z" fill="#263238"/>
<path d="M212.418 150.609C212.516 150.684 211.373 152.203 210.523 154.369C209.673 156.535 209.432 158.408 209.312 158.393C209.282 156.959 209.57 155.536 210.154 154.226C210.627 152.865 211.401 151.629 212.418 150.609V150.609Z" fill="#FFBF00"/>
<path d="M209.673 150.157C209.786 150.157 209.297 151.985 209.124 154.249C208.951 156.513 209.124 158.363 209.034 158.378C208.661 157.025 208.558 155.611 208.733 154.219C208.783 152.817 209.102 151.438 209.673 150.157V150.157Z" fill="#FFBF00"/>
<path d="M227.693 205.737C227.645 205.665 227.607 205.586 227.58 205.504L227.295 204.804C227.046 204.158 226.685 203.248 226.234 202.074C225.317 199.698 223.978 196.238 222.406 191.921C220.834 187.604 218.924 182.422 216.946 176.578C216.457 175.112 215.961 173.608 215.442 172.066C215.001 170.473 214.479 168.904 213.877 167.365C212.621 164.237 211.102 161.055 209.455 157.836L209.5 157.896C207.643 156.317 205.68 154.67 203.671 153.015C202.1 151.729 200.535 150.458 198.963 149.255L194.308 145.72C191.254 143.396 188.291 141.162 185.426 139.132C182.56 137.101 179.725 135.296 177.153 133.521C174.718 131.911 172.433 130.086 170.324 128.069C169.404 127.164 168.594 126.154 167.91 125.06C167.3 124.091 166.853 123.029 166.586 121.916C166.177 120.129 166.154 118.276 166.518 116.479C166.743 115.353 167.063 114.249 167.473 113.177C167.609 112.809 167.737 112.538 167.819 112.35C167.85 112.254 167.893 112.164 167.947 112.079C167.927 112.177 167.896 112.273 167.857 112.365C167.789 112.56 167.669 112.831 167.548 113.207C167.167 114.282 166.873 115.387 166.669 116.509C166.335 118.281 166.379 120.102 166.796 121.856C167.071 122.946 167.518 123.984 168.12 124.932C168.805 125.987 169.61 126.959 170.519 127.828C172.629 129.818 174.909 131.62 177.333 133.213C179.92 134.973 182.771 136.748 185.651 138.801C188.532 140.854 191.495 143.058 194.549 145.374L199.219 148.909C200.798 150.112 202.355 151.383 203.935 152.669C205.943 154.324 207.913 155.971 209.771 157.55C211.426 160.784 212.937 163.966 214.193 167.125C214.795 168.674 215.317 170.253 215.758 171.855C216.231 173.405 216.72 174.916 217.209 176.368C219.157 182.219 221.03 187.401 222.587 191.733C224.143 196.065 225.414 199.517 226.294 201.931L227.295 204.677C227.4 204.977 227.483 205.218 227.55 205.429C227.618 205.639 227.693 205.737 227.693 205.737Z" fill="#FFBF00"/>
<path d="M183.53 108.153L204.852 111.177L215.788 113.952L200.821 119.322L183.53 108.153Z" fill="#263238"/>
<path d="M157.448 106.604C157.448 106.604 157.313 106.807 157.012 107.115C156.581 107.554 156.124 107.966 155.643 108.349C152.46 110.909 148.616 112.513 144.557 112.974C143.948 113.047 143.335 113.085 142.722 113.087C142.498 113.1 142.273 113.085 142.053 113.042C142.053 112.974 143.008 112.936 144.527 112.703C146.501 112.39 148.432 111.847 150.28 111.086C152.121 110.31 153.863 109.318 155.47 108.131C156.696 107.213 157.365 106.559 157.448 106.604Z" fill="#263238"/>
<path d="M172.723 75.377L168.616 106.303C168.616 106.303 182.289 105.415 191.931 108.612C201.573 111.808 207.507 111.726 207.507 111.726L205.492 92.5021L212.682 76.7081L215.855 95.172L230.634 110.394L240.268 108.213L230.288 91.4867L223.354 57.402C222.765 54.5641 221.227 52.0118 218.992 50.1668L218.713 49.9337L204.183 41.8261L199.317 41.9239C195.196 42.0078 191.088 42.4279 187.035 43.1799C184.507 43.6517 182.188 44.8944 180.394 46.7373V46.7373C178.783 48.5524 177.624 50.7221 177.01 53.0699L172.723 75.377Z" fill="#AE41D9"/>
<path d="M218.834 62.4184C218.744 62.7587 218.626 63.0908 218.48 63.4112C218.187 64.1031 217.818 64.9981 217.375 66.0585C216.427 68.3148 215.118 71.3683 213.614 74.7527C212.11 78.1371 210.771 81.1154 209.756 83.4018L208.59 86.0416C208.453 86.3638 208.297 86.6777 208.124 86.9817C208.193 86.636 208.304 86.3 208.455 85.9814C208.695 85.3497 209.064 84.4772 209.53 83.319C210.47 81.0627 211.787 78.0093 213.291 74.6248C214.795 71.2404 216.149 68.1794 217.164 65.9833L218.367 63.3811C218.49 63.0452 218.646 62.7226 218.834 62.4184V62.4184Z" fill="#263238"/>
<path d="M177.837 57.0635C180.665 64.9379 186.11 82.943 188.757 89.8773C189.563 91.9875 190.925 93.8404 192.698 95.2397L222.03 115.99L228.799 107.183L206.815 85.9739L194.992 50.8663C193.323 46.1733 186.396 43.6387 182.086 46.1432C178.777 48.0685 176.536 53.4535 177.837 57.0635Z" fill="#AE41D9"/>
<path d="M195.504 52.3178C195.504 52.3178 195.594 52.5209 195.737 52.927C195.88 53.3332 196.09 53.9424 196.361 54.7095L198.708 61.4783L206.981 85.8837V85.816L228.979 107.002L229.107 107.123L229.002 107.266L224.128 113.598L222.218 116.073L222.105 116.223L221.955 116.11L199.415 99.9328L194.376 96.3002L193.165 95.4202C192.753 95.1422 192.363 94.833 191.999 94.4951C191.28 93.8267 190.651 93.0684 190.126 92.2389C189.631 91.4415 189.22 90.5946 188.9 89.7118L187.938 87.2375C187.316 85.5979 186.734 84.026 186.193 82.5218C184.027 76.5051 182.432 71.5789 181.357 68.1795C180.83 66.4948 180.424 65.1711 180.139 64.2611C180.011 63.8248 179.913 63.509 179.838 63.2457C179.762 62.9825 179.747 62.8922 179.747 62.8922C179.796 63.0028 179.838 63.1158 179.875 63.2307L180.214 64.2385C180.515 65.1485 180.966 66.4948 181.5 68.1343C182.628 71.5187 184.252 76.4073 186.449 82.4241C186.998 83.9282 187.584 85.5001 188.216 87.1246C188.532 87.9444 188.855 88.7717 189.186 89.6141C189.498 90.4783 189.904 91.3056 190.397 92.0809C190.911 92.8761 191.525 93.6015 192.225 94.2394C192.583 94.5679 192.965 94.8696 193.368 95.1419L194.586 96.0144L199.625 99.6319L222.128 115.817H221.857C222.459 115.065 223.113 114.192 223.76 113.343C225.437 111.177 227.084 109.033 228.641 107.01V107.273L206.68 86.0416V85.9965C203.303 75.8658 200.49 67.4499 198.52 61.546C197.557 58.6128 196.79 56.2814 196.263 54.7095C196.008 53.9574 195.82 53.3332 195.677 52.912C195.534 52.4908 195.504 52.3178 195.504 52.3178Z" fill="#263238"/>
<path d="M192.706 48.0309C192.653 48.0835 192.164 47.5646 191.202 46.9704C189.965 46.1924 188.547 45.747 187.088 45.6771C185.628 45.6073 184.174 45.9155 182.869 46.5718C181.861 47.0682 181.319 47.5345 181.282 47.4819C181.677 46.9933 182.175 46.5979 182.741 46.3236C184.069 45.5771 185.58 45.2176 187.103 45.2858C188.629 45.3592 190.103 45.8653 191.352 46.7448C191.892 47.0694 192.354 47.5084 192.706 48.0309V48.0309Z" fill="#263238"/>
<path d="M230.927 91.9305C230.927 92.0508 229.536 91.9305 227.919 92.3065C226.954 92.6053 226.005 92.9542 225.076 93.3519C225.828 92.6101 226.788 92.1143 227.829 91.9305C228.839 91.6233 229.917 91.6233 230.927 91.9305V91.9305Z" fill="#263238"/>
<path d="M181.665 68.909C181.665 68.909 181.567 68.9466 181.379 68.9917C181.191 69.0368 180.906 69.0744 180.56 69.112C179.654 69.21 178.738 69.1514 177.852 68.9391C176.97 68.7138 176.135 68.3344 175.385 67.8184C175.157 67.6642 174.938 67.4959 174.731 67.3145C174.581 67.1942 174.505 67.119 174.513 67.1115C175.535 67.8591 176.677 68.4264 177.89 68.7886C179.133 69.0374 180.409 69.0781 181.665 68.909Z" fill="#FAFAFA"/>
<path d="M183.959 75.6251C183.512 75.3216 183.048 75.0454 182.568 74.7978C181.383 74.2523 180.109 73.9286 178.807 73.8427C177.509 73.7603 176.205 73.7905 174.911 73.9329L173.731 74.0382C173.586 74.0532 173.439 74.0532 173.294 74.0382C173.435 73.9995 173.578 73.9718 173.723 73.9555L174.896 73.7975C176.198 73.6256 177.512 73.5803 178.822 73.6621C180.13 73.7519 181.408 74.0968 182.583 74.6775C182.939 74.8582 183.279 75.0696 183.598 75.3092C183.728 75.4025 183.849 75.5083 183.959 75.6251V75.6251Z" fill="#FAFAFA"/>
<g opacity="0.4">
<path d="M180.169 64.2234C180.169 64.2234 180.921 75.9936 181.793 81.4237C182.666 86.8538 184.395 92.3968 188.284 96.2625C192.172 100.128 197.783 101.911 203.213 103.031C201.463 101.708 199.743 100.344 198.053 98.94C195.88 97.1274 192.683 95.36 190.939 93.1413C187.562 88.8544 186.84 83.4544 185.102 78.2875C183.5 73.5268 181.763 68.9917 180.169 64.2234" fill="black"/>
</g>
<path d="M200.595 68.8413C200.403 68.9746 200.193 69.0809 199.971 69.1572C199.37 69.3676 198.735 69.462 198.098 69.4354C196.481 69.4354 194.338 68.6833 191.901 68.9015C189.199 69.1206 186.626 70.1538 184.523 71.8647L184.125 72.1956L183.982 72.3084C184.574 71.6837 185.247 71.14 185.982 70.6914C187.762 69.572 189.789 68.9058 191.886 68.751C194.361 68.5179 196.512 69.3226 198.098 69.3226C198.724 69.3624 199.351 69.2859 199.949 69.097C200.377 68.9616 200.58 68.8262 200.595 68.8413Z" fill="#FAFAFA"/>
<path d="M198.407 63.1705C198.407 63.1705 198.362 63.1705 198.264 63.2683L197.835 63.5165C197.459 63.7346 196.903 64.0204 196.196 64.3513C192.533 66.0544 188.561 66.9887 184.523 67.0964C183.771 67.0964 183.124 67.0964 182.688 67.0964H182.192C182.134 67.1057 182.076 67.1057 182.019 67.0964C182.076 67.0883 182.134 67.0883 182.192 67.0964H182.688C183.124 67.0964 183.749 67.0964 184.523 67.0964C188.552 66.9167 192.51 65.975 196.188 64.3212C196.895 64.0053 197.459 63.7346 197.843 63.5691L198.286 63.3435L198.407 63.1705Z" fill="#FAFAFA"/>
<path d="M215.066 69.3001L214.863 69.2549C214.669 69.2065 214.48 69.141 214.299 69.0594C213.621 68.762 212.998 68.3527 212.456 67.8485C211.027 66.6301 209.711 64.3438 207.5 62.5839C205.612 61.0715 203.418 59.9884 201.069 59.4101C200.358 59.2386 199.637 59.1105 198.911 59.0265L198.317 58.9739H198.106C199.12 58.9705 200.13 59.0918 201.114 59.3349C203.494 59.8814 205.719 60.9615 207.62 62.4936C208.653 63.3435 209.586 64.3073 210.403 65.3666C211.064 66.2264 211.783 67.0406 212.554 67.8034C213.081 68.3093 213.685 68.7281 214.344 69.0444C214.787 69.2249 215.073 69.2775 215.066 69.3001Z" fill="#FAFAFA"/>
<path d="M214.186 72.8875C213.973 72.8442 213.764 72.7838 213.561 72.707C213.016 72.481 212.508 72.1714 212.057 71.7895C211.387 71.2236 210.763 70.6049 210.192 69.9393C209.513 69.1176 208.758 68.3621 207.936 67.6831C207.099 67.0233 206.103 66.5953 205.048 66.4421C204.183 66.3212 203.307 66.3035 202.438 66.3895C201.686 66.4572 201.092 66.5474 200.678 66.6076L200.204 66.6753C200.147 66.6819 200.089 66.6819 200.031 66.6753L200.197 66.6301L200.671 66.5399C201.084 66.4647 201.678 66.3519 202.431 66.2767C203.307 66.1678 204.194 66.1678 205.07 66.2767C206.153 66.4268 207.176 66.863 208.034 67.5402C208.857 68.2393 209.613 69.0149 210.29 69.8566C210.841 70.535 211.444 71.1688 212.095 71.7519C212.547 72.1424 213.053 72.4643 213.599 72.707C213.968 72.8048 214.193 72.8725 214.186 72.8875Z" fill="#FAFAFA"/>
<path d="M225.715 70.4658C225.169 70.318 224.602 70.2621 224.038 70.3003C223.432 70.3565 222.835 70.4904 222.263 70.6989C221.609 70.9321 220.924 71.2555 220.187 71.5864C219.502 71.9067 218.786 72.1586 218.051 72.3385C217.442 72.4776 216.813 72.5082 216.194 72.4287C215.776 72.3751 215.373 72.2424 215.005 72.0377C214.868 71.9685 214.741 71.8798 214.629 71.7744C215.112 72.0636 215.65 72.2481 216.209 72.3159C216.815 72.384 217.429 72.3432 218.021 72.1956C218.745 72.0118 219.451 71.76 220.127 71.4435C220.879 71.1201 221.549 70.7892 222.218 70.5636C222.803 70.3581 223.412 70.2316 224.031 70.1875C224.45 70.1659 224.871 70.2064 225.279 70.3078C225.43 70.3442 225.576 70.3972 225.715 70.4658V70.4658Z" fill="#FAFAFA"/>
<path d="M226.896 74.5572C226.3 74.1008 225.578 73.8383 224.828 73.8051C224.019 73.7806 223.215 73.9267 222.466 74.2338C221.557 74.6355 220.696 75.1402 219.902 75.738C219.096 76.333 218.243 76.8612 217.352 77.3174C216.608 77.6806 215.801 77.8976 214.975 77.9566C214.42 77.996 213.863 77.9138 213.343 77.716C213.153 77.6451 212.974 77.549 212.809 77.4302C213.48 77.7626 214.229 77.9056 214.975 77.8438C215.78 77.7743 216.563 77.5523 217.284 77.1895C218.168 76.7295 219.013 76.1988 219.811 75.6026C220.619 75.0037 221.492 74.499 222.414 74.0984C223.18 73.7928 224.004 73.6568 224.828 73.6998C225.386 73.727 225.93 73.8868 226.415 74.1661C226.593 74.2722 226.756 74.4039 226.896 74.5572V74.5572Z" fill="#FAFAFA"/>
<g opacity="0.4">
<path d="M214.389 86.6658C215.893 80.5137 216.224 73.8803 216.449 67.495C215.908 69.7513 214.547 71.6391 213.704 73.7599C213.306 74.7753 212.666 76.6104 212.666 76.6104L214.366 86.5229" fill="black"/>
</g>
<path d="M204.461 14.2093C204.378 14.777 204.14 15.3108 203.774 15.7525C203.408 16.1942 202.928 16.5268 202.385 16.7138C201.769 16.9168 201.092 16.9169 200.483 17.1425C200.169 17.2325 199.895 17.4269 199.706 17.6935C199.517 17.9601 199.425 18.283 199.445 18.6091C199.542 19.0829 199.986 19.3611 200.347 19.7146C200.708 20.0681 201.039 20.5495 200.836 20.9932C200.633 21.4369 199.911 21.5197 199.55 21.9107C199.386 22.1428 199.305 22.4234 199.32 22.7073C199.335 22.9911 199.445 23.2617 199.633 23.4751C200.022 23.8857 200.471 24.2356 200.964 24.513C201.46 24.7963 201.825 25.2638 201.979 25.8141" fill="#444444"/>
<path d="M226.768 23.979C228.423 20.4893 227.219 16.1272 224.64 13.2392C222.06 10.3511 218.367 8.7266 214.652 7.65111C214.118 7.50069 213.449 7.38788 213.08 7.80153C212.937 8.00035 212.868 8.24279 212.884 8.48713C212.901 8.73147 213.002 8.96243 213.17 9.14025C213.522 9.48529 213.95 9.74291 214.419 9.89234C212.921 9.10111 211.267 8.6492 209.575 8.56866C208.985 8.52501 208.395 8.65299 207.876 8.93719C207.619 9.08493 207.417 9.31011 207.296 9.58038C207.176 9.85065 207.144 10.1521 207.206 10.4414C207.249 10.5789 207.324 10.7044 207.424 10.8078C207.524 10.9111 207.648 10.9894 207.784 11.0363C207.92 11.0832 208.065 11.0973 208.208 11.0776C208.351 11.0578 208.487 11.0048 208.605 10.9227C206.998 10.7479 205.379 11.1273 204.017 11.9982C203.047 12.6224 202.175 13.6829 202.408 14.8035C202.65 15.4322 202.931 16.0452 203.25 16.6386C203.641 17.8043 203.062 19.0453 202.619 20.196C201.869 21.9624 201.595 23.8938 201.821 25.7991C201.947 26.7522 202.282 27.6658 202.802 28.4745C203.322 29.2832 204.015 29.967 204.83 30.4771" fill="#444444"/>
<path d="M203.709 53.4686C202.717 53.2033 201.788 52.7421 200.976 52.1121C200.165 51.482 199.488 50.6959 198.986 49.8001C198.483 48.9042 198.165 47.9168 198.05 46.8961C197.935 45.8754 198.026 44.842 198.317 43.8568L205.213 20.4743C205.594 19.0482 206.258 17.7129 207.163 16.5473C208.069 15.3818 209.2 14.4096 210.487 13.6882C211.775 12.9668 213.195 12.5107 214.662 12.3471C216.129 12.1834 217.614 12.3154 219.029 12.7353L219.571 12.9308C222.2 13.8797 224.375 15.7844 225.663 18.2654C226.951 20.7464 227.257 23.6216 226.52 26.318C225.099 31.5225 223.467 37.2535 222.451 39.9459C220.353 45.534 214.419 44.3833 214.419 44.3833L212.967 48.5724C212.329 50.408 211.019 51.9339 209.302 52.8435C207.584 53.7531 205.586 53.9791 203.709 53.4761V53.4686Z" fill="#FFC6C0"/>
<path d="M214.464 44.293C211.854 43.4068 209.568 41.7623 207.898 39.5699C207.898 39.5699 208.169 44.2329 213.915 45.7521L214.464 44.293Z" fill="#EB996E"/>
<path d="M213.396 16.1347C212.937 15.1269 212.358 12.9233 211.576 12.1336C210.794 11.3439 209.523 11.6071 208.455 11.908C207.905 12.0662 207.401 12.3535 206.985 12.746C206.569 13.1385 206.253 13.6247 206.063 14.1642C204.559 18.2105 204.401 22.0236 203.303 26.0021C203.207 26.2592 203.184 26.5375 203.235 26.8069C203.446 27.4838 204.19 27.7244 204.882 27.8222C206.612 28.0779 207.492 26.8219 208.304 25.3027C208.577 24.3874 208.775 23.4518 208.899 22.5049C208.997 21.1889 209.436 19.9211 210.173 18.8265C210.91 17.7319 211.92 16.8482 213.103 16.2626L213.396 16.1347Z" fill="#444444"/>
<path d="M206.191 23.6932C206.108 23.618 202.746 21.1587 201.483 25.0395C200.219 28.9203 204.371 29.3941 204.416 29.2813C204.461 29.1685 206.191 23.6932 206.191 23.6932Z" fill="#FFC6C0"/>
<path d="M203.709 27.4311C203.709 27.4311 203.626 27.4311 203.498 27.4687C203.314 27.4806 203.132 27.4244 202.987 27.3108C202.788 27.0706 202.656 26.7815 202.606 26.4735C202.556 26.1654 202.589 25.8495 202.701 25.5584C202.797 25.2226 202.97 24.9137 203.205 24.6559C203.28 24.546 203.381 24.4563 203.499 24.3946C203.618 24.333 203.749 24.3013 203.882 24.3024C203.968 24.3039 204.049 24.3371 204.112 24.3954C204.174 24.4537 204.213 24.5331 204.22 24.6183C204.22 24.7386 204.22 24.8138 204.22 24.8214C204.22 24.8289 204.326 24.7837 204.348 24.6183C204.357 24.5149 204.33 24.4117 204.273 24.325C204.193 24.2098 204.072 24.1292 203.935 24.0993C203.765 24.0788 203.592 24.1027 203.434 24.1686C203.276 24.2345 203.137 24.3402 203.032 24.4754C202.754 24.7556 202.552 25.1026 202.446 25.4832C202.314 25.8214 202.285 26.191 202.363 26.5456C202.44 26.9002 202.621 27.2239 202.882 27.4762C202.976 27.5413 203.084 27.584 203.198 27.6009C203.311 27.6179 203.427 27.6087 203.536 27.574C203.671 27.5214 203.724 27.4386 203.709 27.4311Z" fill="#EB996E"/>
<path d="M211.899 17.0071C213.81 15.6985 215.78 16.3453 217.096 17.1049C218.412 17.8645 219.533 18.955 220.857 19.6545C222.18 20.3539 223.978 20.5946 225.181 19.6545C225.605 19.2746 225.945 18.8113 226.18 18.2935C226.416 17.7758 226.542 17.2149 226.55 16.6461C226.636 15.5633 226.507 14.4741 226.17 13.4415C225.833 12.4088 225.295 11.4531 224.587 10.6294C224.211 10.2082 223.647 9.78705 223.128 10.0202C222.489 10.306 222.587 11.2311 222.79 11.9004C222.79 11.9004 216.269 9.49373 212.26 10.8776C208.252 12.2614 211.899 17.0071 211.899 17.0071Z" fill="#444444"/>
<path d="M214.359 7.5834C214.359 7.5834 214.434 7.86168 214.629 8.3355C214.939 8.98413 215.362 9.57242 215.878 10.0728C216.641 10.8165 217.52 11.4312 218.48 11.8929C219.045 12.1636 219.641 12.3631 220.255 12.487C220.894 12.6299 221.579 12.7277 222.271 12.9233C222.961 13.0939 223.603 13.4178 224.151 13.8709C224.652 14.3093 225.042 14.8611 225.287 15.4804C225.512 16.0432 225.594 16.6529 225.527 17.2553C225.453 17.7759 225.26 18.2725 224.963 18.7068C224.539 19.3325 223.917 19.7964 223.196 20.023C223.002 20.0794 222.803 20.1123 222.602 20.1208C222.532 20.1326 222.461 20.1326 222.391 20.1208C222.391 20.0832 222.677 20.0832 223.143 19.9102C223.809 19.6552 224.374 19.1906 224.753 18.5865C225.019 18.183 225.184 17.7212 225.234 17.2403C225.286 16.6873 225.203 16.1299 224.993 15.6157C224.763 15.0359 224.397 14.52 223.925 14.1116C223.411 13.6909 222.81 13.3903 222.165 13.2316C221.504 13.0511 220.827 12.9458 220.172 12.7954C219.546 12.6632 218.939 12.4509 218.367 12.1636C217.381 11.6797 216.487 11.0253 215.727 10.2308C215.204 9.70126 214.797 9.06861 214.532 8.3731C214.468 8.18423 214.421 7.99056 214.389 7.79399C214.351 7.65109 214.344 7.5834 214.359 7.5834Z" fill="#616161"/>
<path d="M210.042 8.74915C210.042 8.74915 210.139 9.03494 210.358 9.50124C210.686 10.1755 211.143 10.7785 211.704 11.2762C212.546 12.0228 213.535 12.5862 214.607 12.9308C215.917 13.3445 217.257 13.6563 218.616 13.8634C219.996 14.0725 221.342 14.4671 222.617 15.0366C223.198 15.3159 223.663 15.7894 223.933 16.3754C224.14 16.895 224.172 17.4681 224.023 18.0074C223.801 18.7697 223.306 19.4233 222.632 19.8425C222.457 19.9601 222.271 20.0584 222.075 20.1358C222.011 20.1747 221.939 20.1979 221.865 20.2035C221.865 20.2035 222.128 20.0531 222.556 19.7372C223.161 19.3003 223.597 18.6681 223.79 17.9472C223.906 17.4579 223.864 16.9445 223.67 16.4806C223.419 15.9649 222.996 15.5526 222.474 15.3149C221.212 14.7827 219.888 14.4137 218.533 14.2169C217.158 14.0023 215.802 13.6778 214.479 13.2467C213.385 12.8787 212.383 12.2812 211.538 11.4943C210.973 10.9583 210.529 10.3067 210.237 9.58397C210.163 9.38857 210.105 9.18731 210.064 8.98229C210.045 8.90611 210.038 8.82755 210.042 8.74915V8.74915Z" fill="#616161"/>
<path d="M222.782 29.0105C222.705 29.2393 222.541 29.4291 222.327 29.5399C222.112 29.6507 221.863 29.6739 221.631 29.6047C221.517 29.5743 221.41 29.5214 221.316 29.449C221.223 29.3766 221.145 29.2863 221.087 29.1833C221.028 29.0803 220.991 28.9667 220.978 28.8492C220.964 28.7317 220.974 28.6127 221.007 28.4991C221.083 28.2711 221.245 28.082 221.459 27.9723C221.673 27.8626 221.921 27.8411 222.15 27.9125C222.265 27.9412 222.373 27.9927 222.467 28.064C222.562 28.1352 222.641 28.2248 222.699 28.3273C222.758 28.4298 222.796 28.5431 222.81 28.6605C222.825 28.7779 222.815 28.8969 222.782 29.0105V29.0105Z" fill="#263238"/>
<path d="M224.444 28.5216C224.301 28.5969 223.805 27.8749 222.865 27.5515C221.925 27.2281 221.067 27.4537 221.007 27.3033C220.947 27.1528 221.158 27.0701 221.534 26.9573C222.029 26.8249 222.553 26.8433 223.038 27.0099C223.527 27.1783 223.951 27.4968 224.249 27.92C224.489 28.2434 224.519 28.484 224.444 28.5216Z" fill="#263238"/>
<path d="M213.479 26.318C213.403 26.5462 213.241 26.7359 213.028 26.8468C212.814 26.9577 212.566 26.9812 212.336 26.9122C212.221 26.8826 212.113 26.8303 212.018 26.7583C211.924 26.6863 211.845 26.596 211.786 26.4929C211.727 26.3898 211.689 26.276 211.675 26.1581C211.661 26.0402 211.671 25.9207 211.704 25.8066C211.781 25.578 211.945 25.3888 212.16 25.2792C212.375 25.1696 212.624 25.1484 212.855 25.22C212.969 25.2495 213.075 25.3016 213.169 25.3732C213.263 25.4449 213.341 25.5345 213.399 25.6369C213.457 25.7393 213.494 25.8524 213.508 25.9694C213.522 26.0864 213.512 26.2049 213.479 26.318V26.318Z" fill="#263238"/>
<path d="M215.133 25.4832C214.99 25.5584 214.494 24.8364 213.554 24.513C212.614 24.1896 211.756 24.4227 211.696 24.2723C211.636 24.1219 211.847 24.0317 212.223 23.9188C212.718 23.7865 213.242 23.8048 213.727 23.9715C214.219 24.1395 214.643 24.4612 214.938 24.889C215.178 25.2049 215.209 25.4456 215.133 25.4832Z" fill="#263238"/>
<path d="M216.111 33.6434C216.661 33.665 217.206 33.7508 217.736 33.8991C217.984 33.9593 218.232 33.9894 218.33 33.8389C218.432 33.6021 218.46 33.3402 218.412 33.0869C218.412 32.425 218.367 31.7331 218.337 31.0111C218.215 29.2322 218.237 27.4464 218.405 25.6712C218.667 27.4362 218.788 29.2193 218.766 31.0036C218.766 31.7256 218.781 32.4175 218.811 33.0793C218.858 33.4213 218.787 33.7692 218.608 34.0646C218.543 34.1373 218.463 34.1946 218.373 34.2323C218.283 34.27 218.186 34.2872 218.089 34.2827C217.944 34.2711 217.8 34.2433 217.66 34.2C217.122 34.0824 216.601 33.8953 216.111 33.6434V33.6434Z" fill="#263238"/>
<path d="M213.103 33.335C213.261 33.3802 212.907 34.403 213.531 35.4259C214.156 36.4487 215.276 36.7194 215.239 36.8699C215.201 37.0203 214.923 36.9827 214.487 36.8323C213.885 36.6339 213.374 36.2289 213.043 35.6891C212.726 35.1716 212.623 34.5511 212.757 33.9593C212.862 33.5155 213.103 33.305 213.103 33.335Z" fill="#263238"/>
<path d="M216.66 21.8807C216.48 22.0988 215.585 21.655 214.404 21.4069C213.223 21.1587 212.253 21.1436 212.148 20.8654C212.148 20.73 212.358 20.542 212.809 20.4216C213.394 20.284 214.002 20.2802 214.588 20.4104C215.174 20.5407 215.723 20.8016 216.194 21.1737C216.607 21.4971 216.743 21.8055 216.66 21.8807Z" fill="#263238"/>
<path d="M225.046 25.6788C224.805 25.8292 224.234 25.3854 223.459 25.1072C222.684 24.8289 221.955 24.7462 221.895 24.4679C221.895 24.34 222.045 24.1595 222.406 24.0618C222.877 23.9529 223.37 23.9871 223.821 24.1599C224.273 24.3328 224.663 24.6364 224.941 25.032C225.136 25.3478 225.136 25.5659 225.046 25.6788Z" fill="#263238"/>
<path d="M207.327 109.123C208.171 109.423 208.878 110.017 209.319 110.796C209.76 111.575 209.904 112.488 209.726 113.365L204.649 115.373L203.491 110.477L207.327 109.123Z" fill="#FFBF00"/>
<path d="M164.653 109.108C164.653 109.108 174.821 108.048 181.199 110.304C187.577 112.56 195.549 114.222 199.054 113.433C200.935 112.977 202.617 111.921 203.844 110.424C203.844 110.424 193.706 109.214 188.938 107.664C185.719 106.626 179.379 99.4364 167.631 101.174L164.653 109.108Z" fill="#FFBF00"/>
<path d="M205.416 112.809C205.056 111.879 204.496 111.039 203.777 110.349L203.867 110.462C202.804 110.509 201.748 110.662 200.716 110.921C199.674 111.188 198.74 111.768 198.038 112.583C197.802 112.843 197.668 113.179 197.662 113.531C197.772 113.988 198.059 114.383 198.459 114.629C199.392 115.462 200.477 116.106 201.656 116.524C202.249 116.723 202.887 116.746 203.494 116.59C204.1 116.434 204.647 116.105 205.07 115.644C205.353 115.235 205.532 114.763 205.592 114.269C205.653 113.775 205.592 113.274 205.416 112.809V112.809Z" fill="#FFBF00"/>
<path d="M198.061 112.433C198.123 112.217 198.233 112.019 198.384 111.853C198.791 111.407 199.311 111.08 199.888 110.906C200.744 110.615 201.658 110.535 202.551 110.673C203.102 110.756 203.628 110.956 204.095 111.259C204.562 111.563 204.959 111.963 205.258 112.433C205.564 112.908 205.714 113.465 205.69 114.03C205.666 114.594 205.468 115.137 205.123 115.584C204.826 115.976 204.421 116.271 203.957 116.434C203.555 116.563 203.13 116.612 202.709 116.577C202.108 116.524 201.519 116.377 200.964 116.14C200.809 116.085 200.659 116.02 200.513 115.945C200.46 115.926 200.409 115.901 200.362 115.87C200.362 115.87 200.415 115.87 200.52 115.922L200.979 116.088C201.538 116.293 202.123 116.422 202.716 116.471C203.199 116.524 203.687 116.437 204.123 116.223C204.559 116.008 204.924 115.673 205.177 115.258C205.429 114.843 205.558 114.365 205.549 113.879C205.539 113.393 205.392 112.92 205.123 112.515C204.834 112.065 204.454 111.681 204.007 111.388C203.56 111.096 203.056 110.9 202.528 110.816C201.658 110.671 200.765 110.738 199.926 111.011C199.354 111.167 198.835 111.473 198.422 111.899C198.279 112.06 198.158 112.24 198.061 112.433V112.433Z" fill="#263238"/>
<path d="M200.189 112.605C199.994 112.409 199.785 112.225 199.565 112.056C199.323 111.913 199.072 111.785 198.813 111.673C199.087 111.71 199.347 111.819 199.565 111.989C199.825 112.134 200.041 112.347 200.189 112.605V112.605Z" fill="#FAFAFA"/>
<path d="M201.821 112.681C201.821 112.681 201.581 112.44 201.272 112.184C200.964 111.929 200.671 111.748 200.686 111.726C200.919 111.818 201.134 111.953 201.317 112.124C201.521 112.274 201.693 112.463 201.821 112.681Z" fill="#FAFAFA"/>
<path d="M202.498 116.163C202.498 116.163 202.461 115.99 202.378 115.727C202.272 115.379 202.115 115.05 201.912 114.749C201.702 114.445 201.448 114.174 201.159 113.944C200.949 113.771 200.798 113.681 200.806 113.666C200.945 113.729 201.076 113.807 201.197 113.899C201.489 114.125 201.743 114.397 201.949 114.704C202.156 115.012 202.308 115.352 202.4 115.712C202.455 115.857 202.487 116.009 202.498 116.163Z" fill="#FAFAFA"/>
<path d="M204.168 114.877C204.159 114.732 204.159 114.586 204.168 114.441C204.179 114.093 204.154 113.745 204.093 113.403C204.033 113.058 203.937 112.72 203.807 112.395C203.74 112.265 203.684 112.129 203.641 111.989L203.709 112.087C203.747 112.154 203.799 112.252 203.852 112.372C204.005 112.694 204.111 113.036 204.168 113.388C204.233 113.737 204.253 114.093 204.228 114.448C204.228 114.583 204.213 114.689 204.183 114.764C204.183 114.839 204.175 114.877 204.168 114.877Z" fill="#FAFAFA"/>
<path d="M204.175 111.741C202.537 112.304 201.096 113.328 200.024 114.689C200.136 114.456 200.28 114.241 200.453 114.049C200.85 113.575 201.31 113.158 201.821 112.809C202.328 112.452 202.879 112.164 203.461 111.951C203.688 111.847 203.928 111.776 204.175 111.741V111.741Z" fill="#263238"/>
<path d="M201.663 110.928C201.098 111.355 200.623 111.889 200.264 112.5C199.947 113.133 199.763 113.824 199.723 114.531C199.663 114.323 199.65 114.105 199.685 113.892C199.733 113.378 199.884 112.879 200.129 112.425C200.37 111.968 200.706 111.568 201.114 111.252C201.271 111.105 201.459 110.994 201.663 110.928V110.928Z" fill="#263238"/>
<path d="M204.446 116.193C204.446 116.193 204.401 115.952 204.251 115.591C204.051 115.123 203.747 114.707 203.363 114.373C202.446 113.621 201.513 113.215 201.551 113.147C201.761 113.208 201.963 113.293 202.152 113.403C202.625 113.626 203.065 113.912 203.461 114.253C203.865 114.6 204.174 115.045 204.356 115.546C204.441 115.751 204.472 115.973 204.446 116.193V116.193Z" fill="#263238"/>
<path d="M183.102 110.816C182.763 110.787 182.428 110.724 182.101 110.628C181.462 110.492 180.537 110.289 179.394 110.071C176.416 109.495 173.399 109.14 170.369 109.011C168.713 108.898 167.05 109.035 165.435 109.417C164.129 109.766 162.905 110.369 161.833 111.192C160.862 111.981 160.004 112.899 159.283 113.922C159.401 113.601 159.566 113.299 159.772 113.027C160.302 112.257 160.937 111.566 161.66 110.973C162.744 110.095 163.995 109.445 165.337 109.063C166.986 108.654 168.689 108.504 170.384 108.619C173.433 108.749 176.466 109.144 179.447 109.8C180.59 110.048 181.507 110.297 182.139 110.485C182.47 110.565 182.792 110.675 183.102 110.816Z" fill="#263238"/>
<path d="M108.306 100.617C108.47 100.47 108.643 100.335 108.825 100.211C109.345 99.8603 109.897 99.5582 110.472 99.3085C112.63 98.4043 115.022 98.2196 117.294 98.7821C118.864 99.1671 120.321 99.9198 121.543 100.978C122.902 102.214 124.102 103.613 125.115 105.145C126.221 106.724 127.372 108.386 128.71 109.966C130.099 111.607 131.607 113.143 133.223 114.561C136.555 117.456 140.15 119.826 143.752 120.984C145.477 121.556 147.283 121.843 149.1 121.834C150.679 121.897 152.244 121.511 153.612 120.721C154.699 120.017 155.646 119.116 156.403 118.066C157.102 117.156 157.658 116.328 158.102 115.644C158.546 114.96 158.854 114.471 159.133 114.08C159.244 113.893 159.373 113.717 159.516 113.553C159.424 113.751 159.319 113.942 159.2 114.125L158.2 115.757C157.771 116.449 157.237 117.299 156.553 118.231C155.788 119.318 154.83 120.253 153.725 120.991C152.329 121.817 150.728 122.232 149.107 122.187C147.265 122.197 145.433 121.905 143.685 121.322C139.969 120.134 136.329 117.772 132.975 114.854C131.342 113.424 129.818 111.873 128.417 110.214C127.056 108.612 125.913 106.927 124.822 105.355C123.84 103.84 122.673 102.453 121.348 101.226C120.17 100.187 118.763 99.442 117.241 99.0528C115.024 98.4778 112.681 98.6173 110.547 99.4514C109.77 99.7787 109.021 100.169 108.306 100.617V100.617Z" fill="#263238"/>
<path d="M127.048 93.9461H126.514C126.176 93.9461 125.68 93.9837 125.078 94.0514C121.904 94.4161 118.876 95.5835 116.278 97.4433C115.782 97.7968 115.391 98.1052 115.135 98.3308L114.722 98.6617C115.194 98.207 115.696 97.7848 116.226 97.3982C117.515 96.4663 118.921 95.7077 120.407 95.1419C121.918 94.5586 123.498 94.1768 125.108 94.0063C125.753 93.9438 126.401 93.9237 127.048 93.9461V93.9461Z" fill="#FAFAFA"/>
<path d="M139.112 101.256C139.112 101.256 138.916 101.256 138.563 101.339C138.209 101.422 137.69 101.459 137.059 101.587C135.422 101.929 133.831 102.464 132.321 103.182C130.815 103.909 129.404 104.815 128.116 105.882C127.62 106.288 127.236 106.634 126.981 106.89L126.575 107.273C127.044 106.762 127.546 106.282 128.079 105.837C129.362 104.755 130.777 103.84 132.29 103.114C133.803 102.391 135.399 101.86 137.044 101.535C137.727 101.398 138.417 101.306 139.112 101.256V101.256Z" fill="#FAFAFA"/>
<path d="M138.743 118.382C138.698 118.19 138.663 117.997 138.638 117.802C138.569 117.274 138.552 116.74 138.585 116.208C138.72 114.444 139.246 112.733 140.127 111.199C141.014 109.676 142.061 108.252 143.248 106.95C144.151 105.942 144.753 105.34 144.753 105.34C144.753 105.34 144.617 105.506 144.369 105.784L143.316 106.987C142.142 108.294 141.106 109.718 140.225 111.237C139.347 112.76 138.813 114.457 138.661 116.208C138.616 116.739 138.616 117.272 138.661 117.802C138.661 117.99 138.706 118.133 138.721 118.231C138.732 118.281 138.739 118.331 138.743 118.382V118.382Z" fill="#FAFAFA"/>
<path d="M151.98 110.8C151.9 110.613 151.834 110.419 151.785 110.221C151.532 109.265 151.514 108.261 151.732 107.296C151.774 107.096 151.832 106.9 151.905 106.709C151.905 106.709 151.852 106.935 151.785 107.303C151.695 107.784 151.654 108.273 151.664 108.762C151.672 109.248 151.73 109.732 151.837 110.206C151.92 110.552 151.995 110.793 151.98 110.8Z" fill="#FAFAFA"/>
<path d="M154.304 119.968C153.877 119.703 153.472 119.404 153.093 119.073C151.241 117.471 149.927 115.335 149.333 112.959C149.208 112.466 149.125 111.962 149.085 111.455C149.085 111.455 149.085 111.598 149.16 111.853C149.218 112.216 149.296 112.575 149.393 112.929C150.001 115.278 151.294 117.394 153.108 119.006C153.38 119.251 153.663 119.482 153.958 119.698L154.304 119.968Z" fill="#FAFAFA"/>
<path d="M164.45 109.56C164.45 109.56 164.059 109.387 163.472 109.048C162.704 108.598 161.968 108.095 161.269 107.544C160.573 106.991 159.917 106.391 159.306 105.746C158.839 105.25 158.553 104.912 158.553 104.912L158.757 105.13C158.945 105.325 159.133 105.513 159.313 105.709C159.939 106.337 160.599 106.929 161.291 107.484C161.985 108.031 162.714 108.534 163.472 108.988L164.164 109.402L164.45 109.56Z" fill="#FAFAFA"/>
<path d="M171.662 108.559C171.662 108.559 171.662 108.454 171.662 108.266C171.662 108.078 171.662 107.724 171.662 107.461C171.625 106.777 171.557 105.837 171.414 104.799C171.271 103.761 171.098 102.843 170.948 102.174L170.767 101.422C170.722 101.234 170.707 101.129 170.707 101.129C170.707 101.129 170.745 101.234 170.798 101.414C170.85 101.595 170.918 101.866 171.001 102.166C171.212 103.034 171.375 103.913 171.489 104.799C171.61 105.682 171.685 106.57 171.715 107.461C171.715 107.807 171.715 108.085 171.715 108.273C171.715 108.461 171.662 108.559 171.662 108.559Z" fill="#FAFAFA"/>
<path d="M181.026 103.445C181.033 103.525 181.033 103.606 181.026 103.686C181.026 103.919 180.981 104.137 180.958 104.355C180.898 104.912 180.785 105.686 180.612 106.536C180.439 107.386 180.229 108.131 180.063 108.672C180.003 108.875 179.935 109.086 179.86 109.311C179.841 109.39 179.81 109.466 179.77 109.537C179.77 109.537 179.77 109.454 179.83 109.304C179.89 109.153 179.958 108.86 180.011 108.657C180.169 108.115 180.357 107.363 180.537 106.521C180.718 105.679 180.83 104.904 180.906 104.348C180.906 104.137 180.966 103.911 180.996 103.686C180.994 103.604 181.004 103.523 181.026 103.445V103.445Z" fill="#FAFAFA"/>
<path d="M187.404 109.627C187.449 109.215 187.52 108.805 187.614 108.401C187.688 107.992 187.786 107.588 187.908 107.19C187.863 107.604 187.79 108.013 187.69 108.416C187.622 108.826 187.527 109.231 187.404 109.627Z" fill="#FAFAFA"/>
<path d="M197.941 113.132C197.941 113.132 197.941 112.936 198.001 112.621C198.061 112.305 198.061 111.868 198.076 111.395V109.8C198.073 109.753 198.073 109.705 198.076 109.657C198.114 109.825 198.131 109.997 198.129 110.169C198.129 110.485 198.129 110.921 198.129 111.41C198.123 111.822 198.093 112.234 198.038 112.643C198.019 112.808 197.986 112.972 197.941 113.132V113.132Z" fill="#FAFAFA"/>
<path d="M199.964 115.584C199.151 112.305 195.79 110.199 192.443 109.672C189.096 109.146 185.719 109.838 182.372 110.259C179.025 110.68 175.453 110.793 172.46 109.244C171.501 111.004 171.019 112.985 171.061 114.99H172.828C173.189 117.532 175.513 119.502 178.018 120.021C180.522 120.54 182.177 120.593 184.531 119.562C186.885 118.532 190.186 116.847 192.608 115.997C195.03 115.148 197.715 114.726 200.129 115.531" fill="#FFBF00"/>
<path d="M174.205 110.018C174.124 110.261 174.026 110.497 173.911 110.725C173.669 111.292 173.46 111.872 173.287 112.463C173.119 113.054 172.999 113.657 172.926 114.268C172.866 114.734 172.866 115.02 172.843 115.02C172.8 114.771 172.8 114.516 172.843 114.268C172.885 113.646 172.993 113.031 173.167 112.433C173.339 111.833 173.563 111.249 173.836 110.688C173.933 110.451 174.056 110.227 174.205 110.018Z" fill="#263238"/>
<path d="M172.971 113.561C172.658 113.56 172.346 113.53 172.038 113.47C171.727 113.465 171.416 113.425 171.113 113.35C171.423 113.281 171.744 113.281 172.054 113.35C172.372 113.345 172.687 113.418 172.971 113.561V113.561Z" fill="#263238"/>
<path d="M173.34 111.53C173.34 111.53 172.994 111.319 172.535 111.161C172.076 111.004 171.677 110.981 171.677 110.936C171.981 110.858 172.301 110.885 172.588 111.011C172.891 111.091 173.157 111.275 173.34 111.53Z" fill="#263238"/>
<path d="M176.844 110.455H177.363C177.709 110.455 178.213 110.455 178.867 110.455C180.711 110.442 182.549 110.256 184.358 109.898C187.079 109.328 189.881 109.249 192.631 109.665C194.266 109.93 195.823 110.554 197.188 111.492C198.667 112.529 199.766 114.022 200.317 115.742L200.37 115.907L200.212 115.832C199.504 115.489 198.739 115.279 197.956 115.215C196.048 115.181 194.152 115.521 192.375 116.216C190.691 116.792 189.041 117.465 187.434 118.231C186.682 118.585 185.93 118.938 185.178 119.262C184.464 119.599 183.722 119.871 182.959 120.074C181.581 120.395 180.154 120.451 178.755 120.239C177.595 120.077 176.487 119.656 175.513 119.006C174.78 118.509 174.159 117.864 173.693 117.111C173.402 116.643 173.179 116.137 173.031 115.606C172.974 115.422 172.931 115.233 172.903 115.042C173.069 115.768 173.354 116.462 173.746 117.095C174.214 117.832 174.831 118.462 175.558 118.946C176.526 119.579 177.624 119.987 178.77 120.141C180.155 120.348 181.567 120.287 182.929 119.961C183.681 119.757 184.414 119.485 185.117 119.149C185.869 118.825 186.622 118.472 187.374 118.111C188.984 117.345 190.637 116.67 192.322 116.088C194.118 115.382 196.034 115.037 197.963 115.072C198.774 115.142 199.566 115.356 200.302 115.704L200.189 115.794C199.645 114.114 198.571 112.655 197.128 111.635C195.777 110.703 194.236 110.082 192.616 109.815C189.89 109.4 187.112 109.469 184.41 110.018C182.593 110.366 180.747 110.537 178.898 110.53C177.559 110.552 176.844 110.455 176.844 110.455Z" fill="#263238"/>
<path d="M176.724 119.577C176.662 119.472 176.617 119.358 176.589 119.239C176.487 118.921 176.404 118.597 176.34 118.269C175.886 116.103 176.043 113.853 176.792 111.771C176.901 111.454 177.031 111.145 177.183 110.846C177.225 110.733 177.284 110.626 177.356 110.53C177.356 110.53 177.16 111.011 176.897 111.808C176.217 113.887 176.062 116.101 176.446 118.254C176.596 119.104 176.747 119.577 176.724 119.577Z" fill="#FAFAFA"/>
<path d="M183.23 115.178C183.287 115.387 183.327 115.601 183.35 115.817C183.418 116.208 183.523 116.742 183.673 117.321C183.989 118.494 184.29 119.434 184.245 119.449C184.135 119.26 184.049 119.058 183.989 118.848C183.854 118.479 183.681 117.953 183.523 117.344C183.392 116.85 183.296 116.347 183.237 115.839C183.204 115.62 183.201 115.398 183.23 115.178Z" fill="#FAFAFA"/>
<path d="M182.305 112.628C182.35 112.628 182.305 113.185 182.387 113.854C182.47 114.523 182.553 115.065 182.508 115.072C182.333 114.695 182.238 114.285 182.229 113.869C182.166 113.455 182.192 113.032 182.305 112.628V112.628Z" fill="#FAFAFA"/>
<path d="M183.914 110.003C183.959 110.003 183.756 110.507 183.643 111.131C183.53 111.756 183.545 112.282 183.493 112.29C183.355 111.511 183.505 110.71 183.914 110.033V110.003Z" fill="#FAFAFA"/>
<path d="M189.111 111.47C188.863 111.229 188.697 110.916 188.637 110.575C188.528 110.248 188.528 109.894 188.637 109.567C188.682 109.567 188.637 110.018 188.78 110.537C188.923 111.056 189.149 111.44 189.111 111.47Z" fill="#FAFAFA"/>
<path d="M193.157 115.689C192.984 115.516 192.837 115.319 192.721 115.102C192.409 114.6 192.135 114.074 191.901 113.531C191.669 112.987 191.481 112.426 191.337 111.853C191.256 111.611 191.213 111.357 191.209 111.101C191.306 111.325 191.384 111.556 191.442 111.793C191.578 112.222 191.781 112.809 192.044 113.44C192.307 114.072 192.601 114.621 192.796 115.012C192.992 115.403 193.172 115.682 193.157 115.689Z" fill="#FAFAFA"/>
<path d="M194.3 110.236C194.3 110.236 194.195 110.394 194.067 110.567C193.939 110.74 193.864 110.898 193.819 110.891C193.774 110.883 193.819 110.673 193.947 110.477C194.075 110.282 194.3 110.199 194.3 110.236Z" fill="#FAFAFA"/>
<path d="M200.227 115.817L200.009 115.629C199.804 115.444 199.585 115.276 199.354 115.125C198.493 114.59 197.526 114.248 196.519 114.125C195.02 113.962 193.504 114.127 192.074 114.606C190.337 115.215 188.634 115.921 186.975 116.719C185.315 117.508 183.536 118.016 181.71 118.224C179.179 118.451 176.636 117.928 174.4 116.719C174.084 116.546 173.844 116.404 173.648 116.298L173.407 116.133L173.655 116.283C173.821 116.381 174.062 116.524 174.408 116.697C175.302 117.17 176.249 117.539 177.228 117.795C178.685 118.175 180.196 118.3 181.695 118.163C183.522 117.958 185.301 117.45 186.96 116.659C188.623 115.859 190.33 115.156 192.074 114.553C193.512 114.074 195.036 113.915 196.542 114.087C197.555 114.212 198.527 114.564 199.385 115.118C199.69 115.32 199.972 115.554 200.227 115.817V115.817Z" fill="#FAFAFA"/>
<path d="M187.69 112.297L187.156 112.523C186.817 112.681 186.306 112.869 185.651 113.087C184.003 113.651 182.272 113.938 180.53 113.937C178.789 113.88 177.063 113.589 175.4 113.072C174.114 112.696 173.34 112.417 173.34 112.417L173.896 112.575L175.4 113.019C177.061 113.52 178.781 113.801 180.515 113.854C182.25 113.858 183.974 113.581 185.621 113.034C186.253 112.824 186.764 112.643 187.125 112.493C187.486 112.342 187.69 112.297 187.69 112.297Z" fill="#FAFAFA"/>
<path d="M195.316 111.492L195.135 111.38C195.015 111.297 194.834 111.192 194.601 111.056C193.927 110.698 193.201 110.444 192.45 110.304C191.335 110.109 190.198 110.074 189.073 110.199C187.802 110.319 186.426 110.612 184.974 110.883C182.497 111.376 179.954 111.444 177.454 111.086C176.417 110.952 175.387 110.764 174.37 110.522L175.197 110.673C175.731 110.77 176.498 110.913 177.454 111.034C179.956 111.374 182.498 111.296 184.974 110.8C186.426 110.53 187.802 110.244 189.081 110.124C190.212 110.005 191.354 110.048 192.473 110.251C193.227 110.389 193.955 110.643 194.631 111.004C194.873 111.146 195.102 111.31 195.316 111.492Z" fill="#FAFAFA"/>
<path d="M200.054 115.448C199.456 114.617 198.762 113.86 197.986 113.192C197.13 112.494 196.146 111.968 195.09 111.643C193.799 111.251 192.434 111.166 191.104 111.395C189.768 111.658 188.492 112.168 187.344 112.899C186.253 113.531 185.283 114.147 184.403 114.561C183.72 114.918 182.987 115.171 182.229 115.313C182.024 115.354 181.815 115.374 181.605 115.373C181.533 115.386 181.459 115.386 181.387 115.373C182.391 115.162 183.362 114.818 184.275 114.35C185.125 113.914 186.065 113.282 187.163 112.628C188.335 111.858 189.645 111.322 191.021 111.049C192.414 110.814 193.842 110.915 195.188 111.342C196.279 111.698 197.287 112.271 198.151 113.027C198.735 113.526 199.242 114.109 199.655 114.756C199.826 114.963 199.96 115.197 200.054 115.448V115.448Z" fill="#263238"/>
<path d="M189.607 111.605C188.156 112.232 186.6 112.579 185.02 112.628C183.449 112.802 181.86 112.682 180.334 112.275C180.334 112.154 182.432 112.425 184.997 112.275C187.562 112.124 189.577 111.492 189.607 111.605Z" fill="#263238"/>
<path d="M185.892 109.296L185.042 108.935C184.486 108.71 183.658 108.364 182.583 107.973C179.549 106.84 176.357 106.188 173.122 106.04C170.886 105.962 168.653 106.252 166.511 106.897C164.046 107.629 161.796 108.948 159.952 110.74C157.997 112.613 156.357 114.99 154.101 116.915C152.965 117.91 151.613 118.628 150.153 119.013C148.627 119.345 147.041 119.251 145.565 118.743C144.09 118.248 142.721 117.483 141.526 116.486C140.377 115.517 139.34 114.422 138.435 113.222C136.63 110.876 135.201 108.409 133.554 106.258C132.033 104.189 130.285 102.297 128.342 100.617C126.65 99.1572 124.739 97.972 122.679 97.1049C119.679 95.8327 116.364 95.5023 113.172 96.1572C112.315 96.355 111.479 96.6345 110.675 96.9921L109.856 97.4057L110.668 96.977C111.469 96.6098 112.306 96.3251 113.165 96.1272C116.357 95.4432 119.683 95.7529 122.694 97.0146C124.765 97.8809 126.686 99.0688 128.387 100.534C130.333 102.215 132.086 104.107 133.614 106.175C135.261 108.334 136.698 110.8 138.495 113.139C139.398 114.335 140.432 115.425 141.579 116.389C142.763 117.384 144.122 118.149 145.587 118.645C147.039 119.144 148.599 119.237 150.1 118.916C151.553 118.536 152.897 117.822 154.026 116.832C156.282 114.914 157.907 112.545 159.87 110.673C161.72 108.858 163.988 107.526 166.473 106.792C168.622 106.146 170.864 105.859 173.106 105.942C176.351 106.102 179.549 106.775 182.583 107.935C184.749 108.747 185.892 109.296 185.892 109.296Z" fill="#FAFAFA"/>
<path d="M148.987 111.492C148.59 111.527 148.191 111.512 147.799 111.447C146.717 111.264 145.689 110.842 144.79 110.214C143.49 109.263 142.365 108.092 141.466 106.754C140.406 105.25 139.353 103.595 137.976 102.016C135.628 99.321 132.806 97.078 129.651 95.3976C128.695 94.8956 127.713 94.4437 126.71 94.0439L125.597 93.6227C125.597 93.6227 126.003 93.7506 126.717 94.0138C127.729 94.4064 128.718 94.8533 129.681 95.3525C132.851 97.0209 135.684 99.2624 138.036 101.963C139.279 103.488 140.444 105.074 141.526 106.717C142.415 108.051 143.529 109.219 144.82 110.169C145.702 110.796 146.711 111.222 147.776 111.417C148.067 111.465 148.361 111.49 148.656 111.492H148.987Z" fill="#FAFAFA"/>
<path d="M183.606 105.145L183.38 105.017C183.23 104.927 183.019 104.791 182.726 104.641C181.922 104.192 181.091 103.795 180.236 103.453C176.978 102.156 173.46 101.652 169.969 101.98C166.478 102.308 163.115 103.46 160.155 105.34C159.877 105.513 159.674 105.664 159.531 105.754L159.313 105.897C159.313 105.897 159.599 105.679 160.14 105.318C160.911 104.811 161.715 104.356 162.547 103.956C165.293 102.62 168.291 101.879 171.343 101.783C174.396 101.687 177.434 102.238 180.259 103.4C181.111 103.751 181.939 104.156 182.741 104.611C183.305 104.942 183.606 105.145 183.606 105.145Z" fill="#FAFAFA"/>
<path d="M168.323 108.492C168.323 108.492 168.286 108.386 168.225 108.198C168.165 108.01 168.09 107.724 167.977 107.393C167.686 106.512 167.331 105.652 166.917 104.821C166.506 103.99 166.034 103.19 165.503 102.43C165.3 102.136 165.127 101.903 165.006 101.745L164.833 101.49C164.833 101.49 165.127 101.813 165.586 102.392C166.13 103.149 166.613 103.949 167.03 104.784C167.442 105.618 167.789 106.483 168.067 107.371C168.171 107.74 168.257 108.114 168.323 108.492V108.492Z" fill="#FAFAFA"/>
<path d="M176.325 101.527C176.364 101.892 176.384 102.258 176.386 102.625C176.392 103.508 176.334 104.39 176.213 105.265C176.086 106.141 175.893 107.006 175.633 107.852C175.438 108.499 175.272 108.89 175.272 108.89C175.272 108.89 175.272 108.785 175.355 108.604L175.581 107.852C175.824 107.006 176.007 106.144 176.13 105.273C176.256 104.401 176.324 103.521 176.333 102.64C176.333 102.377 176.333 102.106 176.333 101.836C176.333 101.565 176.325 101.527 176.325 101.527Z" fill="#FAFAFA"/>
<path d="M158.952 114.26C158.649 114.091 158.355 113.905 158.072 113.704C157.387 113.219 156.745 112.676 156.154 112.079C155.563 111.482 155.025 110.835 154.545 110.146C154.344 109.865 154.16 109.571 153.996 109.266C153.996 109.266 154.056 109.341 154.154 109.492C154.252 109.642 154.402 109.853 154.59 110.116C155.083 110.792 155.626 111.431 156.214 112.026C156.802 112.62 157.436 113.166 158.11 113.658C158.365 113.846 158.576 113.997 158.726 114.095L158.952 114.26Z" fill="#FAFAFA"/>
<path d="M147.37 111.921C147.292 111.675 147.232 111.424 147.189 111.169C147.086 110.528 147.053 109.877 147.092 109.229C147.132 108.581 147.246 107.94 147.43 107.318C147.5 107.061 147.591 106.809 147.701 106.566C147.691 106.638 147.674 106.709 147.648 106.777C147.603 106.905 147.543 107.1 147.483 107.333C147.319 107.956 147.213 108.593 147.167 109.236C147.128 109.877 147.156 110.519 147.25 111.154C147.25 111.402 147.31 111.598 147.34 111.733C147.359 111.794 147.369 111.857 147.37 111.921V111.921Z" fill="#FAFAFA"/>
<path d="M147.34 121.668C147.132 121.272 146.947 120.866 146.783 120.45C146.379 119.446 146.069 118.406 145.858 117.344C145.645 116.284 145.529 115.206 145.512 114.125C145.5 113.678 145.513 113.231 145.55 112.786C145.55 112.786 145.55 112.914 145.55 113.147C145.55 113.38 145.55 113.711 145.55 114.125C145.583 115.201 145.707 116.273 145.918 117.329C146.131 118.384 146.431 119.421 146.813 120.427C146.964 120.818 147.092 121.127 147.182 121.337C147.272 121.548 147.34 121.668 147.34 121.668Z" fill="#FAFAFA"/>
<path d="M156.177 106.04C156.217 106.442 156.36 106.828 156.591 107.16C156.42 107.036 156.296 106.859 156.237 106.656C156.151 106.463 156.13 106.246 156.177 106.04V106.04Z" fill="#FAFAFA"/>
<path d="M141.496 103.189L141.007 103.46C140.684 103.625 140.255 103.881 139.684 104.212C136.816 105.949 134.304 108.215 132.283 110.891C131.892 111.402 131.591 111.823 131.395 112.124L131.08 112.583C131.434 111.985 131.82 111.408 132.238 110.853C134.24 108.153 136.761 105.88 139.653 104.167C140.25 103.81 140.865 103.483 141.496 103.189V103.189Z" fill="#FAFAFA"/>
<path d="M132.448 95.6534L131.975 95.7662C131.674 95.8338 131.222 95.9391 130.696 96.0896C129.3 96.4828 127.937 96.9858 126.62 97.5937C125.311 98.2047 124.054 98.9189 122.859 99.7297C122.393 100.038 122.032 100.301 121.784 100.482L121.348 100.775C121.348 100.775 121.874 100.316 122.784 99.6846C123.975 98.8588 125.233 98.1342 126.544 97.5185C127.863 96.9018 129.232 96.3986 130.636 96.0144C131.233 95.8618 131.838 95.7413 132.448 95.6534V95.6534Z" fill="#FAFAFA"/>
<path d="M193.819 108.898C193.824 109.056 193.798 109.215 193.744 109.364C193.716 109.52 193.668 109.672 193.601 109.815C193.619 109.499 193.692 109.188 193.819 108.898Z" fill="#FAFAFA"/>
<path d="M227.979 108.559C227.979 108.559 231.371 109.266 232.823 109.59C233.289 109.687 233.77 109.59 234.251 109.702C236.333 110.036 238.456 109.997 240.524 109.59C241.968 109.056 242.028 110.898 240.471 111.688C239.694 112.122 238.846 112.418 237.967 112.56L241.727 115.569C241.923 115.725 242.05 115.952 242.081 116.2L243.036 122.819C243.094 123.09 243.049 123.374 242.91 123.614C242.771 123.855 242.548 124.035 242.284 124.12C242.154 124.176 242.009 124.18 241.876 124.133C241.744 124.085 241.634 123.989 241.569 123.864L241.675 124.752C241.726 125.057 241.655 125.37 241.476 125.623C241.297 125.875 241.025 126.046 240.719 126.098C240.414 126.15 240.101 126.078 239.849 125.899C239.596 125.72 239.425 125.448 239.373 125.143C239.373 125.143 239.373 125.143 239.373 125.09L238.057 125.842C238.057 125.842 237.192 126.752 236.252 125.496C235.5 124.458 233.146 120.337 233.146 120.337C233.146 120.337 223.226 116.155 223.369 114.493L227.979 108.559Z" fill="#FFC6C0"/>
<path d="M239.373 125.135C239.242 124.609 239.154 124.074 239.11 123.533C238.952 122.556 238.674 121.179 238.478 119.675C238.335 118.923 238.17 118.209 238.004 117.614C237.904 117.355 237.715 117.139 237.47 117.005L236.779 116.561C236.3 116.3 235.856 115.982 235.455 115.614C235.97 115.79 236.462 116.028 236.921 116.321C237.147 116.456 237.388 116.584 237.636 116.719C237.95 116.88 238.198 117.147 238.335 117.471C238.55 118.171 238.725 118.881 238.862 119.6C239.065 121.104 239.298 122.48 239.381 123.496C239.468 124.039 239.465 124.593 239.373 125.135Z" fill="#EB996E"/>
<path d="M241.569 123.857C241.419 123.857 241.171 121.48 240.562 118.592C240.487 117.933 240.269 117.299 239.922 116.734C239.546 116.321 239.138 115.936 238.704 115.584C238.417 115.342 238.11 115.126 237.786 114.937C237.561 114.817 237.418 114.779 237.418 114.749C237.418 114.719 237.583 114.749 237.846 114.802C238.214 114.941 238.561 115.131 238.877 115.366C239.35 115.699 239.791 116.077 240.193 116.494C240.603 117.095 240.861 117.787 240.945 118.509C241.208 119.751 241.396 121.006 241.509 122.27C241.588 122.795 241.608 123.327 241.569 123.857Z" fill="#EB996E"/>
<path d="M233.462 117.592C233.922 117.733 234.36 117.938 234.763 118.201L235.395 118.555C235.663 118.682 235.905 118.858 236.109 119.073C236.312 119.331 236.454 119.632 236.523 119.953C236.621 120.254 236.718 120.57 236.816 120.894C237.356 122.432 237.771 124.011 238.057 125.617C237.398 124.128 236.86 122.589 236.448 121.014C236.35 120.698 236.252 120.382 236.162 120.074C236.102 119.804 235.99 119.548 235.831 119.322C235.659 119.132 235.455 118.974 235.229 118.855L234.62 118.464C234.198 118.225 233.809 117.931 233.462 117.592V117.592Z" fill="#EB996E"/>
<path d="M233.725 110.447C233.778 110.289 235.177 110.838 236.733 111.756C238.29 112.673 239.463 113.606 239.381 113.704C239.298 113.801 238.11 112.951 236.538 112.094L234.537 110.943C234.251 110.805 233.979 110.638 233.725 110.447Z" fill="#EB996E"/>
<g clip-path="url(#clip0_295_2456)">
<path d="M146.7 35.09C147.83 26.95 136.33 20.24 127.7 19.55C123.58 19.21 119.29 19.84 115.39 18.48C106.93 15.54 103.55 4.60999 95.3 1.12999C89.12 -1.47001 82 0.839993 76 3.84999C70 6.85999 64.1 10.65 57.42 11.08C51.61 11.45 45.3 9.29999 40.21 12.14C36.42 14.25 34.44 18.62 30.94 21.19C27.44 23.76 23.07 24.25 18.83 24.48C14.59 24.71 10.2 24.75 6.34 26.48C2.48 28.21 -0.719999 32.33 0.0800009 36.48L146.7 35.09Z" fill="#EBEBEB"/>
</g>
<g clip-path="url(#clip1_295_2456)">
<path d="M365.947 43.0476C366.694 37.7012 359.094 33.2939 353.391 32.8407C350.668 32.6174 347.833 33.0312 345.256 32.1379C339.665 30.2069 337.431 23.0279 331.979 20.7422C327.895 19.0345 323.19 20.5517 319.225 22.5287C315.26 24.5058 311.361 26.9951 306.946 27.2775C303.107 27.5205 298.937 26.1084 295.573 27.9737C293.068 29.3596 291.76 32.2299 289.447 33.9179C287.134 35.6059 284.246 35.9278 281.444 36.0788C278.642 36.2299 275.741 36.2562 273.19 37.3924C270.639 38.5287 268.524 41.2348 269.053 43.9606L365.947 43.0476Z" fill="#E1E1E1"/>
</g>
<g clip-path="url(#clip2_295_2456)">
<path d="M1.05288 272.048C0.306112 266.701 7.90592 262.294 13.6091 261.841C16.3318 261.617 19.1668 262.031 21.7442 261.138C27.335 259.207 29.5687 252.028 35.0207 249.742C39.1048 248.034 43.8101 249.552 47.7752 251.529C51.7403 253.506 55.6393 255.995 60.0538 256.277C63.8934 256.52 68.0634 255.108 71.4271 256.974C73.9317 258.36 75.2402 261.23 77.5532 262.918C79.8662 264.606 82.7541 264.928 85.5561 265.079C88.3582 265.23 91.2593 265.256 93.8102 266.392C96.3611 267.529 98.4758 270.235 97.9471 272.961L1.05288 272.048Z" fill="#EBEBEB"/>
</g>
<defs>
<clipPath id="clip0_295_2456">
<rect width="146.78" height="36.54" fill="white"/>
</clipPath>
<clipPath id="clip1_295_2456">
<rect width="97" height="24" fill="white" transform="translate(269 20)"/>
</clipPath>
<clipPath id="clip2_295_2456">
<rect width="97" height="24" fill="white" transform="matrix(-1 0 0 1 98 249)"/>
</clipPath>
</defs>
</svg>
