<svg width="234" height="260" viewBox="0 0 234 260" fill="none" xmlns="http://www.w3.org/2000/svg">
<path d="M209.46 133.513L165.002 116.656C161.93 115.491 160.381 112.049 161.543 108.969L184.815 47.2712C185.978 44.1906 189.41 42.638 192.482 43.8026L220.678 54.4941L233.995 85.3249L217.127 130.045C215.965 133.126 212.532 134.679 209.46 133.513Z" fill="#F3F2F1"/>
<path d="M220.678 54.494L214.128 71.8586C213.047 74.7228 214.487 77.9242 217.344 79.0079L233.996 85.3248L220.678 54.494Z" fill="#E7E8E5"/>
<path d="M213.78 73.4687C213.78 73.4687 211.972 77.5968 216.232 80.7945C216.392 80.9147 216.561 81.0232 216.733 81.1255C218.76 82.3398 232.111 90.3202 232.235 89.9911C232.37 89.6343 233.995 85.3248 233.995 85.3248L217.343 79.0103C217.343 79.0103 213.239 77.291 213.78 73.4687Z" fill="#DADBD8"/>
<path d="M210.667 69.7359C210.583 69.959 205.91 68.3942 200.231 66.2409C194.55 64.0864 190.015 62.16 190.099 61.9369C190.183 61.7137 194.855 63.2786 200.535 65.4324C206.215 67.5857 210.751 69.5128 210.667 69.7359Z" fill="#DADBD8"/>
<path d="M220.247 84.5912C220.163 84.8136 212.516 82.121 203.17 78.577C193.82 75.0318 186.311 71.9775 186.396 71.7544C186.479 71.5313 194.125 74.2239 203.474 77.7691C212.821 81.3132 220.331 84.3674 220.247 84.5912Z" fill="#DADBD8"/>
<path d="M220.203 93.9452C220.12 94.1683 211.79 91.2164 201.602 87.353C191.411 83.4891 183.219 80.1761 183.303 79.953C183.387 79.7299 191.715 82.6806 201.907 86.5458C212.095 90.4085 220.288 93.7221 220.203 93.9452Z" fill="#DADBD8"/>
<path d="M217.286 101.68C217.202 101.903 208.872 98.9517 198.684 95.0884C188.493 91.2238 180.302 87.9109 180.386 87.6878C180.47 87.4646 188.797 90.4153 198.989 94.2805C209.177 98.1433 217.37 101.457 217.286 101.68Z" fill="#DADBD8"/>
<path d="M214.368 109.415C214.284 109.638 205.955 106.686 195.767 102.823C185.575 98.9584 177.384 95.6455 177.468 95.4224C177.552 95.1993 185.88 98.1506 196.072 102.015C206.26 105.878 214.453 109.191 214.368 109.415Z" fill="#DADBD8"/>
<path d="M211.451 117.15C211.367 117.372 203.037 114.421 192.849 110.558C182.657 106.693 174.466 103.38 174.551 103.158C174.634 102.934 182.962 105.885 193.154 109.75C203.342 113.613 211.535 116.926 211.451 117.15Z" fill="#DADBD8"/>
<path d="M93.1931 161.019L34.5842 181.597C32.5563 182.308 30.3373 181.237 29.6272 179.204L0.221224 95.008C-0.488489 92.9749 0.579418 90.7499 2.60706 90.0377L61.2158 69.4607C63.2436 68.7485 65.4627 69.8193 66.1731 71.8524L95.5784 156.049C96.2888 158.082 95.2208 160.307 93.1931 161.019Z" fill="#E7E8E5"/>
<path d="M91.1175 158.149L34.4208 178.055L5.27417 94.6004L61.9702 74.6947L91.1175 158.149Z" fill="#DADBD8"/>
<path d="M89.5465 156.161L32.8502 176.067L4.25952 94.2057L60.956 74.2999L89.5465 156.161Z" fill="#FAFAF9"/>
<path d="M89.5464 156.161C89.3067 155.477 77.7942 122.613 60.8795 74.3268L60.9828 74.3765C43.7876 80.4164 24.5497 87.1734 4.29548 94.2878L4.28903 94.2902L4.34372 94.1762C15.0302 124.926 24.9769 153.322 32.9177 176.043L32.826 175.999C67.3118 163.937 88.9901 156.355 89.5464 156.161C88.9913 156.356 67.3302 163.991 32.8736 176.135L32.8057 176.159L32.7819 176.091C24.8418 153.371 14.9173 124.973 4.17537 94.2351L4.146 94.1511L4.23029 94.1211L4.23674 94.1186C24.4926 87.0104 43.7324 80.2582 60.929 74.2226L61.006 74.1956L61.0329 74.2729C77.8572 122.591 89.308 155.477 89.5464 156.161Z" fill="#DADBD8"/>
<path d="M69.4346 163.222C69.4346 163.222 82.0609 152.546 84.2488 141.426C84.2488 141.426 80.7441 146.936 73.4553 147.942C73.4553 147.942 73.2022 159.616 69.4346 163.222Z" fill="#DADBD8"/>
<path d="M26.0667 119.395L23.0813 120.443C21.9919 120.826 20.7995 120.251 20.418 119.158L19.3727 116.165C18.9911 115.073 19.5649 113.877 20.6544 113.494L23.6401 112.446C24.7292 112.064 25.9218 112.639 26.3031 113.731L27.3486 116.725C27.73 117.817 27.1564 119.013 26.0667 119.395Z" fill="#E7E8E5"/>
<path d="M23.2758 117.6L23.2703 117.602L23.1332 117.586L21.7661 116.791C21.6844 116.744 21.6567 116.639 21.704 116.556C21.7515 116.476 21.8563 116.447 21.938 116.495L23.1435 117.195L24.5875 114.099C24.6276 114.013 24.7296 113.975 24.8148 114.016C24.9003 114.056 24.9373 114.158 24.8974 114.244L23.3741 117.51L23.2758 117.6Z" fill="white"/>
<path d="M62.428 99.7767C62.4445 99.8239 55.0809 102.451 45.9843 105.645C36.884 108.84 29.496 111.392 29.48 111.345C29.4635 111.299 36.8252 108.672 45.9252 105.476C55.0222 102.282 62.4121 99.7307 62.428 99.7767Z" fill="#DADBD8"/>
<path d="M45.137 111.554C45.1411 111.565 44.9508 111.644 44.6031 111.778C44.2258 111.918 43.7275 112.103 43.1249 112.327C41.8741 112.783 40.1423 113.402 38.2259 114.075C36.3089 114.748 34.5702 115.348 33.3086 115.773C32.6985 115.975 32.1941 116.142 31.812 116.269C31.4575 116.382 31.2592 116.439 31.2549 116.427C31.2511 116.415 31.4412 116.336 31.7891 116.203C32.1664 116.063 32.6646 115.878 33.2673 115.654C34.5179 115.198 36.2499 114.579 38.167 113.906C40.0833 113.233 41.8218 112.634 43.0834 112.208C43.6935 112.006 44.1979 111.839 44.5804 111.712C44.935 111.599 45.1333 111.542 45.137 111.554Z" fill="#DADBD8"/>
<path d="M63.2148 102.029C63.2307 102.076 55.8678 104.704 46.7708 107.898C37.6708 111.093 30.2829 113.644 30.2666 113.597C30.2504 113.551 37.6116 110.924 46.712 107.729C55.809 104.535 63.1983 101.983 63.2148 102.029Z" fill="#DADBD8"/>
<path d="M30.3267 131.592L27.341 132.641C26.2518 133.023 25.0592 132.448 24.6778 131.355L23.6324 128.362C23.251 127.269 23.8246 126.074 24.9142 125.692L27.8997 124.644C28.9894 124.261 30.1815 124.836 30.5631 125.928L31.6082 128.922C31.9899 130.014 31.416 131.21 30.3267 131.592Z" fill="#E7E8E5"/>
<path d="M27.5356 129.796L27.5304 129.798L27.3933 129.783L26.0262 128.989C25.9445 128.941 25.9166 128.836 25.9641 128.754C26.0116 128.672 26.116 128.644 26.1978 128.691L27.4036 129.392L28.8476 126.295C28.8877 126.21 28.9896 126.173 29.0749 126.213C29.1604 126.253 29.1974 126.355 29.1576 126.441L27.6343 129.707L27.5356 129.796Z" fill="white"/>
<path d="M66.6878 111.974C66.7043 112.021 59.3412 114.648 50.2442 117.842C41.144 121.037 33.756 123.589 33.74 123.542C33.7238 123.496 41.085 120.868 50.1852 117.673C59.2822 114.48 66.6719 111.928 66.6878 111.974Z" fill="#DADBD8"/>
<path d="M49.3968 123.751C49.4008 123.762 49.2105 123.841 48.8626 123.975C48.4853 124.115 47.9872 124.3 47.3844 124.523C46.1339 124.98 44.4019 125.599 42.4857 126.272C40.5687 126.945 38.8299 127.545 37.5683 127.971C36.9585 128.172 36.4539 128.339 36.0718 128.466C35.7172 128.579 35.519 128.636 35.5147 128.625C35.5109 128.612 35.701 128.533 36.0489 128.4C36.426 128.26 36.9243 128.075 37.5268 127.851C38.7777 127.395 40.5094 126.776 42.4267 126.103C44.3431 125.43 46.0815 124.83 47.3431 124.405C47.9532 124.203 48.4576 124.036 48.8396 123.909C49.1945 123.796 49.3927 123.739 49.3968 123.751Z" fill="#DADBD8"/>
<path d="M67.4746 114.227C67.4911 114.273 60.1278 116.9 51.0307 120.094C41.9308 123.29 34.5428 125.841 34.5264 125.795C34.5104 125.748 41.8716 123.121 50.972 119.926C60.0688 116.732 67.4581 114.18 67.4746 114.227Z" fill="#DADBD8"/>
<path d="M34.5866 143.789L31.6009 144.837C30.5118 145.22 29.3192 144.645 28.9379 143.552L27.8924 140.559C27.511 139.466 28.0846 138.271 29.1743 137.889L32.1597 136.84C33.2489 136.458 34.4415 137.034 34.823 138.126L35.8683 141.119C36.2499 142.211 35.676 143.407 34.5866 143.789Z" fill="#E7E8E5"/>
<path d="M31.7957 141.994L31.7902 141.995L31.6531 141.98L30.286 141.186C30.2041 141.138 30.1764 141.033 30.2239 140.951C30.2714 140.869 30.3758 140.841 30.4577 140.889L31.6632 141.589L33.1074 138.493C33.1473 138.407 33.2493 138.37 33.3345 138.41C33.4202 138.45 33.4572 138.552 33.4171 138.638L31.8941 141.905L31.7957 141.994Z" fill="white"/>
<path d="M70.9476 124.171C70.9641 124.218 63.6007 126.846 54.5042 130.039C45.4037 133.234 38.016 135.786 37.9998 135.739C37.9836 135.692 45.345 133.065 54.4454 129.871C63.542 126.677 70.9317 124.124 70.9476 124.171Z" fill="#DADBD8"/>
<path d="M53.6566 135.947C53.6609 135.96 53.4704 136.039 53.1226 136.172C52.7453 136.312 52.2472 136.497 51.6445 136.721C50.3939 137.177 48.6619 137.796 46.7455 138.468C44.8287 139.142 43.0897 139.742 41.8284 140.168C41.2183 140.369 40.7137 140.536 40.3316 140.663C39.977 140.776 39.7788 140.833 39.7747 140.822C39.7709 140.81 39.961 140.731 40.3087 140.597C40.686 140.457 41.1841 140.272 41.7868 140.049C43.0377 139.592 44.7694 138.973 46.6868 138.3C48.6031 137.627 50.3416 137.027 51.603 136.602C52.2131 136.4 52.7176 136.233 53.0997 136.106C53.4546 135.993 53.6528 135.936 53.6566 135.947Z" fill="#DADBD8"/>
<path d="M71.7344 126.424C71.7509 126.47 64.3881 129.097 55.2908 132.291C46.1907 135.486 38.8029 138.038 38.7864 137.992C38.7704 137.945 46.1319 135.318 55.232 132.123C64.3288 128.929 71.7185 126.377 71.7344 126.424Z" fill="#DADBD8"/>
<path d="M38.8463 155.987L35.8608 157.034C34.7716 157.417 33.5791 156.842 33.1974 155.75L32.1523 152.756C31.7707 151.664 32.3445 150.469 33.4339 150.086L36.4196 149.038C37.509 148.655 38.7013 149.23 39.0827 150.323L40.1282 153.316C40.5095 154.408 39.9359 155.604 38.8463 155.987Z" fill="#E7E8E5"/>
<path d="M36.0554 154.191L36.05 154.193L35.9131 154.177L34.546 153.382C34.4641 153.335 34.4364 153.23 34.4839 153.148C34.531 153.066 34.6361 153.039 34.7175 153.086L35.9232 153.786L37.367 150.69C37.4071 150.604 37.5095 150.567 37.5945 150.607C37.6803 150.648 37.7173 150.749 37.6772 150.835L36.1539 154.101L36.0554 154.191Z" fill="white"/>
<path d="M75.2077 136.369C75.2236 136.415 67.8608 139.042 58.7639 142.236C49.6635 145.431 42.2757 147.983 42.2595 147.937C42.243 147.89 49.6047 145.262 58.7047 142.068C67.8015 138.874 75.1912 136.322 75.2077 136.369Z" fill="#DADBD8"/>
<path d="M57.9166 148.145C57.9209 148.156 57.7303 148.236 57.3827 148.369C57.0054 148.509 56.5072 148.694 55.9045 148.918C54.6539 149.374 52.9219 149.993 51.0055 150.666C49.0884 151.339 47.3497 151.939 46.0884 152.364C45.4783 152.566 44.9737 152.733 44.5916 152.86C44.237 152.974 44.0388 153.03 44.0347 153.019C44.0306 153.007 44.221 152.928 44.5687 152.795C44.946 152.654 45.4441 152.469 46.0468 152.245C47.2974 151.789 49.0294 151.17 50.9467 150.497C52.8631 149.824 54.6016 149.224 55.8629 148.799C56.4731 148.597 56.9777 148.429 57.3597 148.303C57.7145 148.19 57.9128 148.133 57.9166 148.145Z" fill="#DADBD8"/>
<path d="M75.9939 138.62C76.0104 138.668 68.6476 141.295 59.5505 144.489C50.4504 147.684 43.0626 150.236 43.0462 150.189C43.0299 150.142 50.3914 147.515 59.4916 144.32C68.5883 141.126 75.978 138.574 75.9939 138.62Z" fill="#DADBD8"/>
<path d="M10.6809 86.2308L12.1777 90.5158C13.046 93.0025 15.7602 94.3124 18.2403 93.442L49.5999 82.4312C52.0798 81.5608 53.3863 78.8388 52.5176 76.3527L51.0241 72.0756L10.6809 86.2308Z" fill="#DADBD8"/>
<path d="M28.8866 73.598C27.4552 74.1 26.6985 75.6765 27.1997 77.1114C27.7009 78.5469 29.2732 79.3051 30.7043 78.8025C32.1354 78.2999 32.8922 76.724 32.3909 75.2891C31.8897 73.8536 30.3179 73.0954 28.8866 73.598ZM31.2698 80.4219C28.9484 81.2365 26.3981 80.0063 25.5849 77.6784C24.7721 75.3511 25.9995 72.7939 28.3211 71.9787C30.6427 71.1635 33.1926 72.3942 34.0057 74.7222C34.8186 77.0495 33.5914 79.6067 31.2698 80.4219Z" fill="#DADBD8"/>
<path d="M56.3357 91.5382C56.3641 91.6198 48.0955 94.5968 37.8693 98.1874C27.6394 101.779 19.3266 104.624 19.2979 104.542C19.2695 104.461 27.5365 101.484 37.7664 97.8926C47.9923 94.302 56.3073 91.4567 56.3357 91.5382Z" fill="#DADBD8"/>
<path d="M45.7457 93.0626C45.7739 93.1441 42.1341 94.4963 37.6166 96.0825C33.0973 97.6688 29.4121 98.8892 29.3837 98.8077C29.355 98.7261 32.9943 97.3746 37.5134 95.7877C42.0312 94.2014 45.7173 92.9817 45.7457 93.0626Z" fill="#DADBD8"/>
<path d="M208.669 217.264C210.865 216.128 213.449 215.98 215.887 216.385C217.197 216.602 218.562 216.995 219.453 217.981C220.344 218.967 220.512 220.703 219.49 221.55C218.88 222.055 218.032 222.131 217.241 222.122C215.333 222.1 213.216 221.762 211.692 222.914C210.822 223.571 210.243 224.662 209.203 224.985C208.186 225.301 207.038 224.7 206.498 223.779C205.959 222.858 205.94 221.707 206.192 220.67C206.192 220.67 206.457 218.408 208.669 217.264Z" fill="#AE41D9"/>
<path d="M203.639 207.528C204.981 209.45 207.591 208.814 208.8 207.641C210.01 206.467 210.521 204.766 210.987 203.145C212.05 199.439 213.123 195.551 212.332 191.777C212.096 190.649 211.674 189.524 210.884 188.687C210.093 187.85 208.878 187.352 207.766 187.646C206.45 187.995 205.632 189.287 205.042 190.516C203.304 194.129 202.384 198.134 202.371 202.144C202.365 204.017 202.585 205.982 203.639 207.528Z" fill="#AE41D9"/>
<path d="M199.951 210.286C201.409 208.552 201.686 206.022 201.038 203.849C200.388 201.676 198.924 199.827 197.235 198.318C195.254 196.549 192.927 195.171 190.424 194.29C189.44 193.942 188.402 193.668 187.362 193.768C186.323 193.867 185.277 194.4 184.792 195.327C184.076 196.697 184.763 198.359 185.506 199.716C186.815 202.105 188.312 204.39 189.979 206.545C191.319 208.278 192.855 209.987 194.898 210.77C196.941 211.553 199.063 211.461 200.146 210.041" fill="#AE41D9"/>
<path d="M203.548 236.529C203.573 236.531 203.614 236.22 203.669 235.656C203.73 235.02 203.808 234.222 203.9 233.272C204.011 232.269 204.157 231.074 204.435 229.775C204.713 228.478 205.146 227.072 205.703 225.647C206.28 224.23 206.983 222.943 207.805 221.913C208.621 220.879 209.57 220.13 210.463 219.697C211.352 219.257 212.15 219.079 212.701 218.999C213.257 218.942 213.568 218.898 213.569 218.873C213.569 218.848 213.257 218.844 212.685 218.86C212.12 218.897 211.289 219.041 210.352 219.468C209.412 219.886 208.405 220.647 207.548 221.702C206.686 222.754 205.957 224.07 205.369 225.512C204.803 226.963 204.376 228.383 204.111 229.707C203.847 231.03 203.726 232.237 203.647 233.248C203.572 234.261 203.543 235.081 203.529 235.647C203.516 236.214 203.523 236.528 203.548 236.529Z" fill="#17282F"/>
<path d="M203.712 234.695C203.724 234.695 203.732 234.554 203.735 234.29C203.734 233.984 203.733 233.601 203.732 233.131C203.729 232.124 203.729 230.668 203.783 228.871C203.873 225.275 204.181 221.406 204.777 215.951C205.342 210.821 206.1 204.851 206.9 200.97C207.072 200.087 207.244 199.293 207.407 198.597C207.562 197.9 207.694 197.299 207.822 196.813C207.932 196.355 208.022 195.982 208.093 195.686C208.151 195.427 208.175 195.29 208.163 195.287C208.151 195.283 208.103 195.413 208.023 195.666C207.934 195.958 207.823 196.325 207.687 196.777C207.538 197.259 207.386 197.856 207.211 198.55C207.03 199.243 206.839 200.036 206.651 200.916C205.859 204.434 205.022 209.349 204.42 214.818C203.822 220.284 203.553 225.262 203.53 228.866C203.508 230.668 203.546 232.127 203.592 233.134C203.621 233.604 203.644 233.988 203.663 234.292C203.683 234.557 203.699 234.696 203.712 234.695Z" fill="#17282F"/>
<path d="M203.736 225.095C203.761 225.094 203.756 224.663 203.727 223.884C203.683 223.105 203.576 221.981 203.358 220.603C203.126 219.229 202.802 217.596 202.293 215.824C202.073 215.012 201.554 213.07 200.3 210.167C198.646 206.234 196.4 203.02 194.446 201.027C193.987 200.499 193.477 200.118 193.069 199.744C192.857 199.565 192.67 199.386 192.48 199.245C192.288 199.113 192.11 198.989 191.946 198.875C191.302 198.434 190.942 198.202 190.929 198.223C190.871 198.302 192.369 199.186 194.261 201.204C196.146 203.218 198.33 206.411 199.97 210.31C200.884 212.426 201.522 214.313 201.974 215.914C202.497 217.67 202.845 219.286 203.107 220.647C203.357 222.011 203.501 223.124 203.588 223.896C203.66 224.667 203.711 225.096 203.736 225.095Z" fill="#17282F"/>
<path d="M194.48 242.029L195.44 255.208H212.327L213.286 242.029H194.48Z" fill="#AE41D9"/>
<path d="M192.85 236.835V242.029H215.301V236.835H192.85Z" fill="#AE41D9"/>
<path d="M192.85 254.704V256.145H214.929V254.704H192.85Z" fill="#AE41D9"/>
<path d="M194.939 258.679L193.905 256.145H214.126L212.919 258.679H194.939Z" fill="#AE41D9"/>
<path d="M212.972 246.337C212.976 246.34 212.949 246.381 212.894 246.458C212.827 246.547 212.743 246.658 212.641 246.794C212.401 247.101 212.073 247.524 211.658 248.056L211.614 248.111L211.571 248.053C210.953 247.196 210.127 246.05 209.155 244.702H209.294C208.575 245.723 207.774 246.859 206.914 248.08L206.84 248.186L206.757 248.086C205.879 247.038 204.924 245.901 203.935 244.719L204.097 244.718C204.048 244.78 203.995 244.846 203.942 244.914C203.067 246.013 202.22 247.078 201.419 248.085L201.335 248.19L201.257 248.081C200.401 246.865 199.6 245.73 198.877 244.704L199.015 244.71C197.842 246.05 196.846 247.187 196.083 248.059L196.031 248.119L195.992 248.052C195.605 247.401 195.297 246.881 195.073 246.505C194.978 246.338 194.9 246.202 194.838 246.094C194.786 245.999 194.761 245.95 194.766 245.947C194.77 245.944 194.804 245.988 194.864 246.077C194.932 246.181 195.018 246.313 195.125 246.473C195.36 246.843 195.683 247.353 196.088 247.992L195.997 247.984C196.748 247.101 197.727 245.951 198.881 244.594L198.955 244.509L199.02 244.601C199.75 245.623 200.558 246.753 201.422 247.962L201.26 247.958C202.06 246.951 202.904 245.884 203.778 244.783C203.831 244.715 203.884 244.648 203.933 244.587L204.013 244.485L204.096 244.584C205.083 245.768 206.034 246.908 206.909 247.957L206.752 247.964C207.62 246.75 208.429 245.618 209.155 244.603L209.225 244.504L209.294 244.603C210.246 245.966 211.055 247.123 211.66 247.99L211.574 247.988C212.005 247.469 212.348 247.058 212.597 246.757C212.708 246.629 212.798 246.524 212.871 246.44C212.935 246.369 212.968 246.334 212.972 246.337Z" fill="#2A2B44"/>
<path d="M213.522 241.943C213.522 242.001 209.29 242.048 204.072 242.048C198.852 242.048 194.622 242.001 194.622 241.943C194.622 241.885 198.852 241.837 204.072 241.837C209.29 241.837 213.522 241.885 213.522 241.943Z" fill="#33535F"/>
<path d="M214.374 256.286C214.374 256.344 209.776 256.392 204.104 256.392C198.432 256.392 193.834 256.344 193.834 256.286C193.834 256.229 198.432 256.181 204.104 256.181C209.776 256.181 214.374 256.229 214.374 256.286Z" fill="#17282F"/>
<path d="M47.7957 214.241C47.7494 214.298 47.364 214.065 46.9348 213.721C46.5055 213.376 46.1948 213.05 46.2412 212.992C46.2872 212.935 46.6726 213.167 47.102 213.512C47.5311 213.856 47.8418 214.182 47.7957 214.241Z" fill="#17282F"/>
<path d="M59.5065 196.69C59.5772 195.05 59.6235 193.369 59.107 191.811C58.5907 190.254 57.3932 188.821 55.7901 188.489C53.9607 188.109 52.0861 189.266 51.0609 190.832C50.036 192.398 49.6835 194.3 49.3805 196.148C47.2938 208.885 46.5238 221.838 47.0856 234.734L54.572 235.787C57.86 222.317 58.9088 210.544 59.5065 196.69Z" fill="#33535F"/>
<path d="M54.7509 188.43C54.7549 188.433 54.7435 188.473 54.7167 188.55C54.6838 188.642 54.6427 188.754 54.5933 188.891C54.4713 189.208 54.3046 189.641 54.0944 190.187C53.99 190.47 53.8513 190.775 53.7396 191.125C53.6276 191.476 53.506 191.855 53.3763 192.262C53.245 192.671 53.1048 193.106 52.9565 193.567C52.8345 194.038 52.7056 194.535 52.5704 195.056C52.0052 197.136 51.5369 199.664 51.124 202.484C50.7193 205.306 50.4535 208.433 50.2445 211.718C49.8617 218.294 49.8018 224.264 49.6332 228.581C49.5532 230.74 49.4794 232.486 49.397 233.692C49.3576 234.276 49.3263 234.74 49.3031 235.08C49.2907 235.224 49.2805 235.343 49.2719 235.44C49.2635 235.521 49.2571 235.563 49.2523 235.562C49.2477 235.562 49.2451 235.52 49.2446 235.438C49.2459 235.34 49.2475 235.222 49.2495 235.077C49.2599 234.736 49.2745 234.272 49.2931 233.687C49.3433 232.48 49.3884 230.733 49.444 228.575C49.5644 224.259 49.594 218.289 49.9775 211.702C50.1867 208.411 50.4606 205.278 50.8802 202.449C51.3077 199.623 51.7969 197.089 52.3873 195.007C52.5293 194.486 52.6652 193.99 52.7937 193.519C52.9491 193.058 53.0962 192.623 53.2345 192.215C53.3721 191.81 53.5008 191.432 53.6199 191.081C53.7391 190.734 53.8853 190.43 53.9975 190.149C54.2279 189.61 54.4099 189.182 54.5436 188.869C54.6033 188.736 54.652 188.628 54.6922 188.539C54.7268 188.466 54.7464 188.428 54.7509 188.43Z" fill="#17282F"/>
<path d="M55.4446 188.434C55.4446 188.434 55.9035 188.908 56.3591 189.988C56.8301 191.059 57.1257 192.764 57.0417 194.843C56.843 198.991 56.4726 204.706 55.9799 211.016C55.4852 217.327 54.9364 223.032 54.4946 227.156C54.2737 229.218 54.0824 230.885 53.9416 232.037C53.8702 232.594 53.8136 233.035 53.7718 233.361C53.7515 233.499 53.7348 233.611 53.7209 233.704C53.708 233.782 53.6992 233.821 53.6947 233.821C53.6898 233.82 53.6898 233.78 53.6937 233.702C53.7004 233.607 53.7085 233.494 53.7183 233.355C53.7479 233.028 53.7875 232.584 53.8379 232.025C53.9511 230.846 54.1104 229.183 54.3067 227.137C54.7 223.009 55.2184 217.304 55.7135 210.995C56.2056 204.689 56.6059 198.971 56.8528 194.837C56.9593 192.772 56.6971 191.096 56.2627 190.026C55.8436 188.95 55.4116 188.454 55.4446 188.434Z" fill="#17282F"/>
<path d="M60.6344 207.861C60.6099 207.931 59.9744 207.766 59.2157 207.493C58.4571 207.22 57.8622 206.942 57.8872 206.873C57.9119 206.803 58.547 206.968 59.3059 207.241C60.0647 207.513 60.6594 207.791 60.6344 207.861Z" fill="#17282F"/>
<path d="M61.5361 200.211C61.5667 200.279 60.9621 200.616 60.187 200.964C59.4111 201.312 58.758 201.539 58.7279 201.472C58.6976 201.404 59.3017 201.067 60.0776 200.719C60.8527 200.372 61.5062 200.144 61.5361 200.211Z" fill="#17282F"/>
<path d="M61.0692 193.968C61.0637 194.042 60.5642 194.067 59.9533 194.025C59.3418 193.983 58.8502 193.888 58.8553 193.814C58.8605 193.741 59.3601 193.715 59.9714 193.758C60.5826 193.8 61.0741 193.894 61.0692 193.968Z" fill="#17282F"/>
<path d="M53.3436 189.967C53.2813 190.007 52.9535 189.597 52.6117 189.053C52.27 188.508 52.0434 188.035 52.1062 187.995C52.1685 187.956 52.4964 188.365 52.8381 188.91C53.1798 189.454 53.4064 189.928 53.3436 189.967Z" fill="#17282F"/>
<path d="M50.7909 193.743C50.7893 193.816 50.3131 193.866 49.7278 193.854C49.1418 193.841 48.6685 193.771 48.6699 193.697C48.6716 193.623 49.1476 193.573 49.7336 193.586C50.3189 193.599 50.7926 193.668 50.7909 193.743Z" fill="#17282F"/>
<path d="M48.958 201.297C48.9303 201.366 48.4294 201.227 47.8392 200.989C47.249 200.751 46.7928 200.501 46.8205 200.432C46.848 200.364 47.3488 200.501 47.9393 200.74C48.5294 200.979 48.9855 201.228 48.958 201.297Z" fill="#17282F"/>
<path d="M48.7623 207.65C48.7775 207.722 48.351 207.873 47.8097 207.986C47.2685 208.101 46.8174 208.134 46.8024 208.061C46.7871 207.989 47.2136 207.838 47.7547 207.724C48.2961 207.61 48.747 207.577 48.7623 207.65Z" fill="#17282F"/>
<path d="M47.8997 218.041C47.9129 218.113 47.4601 218.255 46.8884 218.358C46.3168 218.46 45.843 218.485 45.8301 218.412C45.8172 218.339 46.2697 218.197 46.8414 218.095C47.4129 217.992 47.8867 217.968 47.8997 218.041Z" fill="#17282F"/>
<path d="M47.3269 223.777C47.3613 223.842 46.9837 224.11 46.4837 224.375C45.9834 224.64 45.55 224.803 45.5154 224.738C45.4807 224.672 45.8583 224.404 46.3586 224.138C46.8586 223.873 47.2923 223.711 47.3269 223.777Z" fill="#17282F"/>
<path d="M51.9986 230.287C51.9346 230.324 51.6054 229.869 51.2636 229.27C50.9219 228.672 50.6967 228.157 50.7609 228.12C50.825 228.083 51.1538 228.539 51.496 229.137C51.8377 229.735 52.0626 230.25 51.9986 230.287Z" fill="#17282F"/>
<path d="M53.3467 219.468C53.3983 219.521 53.0317 219.965 52.5281 220.46C52.0242 220.956 51.5741 221.315 51.5225 221.261C51.4705 221.208 51.837 220.764 52.3409 220.269C52.8445 219.774 53.2949 219.415 53.3467 219.468Z" fill="#17282F"/>
<path d="M53.0483 213.791C52.9938 213.841 52.654 213.561 52.2889 213.167C51.9235 212.771 51.6716 212.41 51.7255 212.359C51.78 212.309 52.1198 212.588 52.4849 212.984C52.8503 213.379 53.1022 213.74 53.0483 213.791Z" fill="#17282F"/>
<path d="M53.9748 206.538C54.0298 206.587 53.7244 207.019 53.2923 207.502C52.8609 207.985 52.4661 208.337 52.4109 208.288C52.356 208.238 52.6614 207.806 53.0934 207.323C53.5249 206.84 53.9199 206.488 53.9748 206.538Z" fill="#17282F"/>
<path d="M54.4966 201.273C54.445 201.326 54.0187 200.99 53.5447 200.523C53.0707 200.057 52.7283 199.635 52.7801 199.582C52.8319 199.529 53.2582 199.865 53.7322 200.332C54.2062 200.799 54.5484 201.22 54.4966 201.273Z" fill="#17282F"/>
<path d="M55.5215 194.158C55.5847 194.195 55.3708 194.672 55.0437 195.223C54.716 195.773 54.3991 196.188 54.3359 196.151C54.2724 196.113 54.4863 195.636 54.8139 195.086C55.1413 194.535 55.458 194.12 55.5215 194.158Z" fill="#17282F"/>
<path d="M57.4496 187.563C57.5148 187.599 57.3252 188.076 57.0267 188.629C56.7282 189.184 56.4335 189.603 56.3688 189.569C56.3036 189.534 56.493 189.056 56.7915 188.502C57.0899 187.949 57.3847 187.528 57.4496 187.563Z" fill="#17282F"/>
<path d="M59.6371 190.558C59.6691 190.625 59.3696 190.835 58.9684 191.028C58.567 191.22 58.216 191.322 58.184 191.256C58.152 191.188 58.4514 190.978 58.8528 190.786C59.254 190.593 59.6056 190.492 59.6371 190.558Z" fill="#17282F"/>
<path d="M59.6895 214.241C59.6752 214.31 58.996 214.217 58.2254 213.885C57.4529 213.556 56.9159 213.131 56.956 213.071C56.9973 213.007 57.5823 213.321 58.3303 213.639C59.076 213.96 59.7074 214.166 59.6895 214.241Z" fill="#17282F"/>
<path d="M58.7955 219.257C58.8095 219.33 58.3584 219.478 57.7884 219.589C57.2182 219.699 56.7447 219.729 56.7308 219.657C56.717 219.583 57.1676 219.435 57.7381 219.325C58.3081 219.215 58.7816 219.185 58.7955 219.257Z" fill="#17282F"/>
<path d="M57.6968 227.858C57.6536 227.913 57.0815 227.521 56.5568 226.854C56.0288 226.19 55.7781 225.542 55.8421 225.512C55.9108 225.478 56.2578 226.049 56.7665 226.688C57.2709 227.329 57.7468 227.799 57.6968 227.858Z" fill="#17282F"/>
<path d="M45.6634 231.791C45.6154 231.735 45.9195 231.395 46.3429 231.032C46.7658 230.669 47.1479 230.42 47.1958 230.476C47.2438 230.533 46.9398 230.872 46.5165 231.235C46.0936 231.598 45.7115 231.847 45.6634 231.791Z" fill="#17282F"/>
<path d="M42.2038 213.019C41.7171 211.494 40.8025 209.716 39.2051 209.692C38.2571 209.679 37.4046 210.361 36.959 211.2C36.5132 212.039 36.3243 213.012 36.3517 213.962C36.5346 220.238 37.6192 227.416 39.7852 233.954H45.6302C45.5553 226.69 44.4124 219.937 42.2038 213.019Z" fill="#33535F"/>
<path d="M31.6332 203.417C30.8162 200.14 28.3791 198.37 25.5481 198.206C22.9646 198.661 21.9625 201.211 21.6557 203.822C21.3488 206.434 22.1577 209.033 22.9564 211.539C25.5211 219.582 28.0858 227.625 30.6505 235.668C33.0743 235.402 35.4981 235.137 37.9222 234.871C35.6206 224.096 34.2989 214.108 31.6332 203.417Z" fill="#33535F"/>
<path d="M39.2048 209.692C39.2301 209.713 38.9653 209.956 38.7095 210.522C38.4564 211.091 38.3347 211.998 38.4361 213.113C38.5493 214.227 38.6766 215.569 38.8626 217.038C39.0534 218.511 39.3178 220.124 39.6461 221.807C40.3071 225.173 41.0517 228.195 41.5243 230.397C41.7638 231.497 41.9443 232.391 42.0585 233.011C42.107 233.295 42.1473 233.532 42.1805 233.726C42.2056 233.89 42.2142 233.977 42.2053 233.978C42.1963 233.981 42.1698 233.897 42.1277 233.736C42.0814 233.545 42.0251 233.313 41.9565 233.032C41.8013 232.379 41.593 231.503 41.3402 230.439C40.8206 228.25 40.0468 225.235 39.3839 221.858C39.0544 220.169 38.796 218.55 38.6181 217.069C38.525 216.329 38.4633 215.623 38.4037 214.962C38.3502 214.306 38.2785 213.691 38.2475 213.126C38.1682 211.995 38.3224 211.052 38.615 210.478C38.9102 209.906 39.2048 209.692 39.2048 209.692Z" fill="#17282F"/>
<path d="M25.6533 197.999C25.6784 198.021 25.2662 198.369 24.7745 199.183C24.2843 199.988 23.7639 201.3 23.668 202.998C23.5569 204.694 23.9339 206.708 24.5673 208.868C25.2061 211.037 25.9067 213.418 26.6424 215.918C28.0927 220.915 29.4048 225.437 30.3646 228.745C30.8224 230.368 31.1956 231.691 31.463 232.64C31.5815 233.082 31.6763 233.435 31.7486 233.703C31.811 233.947 31.8397 234.076 31.8308 234.079C31.8218 234.082 31.7761 233.958 31.697 233.718C31.6126 233.454 31.5017 233.105 31.363 232.67C31.0757 231.727 30.675 230.412 30.1831 228.798C29.204 225.496 27.8651 220.982 26.3857 215.994C25.6569 213.49 24.9629 211.107 24.3304 208.934C23.7071 206.762 23.3415 204.714 23.4791 202.985C23.6013 201.257 24.1606 199.928 24.6864 199.127C25.2139 198.317 25.6533 197.999 25.6533 197.999Z" fill="#17282F"/>
<path d="M36.3363 234.092C36.3279 234.095 36.2716 233.975 36.1723 233.743C36.0768 233.509 35.922 233.169 35.7582 232.718C35.4112 231.821 34.9668 230.502 34.5074 228.846C34.0453 227.19 33.5911 225.194 33.1522 222.966C32.7307 220.733 32.2684 218.284 31.7827 215.713C31.2769 213.146 30.714 210.718 30.0605 208.551C29.4085 206.383 28.6776 204.476 27.9404 202.933C27.207 201.388 26.5061 200.191 25.9803 199.391C25.7301 198.983 25.503 198.688 25.3674 198.474C25.2272 198.265 25.1567 198.152 25.1641 198.147C25.1715 198.14 25.256 198.243 25.411 198.443C25.5605 198.646 25.8024 198.932 26.0665 199.333C26.6215 200.118 27.3513 201.307 28.1109 202.851C28.8741 204.393 29.6282 206.304 30.2962 208.479C30.966 210.653 31.5384 213.089 32.0451 215.661C32.5234 218.235 32.9788 220.684 33.3941 222.918C33.8191 225.145 34.2528 227.14 34.6901 228.797C35.1247 230.453 35.5399 231.777 35.8561 232.682C36.0044 233.138 36.1434 233.483 36.2227 233.723C36.3055 233.961 36.3449 234.089 36.3363 234.092Z" fill="#17282F"/>
<path d="M23.0864 210.335C23.104 210.407 22.7083 210.565 22.2031 210.688C21.6977 210.811 21.2739 210.852 21.2564 210.78C21.239 210.709 21.6345 210.55 22.14 210.427C22.645 210.305 23.0689 210.263 23.0864 210.335Z" fill="#17282F"/>
<path d="M22.3159 205.359C22.3121 205.434 21.7627 205.465 21.0897 205.492C20.4163 205.518 19.8664 205.531 19.8566 205.456C19.8468 205.384 20.3917 205.251 21.0792 205.224C21.766 205.197 22.32 205.287 22.3159 205.359Z" fill="#17282F"/>
<path d="M23.1352 200.814C23.0875 200.871 22.6925 200.614 22.2531 200.24C21.8135 199.866 21.4958 199.517 21.5439 199.461C21.5916 199.404 21.9866 199.661 22.426 200.036C22.8656 200.409 23.183 200.758 23.1352 200.814Z" fill="#17282F"/>
<path d="M25.3533 196.608C25.4266 196.624 25.4068 196.978 25.3955 197.407C25.382 197.836 25.3815 198.191 25.3069 198.203C25.2363 198.216 25.114 197.858 25.1281 197.399C25.1403 196.941 25.2831 196.59 25.3533 196.608Z" fill="#17282F"/>
<path d="M29.8864 198.59C29.9469 198.633 29.7692 198.992 29.4895 199.392C29.2099 199.792 28.9341 200.083 28.8737 200.041C28.813 199.998 28.9907 199.639 29.2703 199.238C29.5502 198.838 29.826 198.547 29.8864 198.59Z" fill="#17282F"/>
<path d="M32.8281 203.714C32.8558 203.782 32.4794 204.001 31.9873 204.203C31.4946 204.403 31.0729 204.511 31.0452 204.442C31.017 204.374 31.3939 204.155 31.886 203.953C32.3782 203.752 32.7999 203.645 32.8281 203.714Z" fill="#17282F"/>
<path d="M34.6129 208.985C34.6427 209.05 34.1439 209.336 33.4599 209.49C32.776 209.646 32.2036 209.605 32.2027 209.533C32.1993 209.457 32.745 209.379 33.4005 209.228C34.0569 209.081 34.5825 208.915 34.6129 208.985Z" fill="#17282F"/>
<path d="M26.4192 207.488C26.3485 207.466 26.3999 207.102 26.5334 206.674C26.6668 206.248 26.8321 205.918 26.9025 205.941C26.973 205.963 26.9219 206.327 26.7887 206.755C26.6551 207.182 26.4897 207.51 26.4192 207.488Z" fill="#17282F"/>
<path d="M27.5624 214.106C27.4946 214.077 27.6419 213.586 27.8912 213.011C28.1405 212.435 28.3977 211.992 28.4653 212.021C28.5331 212.051 28.3858 212.541 28.1367 213.118C27.8872 213.693 27.63 214.136 27.5624 214.106Z" fill="#17282F"/>
<path d="M24.7387 215.919C24.7103 215.988 24.2492 215.862 23.6916 215.688C23.1342 215.512 22.6839 215.352 22.6999 215.279C22.7152 215.208 23.2013 215.252 23.7713 215.431C24.3416 215.61 24.7666 215.851 24.7387 215.919Z" fill="#17282F"/>
<path d="M26.3665 221.315C26.4094 221.374 26.0978 221.672 25.6706 221.978C25.2432 222.283 24.8623 222.482 24.8193 222.421C24.7768 222.361 25.0879 222.064 25.5151 221.759C25.9426 221.453 26.3235 221.254 26.3665 221.315Z" fill="#17282F"/>
<path d="M27.6716 226.695C27.6893 226.767 27.3039 226.923 26.8113 227.043C26.3183 227.163 25.905 227.202 25.8875 227.13C25.8699 227.058 26.2553 226.903 26.7482 226.782C27.2408 226.662 27.6545 226.623 27.6716 226.695Z" fill="#17282F"/>
<path d="M34.7564 213.48C34.7937 213.542 34.4641 213.806 33.9842 213.986C33.5049 214.168 33.0839 214.188 33.071 214.117C33.0564 214.043 33.4344 213.909 33.8898 213.735C34.3462 213.564 34.7184 213.415 34.7564 213.48Z" fill="#17282F"/>
<path d="M35.7686 221.85C35.737 221.917 35.3447 221.799 34.8917 221.585C34.4389 221.371 34.0975 221.143 34.1292 221.077C34.1605 221.01 34.5531 221.129 35.0058 221.343C35.4584 221.555 35.8001 221.783 35.7686 221.85Z" fill="#17282F"/>
<path d="M37.5555 227.84C37.5285 227.908 37.0104 227.77 36.3978 227.529C35.7853 227.288 35.3106 227.037 35.3375 226.968C35.3645 226.899 35.8827 227.038 36.4952 227.279C37.1075 227.52 37.5825 227.771 37.5555 227.84Z" fill="#17282F"/>
<path d="M27.958 232.532C27.9217 232.465 28.3986 232.144 28.9493 231.707C29.5026 231.274 29.9267 230.885 29.9833 230.937C30.0375 230.984 29.6884 231.468 29.1145 231.918C28.5426 232.371 27.9903 232.596 27.958 232.532Z" fill="#17282F"/>
<path d="M32.6817 229.487C32.606 229.495 32.5033 229.093 32.3209 228.625C32.142 228.156 31.9483 227.789 32.0104 227.745C32.0667 227.701 32.3767 228.022 32.5702 228.529C32.7662 229.033 32.7528 229.481 32.6817 229.487Z" fill="#17282F"/>
<path d="M31.4297 222.283C31.3863 222.343 31.0813 222.197 30.7482 221.957C30.4151 221.718 30.1799 221.474 30.2228 221.414C30.2658 221.354 30.5708 221.5 30.9044 221.74C31.2375 221.979 31.4728 222.223 31.4297 222.283Z" fill="#17282F"/>
<path d="M42.4403 210.994C42.484 211.053 42.1869 211.348 41.7764 211.651C41.3662 211.955 40.9977 212.152 40.9537 212.093C40.9101 212.033 41.2074 211.739 41.6176 211.435C42.0281 211.132 42.3961 210.934 42.4403 210.994Z" fill="#17282F"/>
<path d="M44.0996 215.543C44.1066 215.614 43.6411 215.712 43.0656 215.648C42.4896 215.588 42.0558 215.392 42.0777 215.323C42.0995 215.251 42.5462 215.324 43.0943 215.382C43.6418 215.443 44.0939 215.467 44.0996 215.543Z" fill="#17282F"/>
<path d="M36.9668 216.563C36.9825 216.633 36.552 216.788 35.9951 216.824C35.4382 216.863 34.9909 216.766 34.9974 216.694C35.0034 216.619 35.4422 216.593 35.9772 216.557C36.5121 216.522 36.9512 216.489 36.9668 216.563Z" fill="#17282F"/>
<path d="M37.5793 212.262C37.574 212.333 37.1385 212.345 36.6621 212.123C36.1845 211.905 35.9096 211.566 35.96 211.516C36.0114 211.459 36.3392 211.683 36.7741 211.88C37.2063 212.082 37.5888 212.186 37.5793 212.262Z" fill="#17282F"/>
<path d="M44.7119 220.425C44.6725 220.488 44.2269 220.277 43.7161 219.956C43.2053 219.633 42.8232 219.321 42.8627 219.259C42.9021 219.196 43.3481 219.406 43.8584 219.729C44.3693 220.051 44.7514 220.363 44.7119 220.425Z" fill="#17282F"/>
<path d="M62.117 239.953H24.0608V233.189H62.117V239.953Z" fill="#AE41D9"/>
<path d="M26.9028 238.61L31.5305 258.82H54.2117L59.2749 238.61H26.9028Z" fill="#AE41D9"/>
<path d="M62.0955 239.961C62.0955 240.035 53.5116 240.095 42.925 240.095C32.3349 240.095 23.7527 240.035 23.7527 239.961C23.7527 239.887 32.3349 239.827 42.925 239.827C53.5116 239.827 62.0955 239.887 62.0955 239.961Z" fill="#17282F"/>
<path d="M40.9318 216.71C40.869 216.749 40.6092 216.445 40.3508 216.031C40.0927 215.617 39.9341 215.249 39.9969 215.211C40.0595 215.171 40.3195 215.475 40.5776 215.889C40.836 216.304 40.9944 216.671 40.9318 216.71Z" fill="#17282F"/>
<path d="M40.9458 222.151C40.8753 222.128 40.9644 221.668 41.1446 221.124C41.3247 220.58 41.5277 220.159 41.5979 220.182C41.6676 220.206 41.5788 220.665 41.3985 221.209C41.2184 221.752 41.0155 222.174 40.9458 222.151Z" fill="#17282F"/>
<path d="M42.803 227.863C42.7364 227.895 42.4522 227.439 42.1681 226.844C41.8839 226.248 41.7076 225.74 41.774 225.708C41.8409 225.676 42.1251 226.132 42.4095 226.728C42.6934 227.323 42.8699 227.831 42.803 227.863Z" fill="#17282F"/>
<path d="M38.7838 232.459C38.7281 232.41 38.955 232.057 39.291 231.669C39.627 231.28 39.9444 231.006 40.0003 231.054C40.0559 231.102 39.8293 231.456 39.493 231.844C39.1573 232.232 38.8397 232.507 38.7838 232.459Z" fill="#17282F"/>
<path d="M37.9399 224.115C37.9273 224.188 37.5609 224.184 37.1221 224.106C36.6831 224.028 36.338 223.907 36.3507 223.833C36.3636 223.761 36.7297 223.765 37.1686 223.842C37.6075 223.92 37.9528 224.042 37.9399 224.115Z" fill="#17282F"/>
<path d="M80.0918 258.868H170.338V186.712H80.0918V258.868Z" fill="#DADBD8"/>
<path d="M162.314 186.712H131.968L162.348 186.611C162.336 186.645 162.325 186.679 162.314 186.712Z" fill="#A7A9A8"/>
<path d="M142.568 227.502L131.337 223.384L129.936 227.321C129.594 226.342 129.376 225.311 129.223 224.285C128.558 219.811 129.053 215.169 130.647 210.938C131.556 208.526 132.812 206.247 133.537 203.773C134.262 201.301 134.398 198.5 133.121 196.263C131.947 194.208 129.736 192.923 127.45 192.327C125.165 191.73 122.774 191.733 120.413 191.689C109.01 191.475 97.2913 190.665 86.6665 186.863L131.968 186.712H162.314C157.847 200.058 150.323 213.946 143.366 226.165C143.114 226.606 142.849 227.056 142.568 227.502Z" fill="#8F9192"/>
<path d="M110.841 258.482C110.753 258.482 110.682 242.489 110.682 222.766C110.682 203.035 110.753 187.045 110.841 187.045C110.929 187.045 111 203.035 111 222.766C111 242.489 110.929 258.482 110.841 258.482Z" fill="#33535F"/>
<path d="M147.821 133.388C147.553 131.589 142.188 125.64 142.188 125.64C142.188 125.64 139.507 114.847 138.702 111.665C138.502 110.869 138.07 109.965 137.536 109.058C135.664 105.874 132.919 103.296 129.706 101.485L122.284 97.2998L120.507 93.3377L102.672 84.1504L97.8367 92.7033C97.8367 92.7033 86.0932 96.4459 84.5392 99.1189C82.9846 101.792 85.3101 137.61 85.3101 137.61C85.3101 137.61 80.3944 158.282 79.3582 162.558C78.322 166.835 79.692 171.938 79.692 171.938L88.4382 160.932C91.1556 157.512 97.1239 155.941 101.409 156.001L138.034 156.164L136.577 145.878L166.191 151.652C166.191 151.652 171.287 141.69 171.689 141.49C172.091 141.289 147.821 133.388 147.821 133.388Z" fill="#AE41D9"/>
<path d="M101.91 96.0659C101.653 95.8036 103.981 103.682 106.901 111.706C108.474 116.029 109.263 120.615 109.263 125.233V142.897V154.285L126.824 153.089L124.199 133.951C124.199 133.951 122.058 121.606 121.459 116.911C120.91 112.612 119.024 100.954 119.024 100.954C119.024 100.954 109.263 103.574 101.91 96.0659Z" fill="white"/>
<path d="M140.878 140.607C140.857 140.605 140.852 140.447 140.877 140.164C140.901 139.88 140.969 139.472 141.108 138.98C141.378 138.001 142.004 136.679 143.114 135.564C144.225 134.448 145.542 133.818 146.518 133.544C147.009 133.404 147.416 133.335 147.698 133.31C147.981 133.284 148.138 133.29 148.14 133.311C148.148 133.365 147.525 133.432 146.587 133.759C145.653 134.08 144.406 134.718 143.34 135.789C142.274 136.86 141.641 138.112 141.322 139.049C140.997 139.99 140.932 140.614 140.878 140.607Z" fill="#17282F"/>
<path d="M141.782 133.637C141.744 133.567 142.898 132.981 144.464 132.858C146.028 132.723 147.262 133.112 147.235 133.187C147.217 133.282 145.996 133.045 144.49 133.176C142.983 133.293 141.817 133.727 141.782 133.637Z" fill="#17282F"/>
<path d="M95.8554 156.001C95.7925 156.001 95.7295 156.001 95.6665 156.001C93.1619 155.995 90.6341 155.924 88.2022 155.324C85.8474 154.742 83.7836 153.226 82.1721 151.402C89.7422 153.113 97.9345 154.285 97.9345 154.285L98.5874 151.523C101.395 152.106 104.18 152.802 106.933 153.607C106.974 154.3 106.397 154.912 105.738 155.125C105.466 155.213 105.185 155.248 104.9 155.248C104.495 155.248 104.084 155.178 103.686 155.092C103.073 154.961 102.458 154.793 101.834 154.793C101.769 154.793 101.703 154.795 101.638 154.798C100.606 154.86 99.6793 155.426 98.6852 155.713C97.7713 155.978 96.8085 156.001 95.8554 156.001Z" fill="#7300A0"/>
<path d="M133.67 151.712L129.361 147.123L120.497 144.874C120.497 144.874 112.376 147.314 112.181 147.306C111.987 147.3 105.113 145.423 105.113 145.423L102.71 154.259L115.091 155.109L129.227 154.542C129.227 154.542 129.964 153.853 129.527 153.382C129.09 152.912 131.891 154.178 132.22 154.194C132.544 154.209 133.19 154.462 133.626 153.933C133.924 153.572 134.328 152.412 133.67 151.712Z" fill="#945B4B"/>
<path d="M129.527 153.383C129.511 153.427 128.978 153.254 128.119 152.981C127.26 152.708 126.071 152.342 124.742 152.001C123.411 151.66 122.193 151.407 121.309 151.229C120.426 151.052 119.877 150.941 119.884 150.895C119.889 150.854 120.449 150.885 121.346 151.007C122.245 151.128 123.479 151.348 124.821 151.691C126.161 152.036 127.35 152.439 128.194 152.768C129.038 153.098 129.543 153.344 129.527 153.383Z" fill="#5A3A31"/>
<path d="M133.67 151.711C133.651 151.756 132.911 151.479 131.703 151.075C130.496 150.667 128.81 150.168 126.935 149.642C125.062 149.085 123.394 148.527 122.13 148.453C120.87 148.345 120.101 148.595 120.089 148.532C120.084 148.515 120.269 148.438 120.62 148.353C120.971 148.268 121.496 148.204 122.143 148.227C123.449 148.245 125.168 148.784 127.022 149.335C128.898 149.861 130.585 150.397 131.779 150.863C132.377 151.092 132.853 151.296 133.178 151.446C133.503 151.596 133.678 151.691 133.67 151.711Z" fill="#5A3A31"/>
<path d="M84.5392 99.119C84.5392 99.119 78.1496 103.574 76.595 109.989C75.041 116.404 68.3054 142.6 69.687 146.52C71.0686 150.44 97.9345 154.285 97.9345 154.285L101.118 140.817L87.4748 137.075C87.4748 137.075 87.6472 124.601 87.8202 119.434C87.9926 114.266 84.5392 99.119 84.5392 99.119Z" fill="#AE41D9"/>
<path d="M100.939 142.826L105.335 143.911L102.691 154.076L98.3711 153.382L100.939 142.826Z" fill="white"/>
<path d="M69.5861 145.134C69.6088 145.134 69.5733 145.358 69.6515 145.769C69.7384 146.172 69.9994 146.758 70.5881 147.297C71.7557 148.387 73.9852 149.295 76.8132 149.805L76.8224 149.807L76.8328 149.81C78.1257 150.236 79.5966 150.574 81.1714 150.931C82.7486 151.285 84.4395 151.647 86.2276 152.011C89.8021 152.744 93.7573 153.515 97.9474 154.301L97.7652 154.42C98.069 153.171 98.39 151.85 98.7152 150.511C99.469 147.42 100.199 144.427 100.891 141.588L100.998 141.773C96.4863 140.482 92.369 139.304 88.8735 138.303L88.8661 138.301L88.8594 138.298C87.0083 137.538 85.167 137.261 83.5708 137.369C81.9673 137.443 80.623 137.873 79.5795 138.31C78.5341 138.758 77.7858 139.246 77.2864 139.583C77.0553 139.752 76.8713 139.886 76.7307 139.989C76.6048 140.08 76.5381 140.125 76.5345 140.12C76.5302 140.115 76.5889 140.06 76.7075 139.96C76.8279 139.861 77.0015 139.707 77.2436 139.523C77.732 139.166 78.4736 138.655 79.5232 138.181C80.5704 137.72 81.9282 137.264 83.5586 137.17C85.181 137.042 87.0615 137.306 88.9548 138.068L88.9407 138.063C92.4418 139.048 96.5639 140.207 101.082 141.477L101.225 141.517L101.19 141.661C100.501 144.5 99.7746 147.495 99.0245 150.586C98.6987 151.926 98.3765 153.246 98.0727 154.495L98.0366 154.641L97.8899 154.613C93.6974 153.821 89.744 153.04 86.1702 152.289C84.3827 151.916 82.6917 151.544 81.1145 151.179C79.5379 150.809 78.0738 150.461 76.7594 150.014L76.779 150.019C73.9204 149.474 71.6848 148.53 70.5068 147.382C69.9144 146.817 69.6601 146.198 69.5916 145.78C69.5311 145.355 69.5861 145.134 69.5861 145.134Z" fill="#17282F"/>
<path d="M88.2113 137.968C88.1734 138.009 87.7185 137.59 86.8987 137.04C86.0814 136.488 84.871 135.84 83.4295 135.416C81.9855 134.997 80.6174 134.893 79.6325 134.918C78.6465 134.942 78.0382 135.049 78.0284 134.994C78.0199 134.963 78.6171 134.775 79.6215 134.692C80.6229 134.608 82.035 134.679 83.5181 135.11C85 135.545 86.2293 136.245 87.0283 136.856C87.8316 137.466 88.2345 137.946 88.2113 137.968Z" fill="#17282F"/>
<path d="M90 116.026C90.022 116.028 90.0245 116.32 90.0092 116.848C89.9976 117.376 89.9517 118.138 89.8802 119.081C89.7298 120.962 89.4498 123.559 88.9589 126.4C88.4778 129.244 87.861 131.788 87.2643 133.586C87.1146 134.034 86.9605 134.434 86.8291 134.787C86.683 135.116 86.5534 135.409 86.4384 135.669C86.1866 136.137 86.0386 136.389 86.0197 136.378C86.0007 136.367 86.1108 136.096 86.3253 135.618C86.4244 135.354 86.5362 135.057 86.6622 134.723C86.7771 134.368 86.9153 133.967 87.0498 133.517C87.5871 131.717 88.1654 129.179 88.6453 126.346C89.1338 123.516 89.4486 120.932 89.6558 119.059C89.7475 118.17 89.8246 117.426 89.8857 116.84C89.9383 116.315 89.978 116.025 90 116.026Z" fill="#17282F"/>
<path d="M105.581 109.079C105.56 109.084 105.517 108.911 105.369 108.625C105.219 108.344 104.946 107.942 104.451 107.619C103.97 107.297 103.227 107.069 102.462 107.327C101.712 107.57 100.972 108.278 100.785 109.231L100.699 109.667L100.512 109.264C99.8686 107.875 99.2102 106.27 98.6442 104.531C97.611 101.375 97.1654 98.3523 97.2632 96.1696C97.2601 95.6241 97.3396 95.1337 97.3708 94.7022C97.4447 94.275 97.4991 93.906 97.5652 93.6094C97.7198 93.0191 97.8152 92.6979 97.8366 92.7034C97.9155 92.7188 97.4747 94.0114 97.4881 96.1739C97.449 98.3284 97.9228 101.302 98.9474 104.433C99.5086 106.157 100.152 107.755 100.775 109.143L100.502 109.176C100.729 108.102 101.557 107.349 102.39 107.098C103.246 106.832 104.054 107.114 104.548 107.476C105.061 107.842 105.322 108.282 105.451 108.586C105.515 108.74 105.552 108.863 105.567 108.948C105.584 109.033 105.588 109.077 105.581 109.079Z" fill="#17282F"/>
<path d="M120.486 110.458C120.465 110.46 120.424 110.202 120.345 109.729C120.279 109.258 120.123 108.564 120.215 107.674C120.337 106.802 120.749 105.744 121.689 104.96C122.153 104.574 122.791 104.316 123.466 104.32C124.133 104.319 124.862 104.58 125.337 105.159L125.067 105.314C124.881 104.844 124.686 104.35 124.487 103.849C123.347 100.961 122.331 98.3412 121.611 96.4392C121.274 95.529 120.992 94.7702 120.774 94.1806C120.582 93.6448 120.487 93.3451 120.507 93.3378C120.528 93.3298 120.663 93.6148 120.89 94.137C121.133 94.7181 121.446 95.4647 121.822 96.3602C122.596 98.2425 123.645 100.85 124.785 103.738C124.983 104.239 125.177 104.733 125.362 105.203L125.735 106.149L125.092 105.358C124.692 104.866 124.061 104.628 123.464 104.623C122.86 104.615 122.296 104.832 121.862 105.18C120.989 105.879 120.56 106.888 120.423 107.703C120.308 108.541 120.426 109.24 120.457 109.715C120.502 110.192 120.505 110.457 120.486 110.458Z" fill="#17282F"/>
<path d="M131.823 111.979C131.911 111.967 133.292 121.285 134.909 132.79C136.525 144.299 137.766 153.635 137.679 153.647C137.592 153.66 136.21 144.343 134.593 132.834C132.977 121.33 131.736 111.991 131.823 111.979Z" fill="#17282F"/>
<path d="M100.354 111.553C99.4952 109.536 98.9853 107.361 98.8557 105.162C99.3704 106.659 99.9469 108.045 100.512 109.264L100.699 109.667L100.785 109.231C100.972 108.278 101.712 107.57 102.463 107.327C102.694 107.249 102.923 107.215 103.144 107.215C103.267 107.215 103.387 107.226 103.505 107.245C104.134 107.441 104.703 107.867 105.12 108.4C105.71 109.153 106.029 110.097 106.222 111.044C105.446 110.235 104.405 109.548 103.334 109.548C103.147 109.548 102.958 109.569 102.771 109.614C101.758 109.857 101.019 110.729 100.354 111.553ZM100.616 108.785C100.293 108.051 99.9677 107.264 99.6529 106.435L100.632 108.741C100.627 108.756 100.621 108.77 100.616 108.785ZM100.726 108.529C100.91 107.994 101.341 107.566 101.855 107.33C101.399 107.591 100.987 108.002 100.726 108.529Z" fill="#7300A0"/>
<path d="M100.7 109.667L100.512 109.264C99.947 108.045 99.3705 106.659 98.8558 105.162C98.8447 104.985 98.8368 104.808 98.8313 104.631L98.904 104.672L99.6529 106.435C99.9677 107.264 100.293 108.051 100.616 108.785C100.621 108.77 100.627 108.756 100.632 108.741L100.657 108.797C100.673 108.705 100.696 108.616 100.726 108.529C100.987 108.002 101.399 107.591 101.856 107.33C102.121 107.209 102.409 107.138 102.697 107.13C102.718 107.13 102.74 107.13 102.761 107.13C103.014 107.13 103.264 107.17 103.505 107.245C103.388 107.226 103.267 107.215 103.144 107.215C102.923 107.215 102.694 107.249 102.463 107.327C101.712 107.57 100.972 108.278 100.785 109.231L100.7 109.667Z" fill="#0F191D"/>
<path d="M88.5079 111.367C88.4486 111.366 88.4688 110.725 88.2836 109.723C88.1014 108.725 87.6557 107.369 86.7968 106.078C86.3646 105.437 85.8792 104.88 85.3999 104.412C84.906 103.961 84.4328 103.582 83.9988 103.319C83.1405 102.775 82.5347 102.566 82.5555 102.51C82.5622 102.49 82.7174 102.528 82.9938 102.618C83.1338 102.659 83.3007 102.72 83.4865 102.81C83.6742 102.896 83.893 102.987 84.1143 103.125C84.5753 103.371 85.0784 103.742 85.5992 104.197C86.1054 104.667 86.6146 105.238 87.0615 105.901C87.9498 107.236 88.3771 108.654 88.5061 109.687C88.5709 110.205 88.5892 110.627 88.5654 110.918C88.5489 111.209 88.5299 111.367 88.5079 111.367Z" fill="#17282F"/>
<path d="M123.99 67.6244C123.266 60.8189 117.449 55.7144 110.626 55.8903L109.948 55.9074C102.647 56.5247 99.09 63.0862 99.9073 70.3869L101.91 96.0659L102.759 97.1098C106.684 101.941 113.36 103.518 119.024 100.954L118.463 92.6923C118.463 92.6923 125.465 91.4156 125.371 84.3662C125.326 80.9613 124.662 73.956 123.99 67.6244Z" fill="#945B4B"/>
<path d="M118.518 92.6807C118.518 92.6807 114.036 93.0674 109.239 90.216C109.239 90.216 111.535 95.2317 118.532 94.4159L118.518 92.6807Z" fill="#5A3A31"/>
<path d="M121.768 73.4546C121.8 73.9854 121.378 74.4506 120.825 74.4948C120.274 74.5383 119.8 74.1454 119.768 73.614C119.735 73.0832 120.157 72.6167 120.708 72.5732C121.261 72.5291 121.735 72.9238 121.768 73.4546Z" fill="#17282F"/>
<path d="M122.214 69.6226C122.135 69.7464 121.337 69.831 120.388 70.3465C119.435 70.8534 118.866 71.5043 118.732 71.4951C118.668 71.4933 118.726 71.3168 118.971 71.0287C119.213 70.7437 119.667 70.3483 120.26 70.0296C120.852 69.7115 121.407 69.5638 121.751 69.5337C122.102 69.5013 122.255 69.5644 122.214 69.6226Z" fill="#17282F"/>
<path d="M111.621 73.9892C111.653 74.52 111.231 74.9852 110.679 75.0293C110.128 75.0735 109.654 74.68 109.621 74.1486C109.589 73.6177 110.011 73.1519 110.562 73.1078C111.115 73.0636 111.589 73.4578 111.621 73.9892Z" fill="#17282F"/>
<path d="M111.467 71.1047C111.326 71.1353 110.671 70.6916 109.624 70.4329C108.579 70.1675 107.727 70.2343 107.632 70.1448C107.586 70.1038 107.743 70.0247 108.117 69.9916C108.484 69.9573 109.083 69.9842 109.735 70.1473C110.387 70.3109 110.899 70.5616 111.177 70.7578C111.46 70.9551 111.535 71.0924 111.467 71.1047Z" fill="#17282F"/>
<path d="M115.704 79.5208C115.698 79.4596 116.366 79.3253 117.45 79.158C117.725 79.1224 117.985 79.0605 118.027 78.8705C118.087 78.6695 117.964 78.374 117.822 78.0559C117.545 77.3933 117.256 76.6989 116.952 75.9713C115.742 73.0023 114.86 70.5591 114.979 70.5107C115.099 70.4628 116.176 72.8306 117.386 75.7991C117.677 76.5315 117.956 77.2297 118.222 77.8972C118.334 78.2085 118.523 78.561 118.392 78.979C118.323 79.1874 118.125 79.3431 117.949 79.3952C117.774 79.4534 117.619 79.4602 117.483 79.4724C116.389 79.5595 115.711 79.5821 115.704 79.5208Z" fill="#17282F"/>
<path d="M111.483 66.9201C111.362 67.2094 110.291 67.0176 109.018 67.1089C107.743 67.1745 106.704 67.4963 106.549 67.2241C106.48 67.0942 106.672 66.8263 107.098 66.5616C107.521 66.2968 108.187 66.0583 108.951 66.0111C109.715 65.9646 110.405 66.119 110.857 66.3299C111.313 66.5401 111.536 66.7828 111.483 66.9201Z" fill="#17282F"/>
<path d="M122.187 67.161C121.953 67.4093 121.022 67.1629 119.906 67.1629C118.79 67.131 117.847 67.3492 117.627 67.0942C117.53 66.9704 117.677 66.7222 118.087 66.485C118.491 66.2484 119.17 66.0522 119.937 66.0633C120.704 66.0749 121.371 66.2913 121.761 66.5389C122.158 66.7878 122.29 67.0397 122.187 67.161Z" fill="#17282F"/>
<path d="M126.039 61.3902C125.906 60.751 125.277 60.2103 124.632 60.3066C124.976 60.1834 125.33 60.0553 125.601 59.8113C125.874 59.5674 126.049 59.1763 125.934 58.8288C125.753 58.2839 125.058 58.1717 124.507 58.0148C123.789 57.8107 123.138 57.3743 122.674 56.7877C122.005 55.9412 121.748 54.8404 121.17 53.9296C120.424 52.7497 119.125 51.9381 117.74 51.7849C116.354 51.6323 114.911 52.141 113.925 53.1284C112.851 52.0227 111.232 51.4778 109.71 51.7107C108.188 51.943 106.804 52.947 106.107 54.3237C104.242 53.5452 101.965 53.8664 100.387 55.1309C98.8092 56.3954 97.9943 58.5511 98.3397 60.5468L102.718 63.237C102.789 61.88 104.3 60.8031 105.601 61.18C106.923 61.5631 107.768 63.0973 109.139 63.2015C110.207 63.2824 111.116 62.4525 112.151 62.1748C113.406 61.8377 114.732 62.3421 115.864 62.982C116.996 63.6213 118.072 64.4169 119.332 64.7363C120.809 65.1096 122.383 64.7823 123.792 64.2036C124.396 63.956 124.994 63.6532 125.444 63.1788C125.893 62.705 126.174 62.0302 126.039 61.3902Z" fill="#17282F"/>
<path d="M103.479 61.1677L123.528 61.053C122.867 59.6843 121.724 58.6056 120.49 57.7205C117.831 55.813 114.596 54.6656 111.326 54.6993C108.058 54.733 101.516 58.909 99.211 61.2338C97.3667 63.0947 97.4223 64.659 97.4223 64.659C97.193 67.2719 98.7293 70.1919 99.3785 72.7332C99.7129 74.0443 100.399 78.0186 100.399 78.0186H100.399C101.503 77.9836 101.889 77.0918 101.691 76.002L101.366 71.7145C101.366 71.7145 105.046 68.9342 103.131 64.0871C102.835 63.7052 102.177 61.9332 103.479 61.1677Z" fill="#17282F"/>
<path d="M101.053 71.4289C100.032 67.8689 99.0953 64.0546 100.18 60.5137C99.9817 60.5057 99.783 60.4971 99.5844 60.4892L99.3368 60.6706C98.215 60.2924 96.8731 60.7208 96.1762 61.6795C95.4793 62.6381 95.483 64.0503 96.1848 65.0053C94.9976 64.9495 93.8575 65.9455 93.7493 67.1328C93.6747 67.9517 94.0299 68.7436 94.3942 69.481C94.7592 70.2177 95.151 70.9814 95.1565 71.804C95.1614 72.6272 94.6363 73.5202 93.8214 73.6183C94.1864 74.4611 95.206 74.9582 96.0925 74.724C95.8106 75.4203 95.3271 76.032 94.7158 76.466C96.0216 77.3578 97.8146 77.0532 99.2347 76.3593C100.078 75.9481 100.905 75.3615 101.249 74.4874C101.63 73.519 101.339 72.4298 101.053 71.4289Z" fill="#17282F"/>
<path d="M100.726 75.5767C100.605 75.5276 95.8597 74.2687 96.1367 79.0827C96.4136 83.8961 101.177 82.6249 101.177 82.4857C101.178 82.3478 100.726 75.5767 100.726 75.5767Z" fill="#945B4B"/>
<path d="M100.028 80.7358C100.006 80.7211 99.9482 80.7996 99.8101 80.8725C99.6762 80.943 99.4414 81.0006 99.1859 80.9209C98.6681 80.764 98.1943 79.9813 98.1216 79.1146C98.0837 78.6782 98.1515 78.2553 98.2866 77.901C98.4126 77.54 98.6253 77.2813 98.8784 77.2206C99.129 77.1471 99.3185 77.2899 99.3852 77.4223C99.4573 77.5528 99.4323 77.6509 99.4585 77.6577C99.4726 77.6693 99.5564 77.5706 99.5068 77.3745C99.4812 77.2801 99.4182 77.1697 99.3002 77.0839C99.1798 76.9963 99.0074 76.9583 98.8307 76.9877C98.4621 77.0349 98.1485 77.3959 97.9999 77.7851C97.8318 78.1768 97.745 78.6525 97.7872 79.1434C97.874 80.1112 98.4211 80.9908 99.1272 81.1514C99.4695 81.2201 99.7453 81.1018 99.8846 80.9798C100.026 80.8523 100.045 80.7432 100.028 80.7358Z" fill="#5A3A31"/>
<path d="M95.7405 71.584C95.7264 71.5938 95.606 71.4026 95.6524 71.0244C95.6971 70.656 95.9624 70.1221 96.5499 69.7697C97.1306 69.4148 97.9333 69.3284 98.7494 69.237C99.557 69.1494 100.479 68.9195 100.941 68.1209C101.403 67.3431 101.415 66.3912 101.317 65.5937C101.202 64.7859 100.989 64.051 100.884 63.4197C100.63 62.1447 100.873 61.332 100.916 61.3541C100.973 61.3626 100.831 62.1435 101.143 63.3663C101.278 63.9805 101.517 64.6946 101.658 65.5459C101.777 66.3844 101.794 67.4044 101.26 68.317C100.993 68.7663 100.566 69.1077 100.116 69.2879C99.664 69.4724 99.2091 69.5356 98.7885 69.5803C97.9498 69.6539 97.2113 69.7127 96.6776 70.002C96.1513 70.2803 95.875 70.7332 95.7949 71.0526C95.7105 71.3805 95.7735 71.5779 95.7405 71.584Z" fill="#33535F"/>
<path d="M94.5814 69.4846C94.5625 69.492 94.4756 69.3473 94.4329 69.0494C94.3937 68.7564 94.4163 68.2973 94.6725 67.8113C94.8003 67.571 94.9867 67.3271 95.2429 67.1242C95.4947 66.9127 95.8383 66.7821 96.1641 66.6927C96.4912 66.597 96.8311 66.5125 97.0762 66.3175C97.3201 66.1245 97.4302 65.8051 97.4375 65.4355C97.4516 65.0684 97.3959 64.6822 97.4051 64.2961C97.4106 63.9136 97.4552 63.5458 97.5274 63.2032C97.6778 62.5155 97.9254 61.935 98.2163 61.4821C98.5061 61.0162 98.9689 60.7888 99.2794 60.8048C99.5973 60.8078 99.7306 60.9513 99.7165 60.9635C99.7031 60.9929 99.5558 60.909 99.2904 60.9507C99.0245 60.9838 98.6767 61.1915 98.4407 61.6237C98.2029 62.0521 97.9865 62.6246 97.8661 63.2706C97.8068 63.5949 97.7719 63.9406 97.7713 64.2985C97.7664 64.6534 97.8257 65.031 97.8116 65.4502C97.8098 65.8584 97.66 66.3378 97.3043 66.605C96.957 66.8674 96.5762 66.9372 96.2564 67.0255C95.5987 67.1542 95.1591 67.5214 94.9024 67.9424C94.3937 68.8049 94.6535 69.4877 94.5814 69.4846Z" fill="#33535F"/>
<path d="M122.677 56.792C122.707 56.7987 122.315 57.0543 121.686 56.7577C121.378 56.6204 121.074 56.3304 120.779 55.9835C120.485 55.6317 120.151 55.2572 119.664 54.9924C118.726 54.4573 117.208 54.3188 116.044 55.2327C115.45 55.6642 114.925 56.2673 114.234 56.7718C113.888 57.0194 113.487 57.24 113.032 57.3289C112.577 57.4184 112.095 57.3547 111.665 57.199C110.799 56.887 110.116 56.3556 109.37 56.0834C108.625 55.7947 107.85 55.6672 107.115 55.6771C105.634 55.6801 104.353 56.2397 103.479 56.9311C102.589 57.6213 102.069 58.3991 101.762 58.9483C101.463 59.5073 101.355 59.8469 101.324 59.8371C101.312 59.8328 101.328 59.7451 101.371 59.5802C101.417 59.416 101.5 59.1788 101.632 58.8821C101.906 58.2998 102.408 57.4705 103.314 56.7233C104.203 55.9756 105.548 55.3534 107.11 55.3314C107.886 55.3117 108.708 55.4386 109.501 55.7402C110.307 56.0338 111.003 56.5677 111.788 56.8447C112.178 56.9851 112.579 57.0353 112.963 56.9618C113.345 56.8888 113.699 56.7007 114.021 56.4726C114.667 56.0099 115.205 55.4067 115.842 54.9526C116.469 54.4781 117.241 54.2483 117.939 54.2569C118.642 54.2599 119.285 54.4591 119.796 54.7619C120.314 55.0635 120.669 55.4938 120.94 55.8487C121.218 56.206 121.48 56.4825 121.752 56.6277C122.304 56.9391 122.679 56.7558 122.677 56.792Z" fill="#33535F"/>
<path d="M113.036 80.7824C113.188 80.7475 113.363 81.7766 114.364 82.3583C115.364 82.9437 116.439 82.6433 116.471 82.7855C116.496 82.848 116.261 83.027 115.801 83.1171C115.351 83.2097 114.665 83.1754 114.052 82.8186C113.441 82.4613 113.109 81.9029 113.004 81.4867C112.892 81.0626 112.964 80.788 113.036 80.7824Z" fill="#17282F"/>
<path d="M176.3 176.552C174.484 174.93 171.975 174.176 169.546 174.318L165.416 187.481C168.443 187.614 171.463 189.18 174.386 188.378C176.733 187.733 178.513 185.523 178.839 183.106C179.165 180.688 178.117 178.175 176.3 176.552Z" fill="#AE41D9"/>
<path d="M169.619 174.008C169.628 173.902 170.068 173.819 170.871 173.828C171.669 173.85 172.852 173.941 174.252 174.466C175.655 174.987 177.185 176.052 178.37 177.672C178.961 178.482 179.457 179.445 179.743 180.527C180.034 181.607 180.086 182.811 179.845 183.98C179.606 185.15 179.093 186.249 178.344 187.122C177.594 188.005 176.633 188.615 175.678 188.976C173.75 189.701 171.899 189.586 170.482 189.313C169.051 189.03 167.973 188.612 167.243 188.304C166.514 187.989 166.134 187.758 166.165 187.654C166.198 187.548 166.643 187.579 167.418 187.708C168.191 187.831 169.294 188.073 170.638 188.195C171.971 188.316 173.587 188.275 175.128 187.613C175.889 187.285 176.6 186.79 177.149 186.118C177.702 185.446 178.096 184.588 178.285 183.66C178.681 181.788 178.117 179.923 177.167 178.514C176.216 177.089 174.971 176.075 173.801 175.5C172.621 174.909 171.533 174.648 170.787 174.443C170.037 174.249 169.611 174.121 169.619 174.008Z" fill="#F3F2F1"/>
<path d="M131.337 223.384L122.35 248.629L153.619 260C154.519 256.939 140.518 245.043 140.518 245.043L146.938 229.105L131.337 223.384Z" fill="#AE41D9"/>
<path d="M131.143 242.726C131.11 242.726 131.077 242.724 131.044 242.721C130.38 242.655 129.848 241.973 129.929 241.309C130.005 240.685 130.596 240.18 131.217 240.165C131.253 240.16 131.288 240.157 131.324 240.157C131.945 240.157 132.539 240.875 132.532 241.506C132.526 242.142 131.787 242.726 131.143 242.726Z" fill="#F9ACB4"/>
<path d="M122.35 248.629L123.257 246.081L152.959 257.961C152.959 257.961 154.132 259.074 153.619 260L122.35 248.629Z" fill="white"/>
<path d="M141.083 245.068C141.022 245.219 140.234 245.011 139.304 245.23C138.369 245.425 137.742 245.946 137.624 245.835C137.493 245.754 138.053 244.922 139.182 244.677C140.31 244.421 141.166 244.939 141.083 245.068Z" fill="#17282F"/>
<path d="M143.87 247.621C143.852 247.781 143.096 247.801 142.343 248.26C141.577 248.697 141.193 249.349 141.043 249.288C140.891 249.259 141.109 248.325 142.056 247.772C142.998 247.211 143.92 247.473 143.87 247.621Z" fill="#17282F"/>
<path d="M144.31 252.233C144.159 252.216 144.223 251.373 144.918 250.678C145.609 249.977 146.449 249.908 146.467 250.059C146.508 250.216 145.881 250.498 145.319 251.077C144.744 251.644 144.467 252.273 144.31 252.233Z" fill="#17282F"/>
<path d="M142.144 241.272C142.03 241.389 141.405 240.923 140.521 240.668C139.642 240.395 138.865 240.441 138.833 240.281C138.785 240.138 139.645 239.81 140.683 240.125C141.722 240.432 142.262 241.18 142.144 241.272Z" fill="#17282F"/>
<path d="M142.745 237.282C142.723 237.346 142.086 237.221 141.181 236.705C140.731 236.447 140.223 236.084 139.726 235.604C139.478 235.364 139.232 235.096 138.999 234.798C138.889 234.653 138.752 234.497 138.66 234.257C138.548 234.036 138.599 233.595 138.885 233.417C139.132 233.235 139.453 233.234 139.681 233.311C139.914 233.387 140.083 233.501 140.239 233.606C140.556 233.817 140.84 234.051 141.091 234.295C141.59 234.784 141.95 235.305 142.191 235.771C142.673 236.708 142.714 237.37 142.651 237.38C142.563 237.406 142.383 236.798 141.847 235.973C141.578 235.563 141.211 235.106 140.735 234.676C140.496 234.463 140.23 234.257 139.937 234.071C139.637 233.864 139.356 233.759 139.218 233.876C139.166 233.921 139.154 233.941 139.188 234.064C139.228 234.18 139.33 234.316 139.439 234.46C139.65 234.741 139.871 235 140.094 235.235C140.542 235.704 140.996 236.079 141.398 236.367C142.203 236.944 142.777 237.201 142.745 237.282Z" fill="#17282F"/>
<path d="M142.466 237.43C142.404 237.433 142.3 236.774 142.602 235.763C142.754 235.261 143.02 234.684 143.437 234.121C143.648 233.841 143.895 233.567 144.181 233.313C144.477 233.069 144.851 232.736 145.467 232.884C145.78 232.985 145.95 233.32 145.963 233.559C145.99 233.809 145.944 233.998 145.915 234.193C145.84 234.58 145.703 234.937 145.533 235.251C145.194 235.883 144.72 236.339 144.278 236.63C143.373 237.22 142.669 237.172 142.676 237.115C142.652 237.02 143.292 236.918 144.041 236.307C144.411 236.005 144.8 235.573 145.071 235.011C145.206 234.732 145.313 234.423 145.37 234.094C145.442 233.743 145.414 233.428 145.278 233.417C145.123 233.359 144.768 233.513 144.544 233.732C144.282 233.956 144.05 234.197 143.848 234.443C143.447 234.937 143.166 235.449 142.978 235.899C142.602 236.803 142.558 237.436 142.466 237.43Z" fill="#17282F"/>
<path d="M101.041 155.956C96.2974 156.066 91.7974 156.738 88.5311 160.187C84.198 164.763 78.8392 171.28 78.5353 175.8C78.0805 182.555 82.1446 184.563 85.1126 186.21C86.4251 186.938 87.9216 187.267 89.4212 187.209L144.245 186.791L145.966 177.481L110.508 168.719L111.981 155.338L101.041 155.956Z" fill="#17282F"/>
<path d="M111.981 155.338L129.227 154.542C129.227 154.542 159.019 156.202 165.375 162.043C171.729 167.884 170.936 174.521 168.817 180.892C166.699 187.264 148.031 228.016 148.031 228.016C148.031 228.016 149.544 230.607 148.693 233.193C147.375 237.197 143.824 237.842 143.824 237.842L127.245 231.734C127.245 231.734 124.994 230.937 126.584 228.813C128.172 226.689 129.231 226.291 129.231 226.291V222.043C129.231 222.043 135.057 211.424 135.586 209.963C136.116 208.503 141.699 186.889 141.699 186.889L145.408 180.499C145.408 180.499 136.438 176.27 128.664 173.205L110.508 168.719L111.981 155.338Z" fill="#17282F"/>
<path d="M139.953 230.964C139.92 231.004 139.398 230.589 138.499 230.008C137.602 229.424 136.307 228.701 134.785 228.119C133.261 227.54 131.814 227.218 130.757 227.057C129.7 226.893 129.035 226.855 129.036 226.803C129.036 226.767 129.707 226.725 130.787 226.833C131.863 226.939 133.346 227.231 134.898 227.82C136.448 228.414 137.75 229.183 138.626 229.821C139.504 230.459 139.977 230.937 139.953 230.964Z" fill="#33535F"/>
<path d="M148.24 228.046C148.206 228.073 147.835 227.687 147.276 227.029C146.717 226.371 145.973 225.437 145.192 224.375C144.413 223.311 143.745 222.322 143.285 221.591C142.825 220.859 142.567 220.39 142.604 220.366C142.641 220.342 142.965 220.766 143.472 221.463C144.05 222.26 144.715 223.175 145.449 224.185C146.193 225.189 146.866 226.097 147.452 226.888C147.965 227.58 148.274 228.017 148.24 228.046Z" fill="#33535F"/>
<path d="M154.316 174.664C154.326 174.715 153.707 174.848 152.745 175.168C151.783 175.486 150.486 176.028 149.175 176.846C147.866 177.668 146.811 178.598 146.103 179.325C145.394 180.051 145.005 180.55 144.962 180.518C144.933 180.498 145.261 179.948 145.939 179.171C146.614 178.393 147.67 177.415 149.006 176.575C150.345 175.74 151.687 175.218 152.679 174.952C153.673 174.682 154.31 174.629 154.316 174.664Z" fill="#33535F"/>
<path d="M137.356 203.521C137.345 203.519 137.369 203.394 137.424 203.162C137.491 202.897 137.575 202.562 137.679 202.149C137.924 201.232 138.261 199.975 138.672 198.44C139.551 195.279 140.746 190.982 142.065 186.235C142.753 183.854 143.344 181.583 144.007 179.528C144.778 177.489 145.999 175.915 147.128 174.753C148.269 173.586 149.336 172.801 150.093 172.303C150.476 172.059 150.776 171.874 150.987 171.763C151.196 171.647 151.309 171.592 151.314 171.601C151.328 171.625 150.899 171.883 150.163 172.406C149.432 172.932 148.395 173.737 147.292 174.909C146.196 176.076 145.017 177.639 144.282 179.63C143.646 181.656 143.056 183.953 142.37 186.326C141.016 191.062 139.79 195.349 138.888 198.502C138.437 200.026 138.067 201.273 137.798 202.183C137.671 202.589 137.568 202.919 137.486 203.18C137.411 203.407 137.367 203.524 137.356 203.521Z" fill="#33535F"/>
<path d="M122.101 172.39C122.014 172.398 121.651 169.165 121.292 165.17C120.932 161.173 120.711 157.928 120.799 157.92C120.887 157.912 121.249 161.145 121.609 165.141C121.968 169.136 122.189 172.382 122.101 172.39Z" fill="#33535F"/>
<path d="M93.3966 181.022C93.3477 181.046 93.0818 180.523 92.542 179.756C92.0053 178.989 91.1586 177.999 90.0374 177.117C88.9126 176.24 87.7498 175.655 86.8775 175.319C86.0051 174.979 85.4341 174.847 85.4457 174.794C85.4512 174.76 86.0424 174.814 86.9533 175.106C87.8623 175.394 89.077 175.963 90.233 176.866C91.386 177.772 92.2302 178.816 92.7291 179.631C93.2316 180.446 93.4272 181.009 93.3966 181.022Z" fill="#33535F"/>
<path d="M103.962 169.285C103.932 169.334 103.2 168.863 101.934 168.286C100.671 167.706 98.8429 167.071 96.7436 166.765C94.6431 166.466 92.7101 166.561 91.3352 166.762C89.9579 166.958 89.1247 167.204 89.1088 167.148C89.1027 167.126 89.3056 167.05 89.681 166.93C90.0533 166.804 90.6077 166.667 91.2998 166.538C92.6826 166.278 94.6511 166.145 96.7889 166.448C98.9254 166.76 100.777 167.443 102.031 168.082C102.659 168.4 103.153 168.689 103.475 168.914C103.801 169.136 103.974 169.267 103.962 169.285Z" fill="#33535F"/>
<path d="M145.259 177.472C145.256 177.483 145.108 177.457 144.829 177.4C144.52 177.334 144.115 177.245 143.611 177.136C142.52 176.89 141.003 176.548 139.143 176.129C135.37 175.282 130.149 174.145 124.362 172.996C118.573 171.847 113.314 170.903 109.503 170.246C107.625 169.923 106.091 169.658 104.99 169.47C104.482 169.378 104.075 169.305 103.763 169.249C103.483 169.195 103.337 169.162 103.339 169.151C103.341 169.14 103.49 169.152 103.773 169.186C104.087 169.226 104.497 169.28 105.008 169.346C106.08 169.492 107.629 169.722 109.54 170.023C113.362 170.624 118.631 171.533 124.424 172.683C130.215 173.833 135.431 175.005 139.193 175.909C141.075 176.361 142.594 176.74 143.64 177.015C144.138 177.149 144.538 177.256 144.844 177.338C145.118 177.415 145.261 177.461 145.259 177.472Z" fill="#33535F"/>
<path d="M110.508 170.297C110.446 170.315 110.318 169.571 109.749 168.54C109.46 168.03 109.044 167.464 108.494 166.914C107.951 166.359 107.284 165.807 106.575 165.25C105.144 164.15 103.69 163.373 102.648 162.805C101.599 162.241 100.95 161.889 100.97 161.847C100.989 161.81 101.671 162.089 102.749 162.602C103.822 163.123 105.308 163.875 106.769 164.996C107.489 165.563 108.156 166.126 108.705 166.71C109.259 167.287 109.675 167.891 109.947 168.433C110.218 168.978 110.363 169.449 110.437 169.778C110.51 170.107 110.527 170.292 110.508 170.297Z" fill="#33535F"/>
<path d="M171.57 178.609C171.641 178.677 170.723 179.606 170.009 181.019C169.28 182.424 169.062 183.713 168.966 183.695C168.887 183.696 168.969 182.337 169.726 180.873C170.471 179.404 171.524 178.544 171.57 178.609Z" fill="#17282F"/>
<path d="M136.45 143.955L136.254 143.512L132.33 115.795C132.396 115.956 132.462 116.118 132.526 116.279C133.099 120.083 133.964 126.063 134.909 132.79C135.485 136.893 136.013 140.719 136.451 143.946C136.45 143.949 136.45 143.952 136.45 143.955Z" fill="#0F191D"/>
<path d="M153.465 131.723L140.704 154.1L109.263 154.785L109.185 156.213L139.629 155.986L140.594 155.953L172.742 156.016L179.238 144.783L187.537 132.858C188.081 132.076 187.521 131.004 186.57 131.008L154.48 131.13C154.06 131.132 153.673 131.358 153.465 131.723Z" fill="#DADBD8"/>
<path d="M179.238 144.783C179.238 144.783 180.89 146.301 180.629 147.591C180.368 148.88 180.455 149.839 179.238 149.927C179.238 149.927 179.325 151.583 177.586 151.845C177.586 151.845 177.959 153.867 175.611 154.215C175.611 154.215 174.891 156.377 173.412 155.855C171.934 155.332 170.978 154.721 170.978 154.721L170.543 153.937C170.543 153.937 168.365 153.116 168.902 151.883C169.228 151.135 170.354 150.94 170.354 150.94C170.354 150.94 169.886 149.842 170.493 149.023C171.015 148.32 172.716 148.901 172.716 148.901C172.716 148.901 172.615 147.993 173.255 147.232C173.833 146.544 176.54 148.415 176.54 148.415L178.016 146.646L179.238 144.783Z" fill="#945B4B"/>
<path d="M175.611 154.216C175.565 154.29 174.35 153.617 172.898 152.713C171.446 151.809 170.307 151.015 170.354 150.94C170.4 150.865 171.614 151.538 173.067 152.442C174.518 153.346 175.657 154.141 175.611 154.216Z" fill="#5A3A31"/>
<path d="M177.586 151.845C177.541 151.92 176.413 151.322 175.068 150.51C173.724 149.696 172.67 148.976 172.716 148.901C172.761 148.825 173.888 149.424 175.233 150.236C176.578 151.049 177.632 151.769 177.586 151.845Z" fill="#5A3A31"/>
<path d="M174.895 147.407C174.944 147.317 175.953 147.85 177.127 148.595C178.302 149.347 179.249 149.932 179.226 149.992C179.182 150.096 178.133 149.618 176.958 148.866C175.779 148.118 174.86 147.472 174.895 147.407Z" fill="#5A3A31"/>
<path d="M187.541 131.855C187.541 131.861 187.489 131.866 187.388 131.872C187.267 131.876 187.118 131.881 186.936 131.888C186.514 131.895 185.934 131.905 185.201 131.918C183.666 131.93 181.492 131.947 178.816 131.969C173.403 131.98 165.967 131.997 157.754 132.015C157.239 132.015 156.728 132.015 156.221 132.015C155.738 131.978 155.301 132.191 155.052 132.568C154.568 133.443 154.091 134.305 153.622 135.152C152.682 136.853 151.776 138.493 150.913 140.057C149.182 143.175 147.622 145.984 146.307 148.352C144.996 150.69 143.931 152.591 143.178 153.932C142.813 154.569 142.525 155.073 142.314 155.44C142.22 155.598 142.144 155.725 142.082 155.829C142.028 155.915 141.999 155.959 141.994 155.956C141.989 155.953 142.009 155.905 142.053 155.812C142.108 155.705 142.175 155.572 142.258 155.409C142.456 155.034 142.727 154.521 143.07 153.87C143.802 152.517 144.837 150.6 146.111 148.242C147.409 145.864 148.948 143.042 150.657 139.912C151.515 138.346 152.417 136.703 153.35 134.999C153.821 134.145 154.301 133.276 154.787 132.394C155.084 131.918 155.686 131.649 156.221 131.697C156.728 131.697 157.239 131.696 157.754 131.696C165.967 131.714 173.403 131.73 178.816 131.743C181.492 131.764 183.666 131.781 185.201 131.794C185.934 131.806 186.514 131.816 186.936 131.824C187.119 131.83 187.267 131.835 187.388 131.839C187.489 131.845 187.541 131.851 187.541 131.855Z" fill="#17282F"/>
<path d="M164.919 143.105C164.35 143.735 164.337 144.651 164.888 145.15C165.439 145.648 166.347 145.542 166.915 144.91C167.482 144.279 167.497 143.363 166.945 142.864C166.394 142.366 165.486 142.473 164.919 143.105Z" fill="white"/>
<path d="M86.0686 136.214C85.3625 135.799 84.495 135.396 83.5181 135.11C82.3835 134.78 81.2904 134.662 80.3912 134.662C80.1149 134.662 79.8569 134.673 79.6215 134.692C78.8464 134.756 78.3139 134.883 78.1146 134.951C77.6989 135 77.2746 135.072 76.8412 135.168C76.6248 135.216 75.8778 135.523 75.5898 135.523C75.5697 135.523 75.5513 135.521 75.5354 135.518C75.3031 135.468 75.0812 135.276 75.0843 135.037C75.0867 134.743 75.3973 134.56 75.6699 134.451C76.9213 133.946 78.4307 133.692 79.9168 133.692C82.6066 133.692 85.2188 134.522 86.0796 136.187C86.0759 136.196 86.0722 136.206 86.0686 136.214ZM84.9566 135.976C83.6037 135.487 82.3114 135.124 80.9927 134.963C81.7349 135.029 82.5687 135.167 83.4295 135.416C83.9748 135.576 84.4864 135.769 84.9566 135.976Z" fill="#7300A0"/>
<path d="M86.0198 136.378C85.6603 136.236 85.3064 136.102 84.9567 135.976C84.4866 135.768 83.9749 135.576 83.4296 135.416C82.5689 135.167 81.735 135.029 80.9929 134.963C80.5001 134.902 80.0044 134.87 79.5 134.87C79.0458 134.87 78.5855 134.896 78.1147 134.951C78.314 134.883 78.8465 134.756 79.6217 134.692C79.857 134.672 80.115 134.661 80.3913 134.661C81.2906 134.661 82.3836 134.78 83.5183 135.11C84.4952 135.396 85.3626 135.798 86.0687 136.214C86.0284 136.317 86.0112 136.373 86.0198 136.378ZM86.0546 136.342C86.0693 136.321 86.0889 136.291 86.1121 136.253C86.1158 136.259 86.1188 136.266 86.1219 136.273L86.0546 136.342Z" fill="#0F191D"/>
<path d="M86.0197 136.378C86.0112 136.373 86.0283 136.317 86.0686 136.214C86.0723 136.205 86.076 136.196 86.0796 136.187C86.0906 136.209 86.1016 136.231 86.112 136.253C86.0888 136.291 86.0693 136.321 86.0546 136.342L86.0197 136.378Z" fill="#0F191D"/>
<path d="M137.086 30.9884L136.975 32.1959L131.955 31.7295L132.555 25.228L137.456 25.6835L137.344 26.891L133.935 26.5741L133.805 27.9857L136.815 28.2658L136.707 29.4359L133.697 29.1558L133.558 30.6605L137.086 30.9884Z" fill="white"/>
<path d="M141.127 31.469C142.408 31.64 143.349 30.9854 143.514 29.7472C143.679 28.5091 142.943 27.6295 141.661 27.4585L140.298 27.2753L139.763 31.2857L141.127 31.469ZM138.969 25.8465L141.899 26.2394C144.01 26.522 145.287 27.9912 145.026 29.9501C144.765 31.9091 143.148 32.9903 141.037 32.7077L138.106 32.3148L138.969 25.8465Z" fill="white"/>
<path d="M79.931 13.3062L86.1415 19.6543L94.8779 16.3439L95.2233 18.5168L91.4398 26.2864L94.9275 32.0854L94.6352 33.8163L86.1812 32.39L81.1836 37.8905L80.0099 36.9968L78.9743 30.0026L71.087 25.8855L70.7422 24.29L78.6827 22.1098L79.931 13.3062Z" fill="#AE41D9"/>
<path d="M81.1836 37.8905L80.0099 36.9968L78.9743 30.0026L71.087 25.8855L70.7422 24.29L78.6827 22.1098L79.931 13.3062L86.1415 19.6543L94.8779 16.3439L95.2233 18.5168L91.4398 26.2864L94.9275 32.0854L94.6352 33.8163L86.1812 32.39L81.1836 37.8905Z" fill="#7300A0"/>
<path d="M79.931 11.5256L86.1415 17.8738L94.8779 16.3439L90.7759 24.2275L94.9275 32.0854L86.1812 30.61L80.0099 36.9968L78.7071 28.2005L70.7422 24.29L78.6827 20.3298L79.931 11.5256Z" fill="#FFBF00"/>
<path d="M144.274 13.3062L138.063 19.6543L129.326 16.3439L128.981 18.5168L132.765 26.2864L129.277 32.0854L129.57 33.8163L138.023 32.39L143.021 37.8905L144.194 36.9968L145.23 30.0026L153.118 25.8855L153.462 24.29L145.521 22.1098L144.274 13.3062Z" fill="#AE41D9"/>
<path d="M143.021 37.8905L138.023 32.39L129.57 33.8163L129.277 32.0854L132.765 26.2864L128.981 18.5168L129.326 16.3439L138.063 19.6543L144.274 13.3062L145.521 22.1098L153.462 24.29L153.118 25.8855L145.23 30.0026L144.194 36.9968L143.021 37.8905Z" fill="#7300A0"/>
<path d="M144.274 11.5256L138.063 17.8738L129.326 16.3439L133.429 24.2275L129.277 32.0854L138.023 30.61L144.194 36.9968L145.497 28.2005L153.463 24.29L145.521 20.3298L144.274 11.5256Z" fill="#FFBF00"/>
<path d="M111.898 2.17221L117.064 12.2894L128.981 11.5869L128.577 14.3691L121.009 22.4041L123.061 30.8118L122.046 32.8124L112.274 27.8427L104.087 32.6457L102.994 31.1066L104.388 22.1779L96.3291 14.1429L96.5143 12.0638L107.031 12.4371L111.898 2.17221Z" fill="#AE41D9"/>
<path d="M122.046 32.8124L112.274 27.8427L104.087 32.6457L102.994 31.1066L104.388 22.1779L96.3291 14.1429L96.5143 12.0638L107.031 12.4371L111.898 2.17221L117.064 12.2894L128.981 11.5869L128.577 14.3691L121.009 22.4041L123.061 30.8118L122.046 32.8124Z" fill="#7300A0"/>
<path d="M112.575 -5.14984e-05L117.74 10.1177L128.981 11.5869L120.98 19.6385L123.061 30.8117L112.95 25.671L102.994 31.1066L104.747 19.8775L96.5144 12.0644L107.707 10.2648L112.575 -5.14984e-05Z" fill="#FFBF00"/>
<path d="M133.155 74.7866L141.79 75.7403C143.868 72.7737 146.763 70.3274 150.328 68.7896C160.579 64.366 172.466 69.1126 176.878 79.391C181.29 89.6693 176.556 101.588 166.304 106.011C156.053 110.435 144.166 105.688 139.754 95.4095C137.912 91.1183 137.67 86.5415 138.753 82.3429L138.746 82.3527L133.155 74.7866Z" fill="#FAFAF9"/>
<path d="M133.155 74.7866C133.494 75.2372 135.239 77.5577 138.811 82.3056L138.677 82.3141L138.683 82.3043L138.791 82.2731L138.829 82.3632C138.115 85.1625 137.84 88.8499 138.963 92.8273C139.25 93.8135 139.596 94.823 140.08 95.8049C140.326 96.2928 140.558 96.7979 140.824 97.2937C141.123 97.7712 141.425 98.2548 141.732 98.7452C143.043 100.648 144.752 102.433 146.837 103.883C148.916 105.335 151.37 106.449 154.045 107.036C156.715 107.621 159.609 107.689 162.456 107.074C165.298 106.457 168.088 105.199 170.508 103.335C172.917 101.47 175.005 99.0314 176.347 96.1494C177.727 93.2238 178.466 90.0267 178.351 86.9026C178.264 83.7797 177.448 80.7616 176.086 78.1241C174.727 75.4866 172.834 73.2157 170.623 71.5185C168.42 69.8102 165.948 68.6309 163.465 67.9665C160.98 67.2971 158.487 67.1421 156.168 67.3762C153.842 67.6189 151.729 68.3183 149.841 69.1311C146.077 70.8626 143.485 73.4725 141.852 75.7839L141.781 75.8164C136.318 75.1642 133.69 74.8504 133.155 74.7866C133.69 74.8406 136.324 75.1084 141.798 75.6644L141.727 75.6963C143.353 73.3536 145.952 70.6996 149.747 68.9306C151.652 68.0995 153.788 67.383 156.141 67.1286C158.488 66.8828 161.015 67.0311 163.536 67.7023C166.054 68.3692 168.563 69.5583 170.803 71.2874C173.049 73.0048 174.974 75.3064 176.358 77.9825C177.744 80.6574 178.576 83.7227 178.666 86.8946C178.784 90.0684 178.036 93.3164 176.634 96.2879C175.27 99.2153 173.149 101.693 170.7 103.586C168.24 105.478 165.407 106.752 162.52 107.375C159.628 107.996 156.69 107.922 153.983 107.323C151.27 106.723 148.784 105.586 146.68 104.109C144.57 102.633 142.845 100.819 141.524 98.8868C141.216 98.3891 140.911 97.8981 140.611 97.4139C140.344 96.9113 140.11 96.3995 139.863 95.9042C139.379 94.9094 139.033 93.8864 138.747 92.8879C137.631 88.8609 137.933 85.1379 138.676 82.3227L138.821 82.3822L138.816 82.392L138.709 82.4226L138.683 82.3999C135.193 77.5927 133.487 75.2427 133.155 74.7866Z" fill="#17282F"/>
<path d="M150.867 80.1878C150.872 80.1933 150.877 80.2889 150.883 80.4685C150.887 80.6695 150.892 80.9288 150.898 81.2537C150.907 81.9616 150.919 82.9521 150.935 84.2001C150.952 86.7413 150.975 90.3239 151.005 94.6127L150.867 94.4747C155.055 94.468 159.988 94.4613 165.252 94.4527C165.288 94.419 164.952 94.7542 165.095 94.6102V94.6059V94.5986V94.5832V94.5526V94.4901V94.3669V94.1199V93.6277C165.095 93.3004 165.095 92.9743 165.095 92.6494C165.095 92.0003 165.095 91.3573 165.096 90.7211C165.098 89.4487 165.099 88.2038 165.1 86.9926C165.106 84.5715 165.111 82.2865 165.116 80.1884L165.254 80.3263C160.976 80.2975 157.402 80.273 154.868 80.2558C153.623 80.2405 152.636 80.2282 151.93 80.2196C151.605 80.2129 151.347 80.208 151.146 80.2037C150.967 80.1988 150.872 80.1933 150.867 80.1878C150.862 80.1829 150.947 80.178 151.116 80.1724C151.31 80.1688 151.559 80.1632 151.873 80.1565C152.572 80.1479 153.549 80.1357 154.78 80.1203C157.336 80.1032 160.939 80.0793 165.254 80.0499L165.391 80.0492L165.391 80.1884C165.396 82.2865 165.402 84.5715 165.408 86.9926C165.409 88.2038 165.409 89.4487 165.411 90.7211C165.411 91.3573 165.412 92.0003 165.412 92.6494C165.413 92.9743 165.413 93.3004 165.413 93.6277V94.1199V94.3669V94.4901V94.5526V94.5832V94.5986V94.6059V94.6102C165.555 94.4686 165.219 94.8076 165.252 94.772C159.988 94.7647 155.055 94.7573 150.867 94.7506H150.729L150.73 94.6127C150.758 90.2878 150.782 86.6745 150.799 84.1118C150.815 82.8773 150.827 81.8973 150.835 81.1967C150.842 80.8828 150.847 80.6321 150.851 80.4378C150.857 80.2681 150.862 80.1829 150.867 80.1878Z" fill="#17282F"/>
<path d="M163.701 82.5727C163.907 82.7369 161.971 85.5313 159.378 88.8142C158.86 89.4695 158.354 90.094 157.886 90.6622L157.578 91.0349L157.234 90.7241C154.987 88.6947 153.462 87.1372 153.6 86.9772C153.738 86.8167 155.497 88.1032 157.827 90.0358L157.175 90.0977C157.619 89.5099 158.111 88.8743 158.629 88.2191C161.223 84.9368 163.494 82.409 163.701 82.5727Z" fill="#AE41D9"/>
</svg>
